<svg width="900" height="973" viewBox="0 0 900 973" fill="none" xmlns="http://www.w3.org/2000/svg">
<g clip-path="url(#clip0_115_706)">
<path d="M677.307 124.682C691.846 124.682 703.632 112.376 703.632 97.1973C703.632 82.0181 691.846 69.713 677.307 69.713C662.768 69.713 650.983 82.0181 650.983 97.1973C650.983 112.376 662.768 124.682 677.307 124.682Z" fill="#AAC6EF"/>
<path d="M220.974 102.181C205.577 102.181 193.053 89.1056 193.053 73.038C193.053 56.9633 205.577 43.8876 220.974 43.8876C236.363 43.8876 248.887 56.9633 248.887 73.038C248.887 89.1032 236.363 102.181 220.974 102.181ZM220.974 47.215C207.335 47.215 196.243 58.796 196.243 73.0356C196.243 87.2704 207.335 98.8514 220.974 98.8514C234.608 98.8514 245.698 87.2704 245.698 73.0356C245.7 58.796 234.608 47.215 220.974 47.215Z" fill="#4D7292"/>
<path d="M235.727 106.269C229.443 106.269 224.336 100.938 224.336 94.3769C224.336 87.8161 229.443 82.4844 235.727 82.4844C242.011 82.4844 247.118 87.8161 247.118 94.3769C247.118 100.938 242.013 106.269 235.727 106.269ZM235.727 85.8143C231.206 85.8143 227.526 89.6562 227.526 94.3793C227.526 99.1025 231.208 102.944 235.727 102.944C240.249 102.944 243.931 99.1025 243.931 94.3793C243.931 89.6562 240.249 85.8143 235.727 85.8143Z" fill="#4D7292"/>
<path d="M22.5338 431.8C27.122 431.8 30.8415 427.917 30.8415 423.126C30.8415 418.336 27.122 414.453 22.5338 414.453C17.9457 414.453 14.2262 418.336 14.2262 423.126C14.2262 427.917 17.9457 431.8 22.5338 431.8Z" fill="#E8E8E8"/>
<path d="M55.5585 431.8C60.1467 431.8 63.8661 427.917 63.8661 423.126C63.8661 418.336 60.1467 414.453 55.5585 414.453C50.9703 414.453 47.2509 418.336 47.2509 423.126C47.2509 427.917 50.9703 431.8 55.5585 431.8Z" fill="#E8E8E8"/>
<path d="M88.5832 431.8C93.1713 431.8 96.8908 427.917 96.8908 423.126C96.8908 418.336 93.1713 414.453 88.5832 414.453C83.995 414.453 80.2755 418.336 80.2755 423.126C80.2755 427.917 83.995 431.8 88.5832 431.8Z" fill="#E8E8E8"/>
<path d="M121.608 431.8C126.196 431.8 129.916 427.917 129.916 423.126C129.916 418.336 126.196 414.453 121.608 414.453C117.02 414.453 113.3 418.336 113.3 423.126C113.3 427.917 117.02 431.8 121.608 431.8Z" fill="#E8E8E8"/>
<path d="M154.633 431.8C159.221 431.8 162.94 427.917 162.94 423.126C162.94 418.336 159.221 414.453 154.633 414.453C150.045 414.453 146.325 418.336 146.325 423.126C146.325 427.917 150.045 431.8 154.633 431.8Z" fill="#E8E8E8"/>
<path d="M22.5338 466.236C27.122 466.236 30.8415 462.353 30.8415 457.563C30.8415 452.772 27.122 448.889 22.5338 448.889C17.9457 448.889 14.2262 452.772 14.2262 457.563C14.2262 462.353 17.9457 466.236 22.5338 466.236Z" fill="#E8E8E8"/>
<path d="M55.5585 466.236C60.1467 466.236 63.8661 462.353 63.8661 457.563C63.8661 452.772 60.1467 448.889 55.5585 448.889C50.9703 448.889 47.2509 452.772 47.2509 457.563C47.2509 462.353 50.9703 466.236 55.5585 466.236Z" fill="#E8E8E8"/>
<path d="M88.5832 466.236C93.1713 466.236 96.8908 462.353 96.8908 457.563C96.8908 452.772 93.1713 448.889 88.5832 448.889C83.995 448.889 80.2755 452.772 80.2755 457.563C80.2755 462.353 83.995 466.236 88.5832 466.236Z" fill="#E8E8E8"/>
<path d="M121.608 466.236C126.196 466.236 129.916 462.353 129.916 457.563C129.916 452.772 126.196 448.889 121.608 448.889C117.02 448.889 113.3 452.772 113.3 457.563C113.3 462.353 117.02 466.236 121.608 466.236Z" fill="#E8E8E8"/>
<path d="M154.633 466.236C159.221 466.236 162.94 462.353 162.94 457.563C162.94 452.772 159.221 448.889 154.633 448.889C150.045 448.889 146.325 452.772 146.325 457.563C146.325 462.353 150.045 466.236 154.633 466.236Z" fill="#E8E8E8"/>
<path d="M22.5338 500.673C27.122 500.673 30.8415 496.789 30.8415 491.999C30.8415 487.209 27.122 483.325 22.5338 483.325C17.9457 483.325 14.2262 487.209 14.2262 491.999C14.2262 496.789 17.9457 500.673 22.5338 500.673Z" fill="#E8E8E8"/>
<path d="M55.5585 500.673C60.1467 500.673 63.8661 496.789 63.8661 491.999C63.8661 487.209 60.1467 483.325 55.5585 483.325C50.9703 483.325 47.2509 487.209 47.2509 491.999C47.2509 496.789 50.9703 500.673 55.5585 500.673Z" fill="#E8E8E8"/>
<path d="M88.5832 500.673C93.1713 500.673 96.8908 496.789 96.8908 491.999C96.8908 487.209 93.1713 483.325 88.5832 483.325C83.995 483.325 80.2755 487.209 80.2755 491.999C80.2755 496.789 83.995 500.673 88.5832 500.673Z" fill="#E8E8E8"/>
<path d="M121.608 500.673C126.196 500.673 129.916 496.789 129.916 491.999C129.916 487.209 126.196 483.325 121.608 483.325C117.02 483.325 113.3 487.209 113.3 491.999C113.3 496.789 117.02 500.673 121.608 500.673Z" fill="#E8E8E8"/>
<path d="M154.633 500.673C159.221 500.673 162.94 496.789 162.94 491.999C162.94 487.209 159.221 483.325 154.633 483.325C150.045 483.325 146.325 487.209 146.325 491.999C146.325 496.789 150.045 500.673 154.633 500.673Z" fill="#E8E8E8"/>
<path d="M22.5338 535.109C27.122 535.109 30.8415 531.226 30.8415 526.435C30.8415 521.645 27.122 517.762 22.5338 517.762C17.9457 517.762 14.2262 521.645 14.2262 526.435C14.2262 531.226 17.9457 535.109 22.5338 535.109Z" fill="#E8E8E8"/>
<path d="M55.5585 535.109C60.1467 535.109 63.8661 531.226 63.8661 526.435C63.8661 521.645 60.1467 517.762 55.5585 517.762C50.9703 517.762 47.2509 521.645 47.2509 526.435C47.2509 531.226 50.9703 535.109 55.5585 535.109Z" fill="#E8E8E8"/>
<path d="M88.5832 535.109C93.1713 535.109 96.8908 531.226 96.8908 526.435C96.8908 521.645 93.1713 517.762 88.5832 517.762C83.995 517.762 80.2755 521.645 80.2755 526.435C80.2755 531.226 83.995 535.109 88.5832 535.109Z" fill="#E8E8E8"/>
<path d="M121.608 535.109C126.196 535.109 129.916 531.226 129.916 526.435C129.916 521.645 126.196 517.762 121.608 517.762C117.02 517.762 113.3 521.645 113.3 526.435C113.3 531.226 117.02 535.109 121.608 535.109Z" fill="#E8E8E8"/>
<path d="M154.633 535.109C159.221 535.109 162.94 531.226 162.94 526.435C162.94 521.645 159.221 517.762 154.633 517.762C150.045 517.762 146.325 521.645 146.325 526.435C146.325 531.226 150.045 535.109 154.633 535.109Z" fill="#E8E8E8"/>
<path d="M22.5338 569.545C27.122 569.545 30.8415 565.662 30.8415 560.872C30.8415 556.081 27.122 552.198 22.5338 552.198C17.9457 552.198 14.2262 556.081 14.2262 560.872C14.2262 565.662 17.9457 569.545 22.5338 569.545Z" fill="#E8E8E8"/>
<path d="M55.5585 569.545C60.1467 569.545 63.8661 565.662 63.8661 560.872C63.8661 556.081 60.1467 552.198 55.5585 552.198C50.9703 552.198 47.2509 556.081 47.2509 560.872C47.2509 565.662 50.9703 569.545 55.5585 569.545Z" fill="#E8E8E8"/>
<path d="M88.5832 569.545C93.1713 569.545 96.8908 565.662 96.8908 560.872C96.8908 556.081 93.1713 552.198 88.5832 552.198C83.995 552.198 80.2755 556.081 80.2755 560.872C80.2755 565.662 83.995 569.545 88.5832 569.545Z" fill="#E8E8E8"/>
<path d="M121.608 569.545C126.196 569.545 129.916 565.662 129.916 560.872C129.916 556.081 126.196 552.198 121.608 552.198C117.02 552.198 113.3 556.081 113.3 560.872C113.3 565.662 117.02 569.545 121.608 569.545Z" fill="#E8E8E8"/>
<path d="M154.633 569.545C159.221 569.545 162.94 565.662 162.94 560.872C162.94 556.081 159.221 552.198 154.633 552.198C150.045 552.198 146.325 556.081 146.325 560.872C146.325 565.662 150.045 569.545 154.633 569.545Z" fill="#E8E8E8"/>
<path d="M118.655 822.833C-241.632 988.634 306.698 985.602 747.226 959.965C864.988 953.112 850.003 913.73 792.61 897.112C755.695 886.422 684.59 895.243 670.621 876.084C666.316 870.18 665.294 862.656 678.042 859.097C685.032 857.146 694.202 856.948 702.778 856.982C783.838 857.317 840.914 766.637 622.727 766.756C562.841 766.787 503.769 749.203 445.139 739.575C401.436 732.399 358.256 723.691 311.183 721.608C296.379 720.951 280.002 721.151 268.532 724.882C254.1 729.578 193.627 724.563 151.004 721.76C126.088 720.12 215.414 778.305 118.655 822.833Z" fill="#C1F3F2"/>
<path d="M624.574 908.128H284.694C274.143 908.128 265.59 899.198 265.59 888.182V148.003C265.59 136.987 274.143 128.057 284.694 128.057H624.577C635.128 128.057 643.681 136.987 643.681 148.003V888.185C643.678 899.198 635.126 908.128 624.574 908.128Z" fill="#AAC6EF"/>
<path d="M612.786 897.237H253.267C248.14 897.237 243.984 892.898 243.984 887.545V126.862C243.984 121.509 248.14 117.169 253.267 117.169H612.786C617.913 117.169 622.07 121.509 622.07 126.862V887.545C622.072 892.898 617.913 897.237 612.786 897.237Z" fill="#6B8C96"/>
<path d="M580.678 870.49H283.618C278.386 870.49 274.144 866.062 274.144 860.6V146.381C274.144 140.919 278.386 136.49 283.618 136.49H580.678C585.91 136.49 590.152 140.919 590.152 146.381V860.6C590.15 866.064 585.91 870.49 580.678 870.49Z" fill="#9CC4F7"/>
<path d="M498.463 140.979H367.569C363.936 140.979 360.99 136.009 360.99 129.881C360.99 123.752 360.99 118.782 360.99 118.782H505.041C505.041 118.782 505.041 123.752 505.041 129.881C505.041 136.009 502.095 140.979 498.463 140.979Z" fill="#6B8C96"/>
<path d="M430.883 521.886C370.59 521.886 315.802 543.788 275.024 579.494V843.399C275.024 855.277 284.246 864.904 295.622 864.904H570.434C581.808 864.904 591.032 855.277 591.032 843.399V583.317C549.85 545.345 493.306 521.886 430.883 521.886Z" fill="#6899F3"/>
<path d="M556.853 710.947H309.201V734.391H556.853V710.947Z" fill="#9CC4F7"/>
<path d="M556.853 795.201H309.201V818.646H556.853V795.201Z" fill="#9CC4F7"/>
<path d="M593.219 504.069H332.06C323.548 504.069 316.647 496.866 316.647 487.977V324.208C316.647 315.322 323.546 308.117 332.06 308.117H593.219C601.73 308.117 608.631 315.32 608.631 324.208V487.977C608.631 496.866 601.73 504.069 593.219 504.069Z" fill="#7E9FE4"/>
<path d="M594.317 355.308H326.676V529.911H594.317V355.308Z" fill="white"/>
<path d="M594.602 530.208H326.391V355.011H594.602V530.208ZM326.96 529.614H594.033V355.605H326.96V529.614Z" fill="#61ABEB"/>
<path d="M535.148 460.007H465.061C464.582 460.007 464.191 459.602 464.191 459.099V455.038C464.191 454.536 464.58 454.13 465.061 454.13H535.148C535.63 454.13 536.018 454.536 536.018 455.038V459.099C536.016 459.599 535.627 460.007 535.148 460.007Z" fill="#ADC6F2"/>
<path d="M455.844 400.789H385.756C385.275 400.789 384.887 400.383 384.887 399.881V395.819C384.887 395.317 385.275 394.911 385.756 394.911H455.844C456.325 394.911 456.714 395.317 456.714 395.819V399.881C456.711 400.381 456.323 400.789 455.844 400.789Z" fill="#ECEDEE"/>
<path d="M429.772 515.193H388.074C387.593 515.193 387.204 514.788 387.204 514.286V510.224C387.204 509.722 387.593 509.316 388.074 509.316H429.772C430.253 509.316 430.641 509.722 430.641 510.224V514.286C430.641 514.788 430.253 515.193 429.772 515.193Z" fill="#C08581"/>
<path d="M593.485 308.119H331.794C323.428 308.119 316.647 315.199 316.647 323.933V344.216H608.629V323.933C608.631 315.199 601.85 308.119 593.485 308.119Z" fill="#3F6DB0"/>
<path d="M592.384 332.822H549.328C548.262 332.822 547.397 331.919 547.397 330.805V321.772C547.397 320.659 548.262 319.756 549.328 319.756H592.384C593.45 319.756 594.315 320.659 594.315 321.772V330.805C594.317 331.919 593.452 332.822 592.384 332.822Z" fill="#80B3EE"/>
<path d="M430.292 369.513L424.152 364.867L430.255 359.449L430.993 360.354L425.99 364.793L430.956 368.552L430.292 369.513Z" fill="#80B3EE"/>
<path d="M490.703 369.513L490.034 368.552L495.002 364.793L490 360.354L490.738 359.449L496.841 364.867L490.703 369.513Z" fill="#80B3EE"/>
<path d="M260.458 468.685C260.458 468.685 271.962 470.044 275.32 462.991C278.676 455.935 272.95 446.564 272.95 446.564L260.211 449.652C260.211 449.652 255.782 465.089 260.458 468.685Z" fill="#D17975"/>
<path d="M251.894 426.249C263.312 432.546 296.64 632.98 302.794 664.514C308.947 696.05 342.508 874.749 342.508 874.749L297.202 878.253C297.202 878.253 246.301 723.496 234.555 698.97C222.808 674.443 163.426 491.497 169.347 449.821C169.347 449.821 222.248 409.899 251.894 426.249Z" fill="#262673"/>
<path d="M219.825 438.709C219.825 438.709 218.754 654.111 210.152 684.23C201.551 714.349 181.131 882.739 181.131 882.739H132.941L118.865 426.797C118.865 426.797 214.914 404.627 219.825 438.709Z" fill="#2D2D85"/>
<path d="M181.013 276.396C177.567 269.852 179.632 261.582 185.662 257.566C192.966 252.703 197.397 252.089 214.022 252.089C256.945 252.089 261.31 283.123 266.301 312.139C273.47 353.822 287.854 453.146 283.714 468.791L260.211 449.652C234.483 449.652 211.82 334.893 181.013 276.396Z" fill="#F7F9FF"/>
<path d="M274.275 492.504C274.275 492.504 285.851 492.187 288.238 484.716C290.627 477.245 283.712 468.791 283.712 468.791L271.502 473.691C271.502 473.691 269.169 489.62 274.275 492.504Z" fill="#D17975"/>
<path d="M210.154 251.573C210.154 251.573 247.671 278.581 253.432 301.635C259.193 324.688 260.782 426.43 260.782 426.43C260.782 426.43 182.25 483.214 115.433 425.384C115.433 425.384 114.845 424.358 116.474 415.776C118.812 403.454 122.015 329.974 123.01 314.428C123.139 312.407 117.554 311.996 118.481 310.217C125.038 297.621 144.431 246.572 210.154 251.573Z" fill="#8ACBC9"/>
<path d="M183.069 252.891L180.474 283.411L201.597 297.221L212.266 343.808L196.338 615.85L106.772 584.686L115.431 425.384L123.294 300.799C123.294 300.799 139.461 257.09 183.069 252.891Z" fill="#F7F9FF"/>
<path d="M253.212 336.228C253.191 335.895 253.178 335.593 253.164 335.296L251.034 295.108C256.459 303.89 256.961 329.667 257.174 333.12C258.414 350.397 259.27 371.075 259.834 388.577C259.827 388.526 254.038 349.246 253.219 336.295L253.217 336.298L253.212 336.228Z" fill="#383BA4"/>
<path d="M219.547 214.649C219.547 214.649 218.402 222.116 219.547 224.803C220.692 227.491 218.585 242.841 215.886 245.821C214.503 247.345 208.311 246.929 202.876 240.955C197.441 234.981 197.806 222.415 197.806 222.415C197.806 222.415 196.661 208.975 219.547 214.649Z" fill="#D17975"/>
<path d="M217.863 262.579C217.683 255.371 212.414 216.868 212.414 216.868C212.414 216.868 204.447 220.227 199.557 224.525C199.402 223.378 198.977 221.896 198.103 219.925C198.103 219.925 196.065 216.108 194.247 216.868C192.432 217.627 190.614 220.662 194.247 224.076L196.518 228.106C196.197 228.705 195.977 229.309 195.882 229.913C195.882 229.913 191.159 260.872 189.705 263.716C189.705 263.716 201.796 280.786 208.829 279.458C215.865 278.13 218.046 269.785 217.863 262.579Z" fill="#D17975"/>
<path d="M217.431 257.025C217.128 253.987 216.69 250.17 216.198 246.099C216.001 245.92 215.883 245.821 215.883 245.821C215.883 245.821 208.017 251.669 202.874 240.955C202.874 240.955 207.335 258.269 217.431 257.025Z" fill="#AB6360"/>
<path d="M172.994 319.081L151.684 373.562C151.684 373.562 156.011 379.058 186.228 387.055L135.309 382.224L172.994 319.081Z" fill="#DDE2EE"/>
<path d="M143.978 272.53C148.987 267.198 164.608 270.688 169.238 276.377C174.847 283.268 179.949 294.622 175.485 311.342C169.363 334.277 143.996 377.092 143.996 377.092C143.996 377.092 165.54 426.27 110.805 416.418C102.731 414.965 96.9025 407.544 96.9372 398.989C97.0459 372.132 106.304 312.626 143.978 272.53Z" fill="#F7F9FF"/>
<path d="M328.95 875.884C328.95 875.884 355.679 897.785 365.088 899.471C366.725 899.763 368.12 901.424 368.24 903.523C368.358 905.604 367.426 907.956 363.228 909.031C357.046 910.612 329.558 907.876 315.485 906.324C310.69 905.795 307.045 901.666 306.925 896.634C306.86 893.927 306.786 890.817 306.703 887.646C306.59 883.227 308.123 877.441 308.123 877.441L328.95 875.884Z" fill="#422E2D"/>
<path d="M146.598 882.739C146.598 882.739 123.919 909.859 115.063 912.909C113.52 913.44 112.398 915.287 112.565 917.381C112.731 919.46 113.948 921.65 118.143 922.099C124.307 922.756 150.349 916.05 163.757 912.44C168.383 911.194 171.394 906.604 170.834 901.649C170.529 898.94 170.18 895.817 169.828 892.63C169.342 888.238 167.083 882.737 167.083 882.737L146.598 882.739Z" fill="#422E2D"/>
<path d="M219.066 219.71C216.313 213.253 204.305 217.61 203.868 217.854C202.744 218.484 202.002 219.793 202.013 221.125C202.02 221.93 202.279 222.707 202.337 223.509C202.43 224.75 202.016 226.023 201.222 226.952C201.296 225.499 198.648 219.884 197.004 224.528C196.569 225.759 197.73 227.051 197.853 228.358C198.077 230.724 196.863 232.972 195.505 234.885C194.011 233.426 193.428 231.205 193.294 229.072C193.037 225.011 191.721 227.826 191.226 223.789C190.586 218.578 190.151 209.919 197.795 206.072C226.557 191.589 219.066 219.71 219.066 219.71Z" fill="#422E2D"/>
<path d="M210.321 630.249L210.319 630.247C210.328 630.227 210.335 630.208 210.344 630.189C210.753 629.201 211.158 628.276 211.568 627.378C211.63 627.24 211.692 627.093 211.755 626.958C212.148 626.101 212.532 625.304 212.911 624.533C212.988 624.376 213.064 624.217 213.14 624.065C213.494 623.36 213.832 622.71 214.163 622.087C214.267 621.892 214.368 621.699 214.47 621.51C214.759 620.977 215.03 620.491 215.294 620.03C215.435 619.784 215.564 619.557 215.696 619.332C215.791 619.17 215.904 618.965 215.994 618.813V618.83C217.121 616.932 217.875 615.85 217.875 615.85L242.363 718.328H242.36C239.062 709.524 236.347 702.715 234.552 698.97C231.095 691.75 223.506 670.783 214.674 643.752C213.464 663.039 211.979 677.829 210.15 684.228C207.097 694.922 202.55 723.076 197.959 754.914L197.957 754.916C197.957 754.916 208.415 634.856 210.321 630.249Z" fill="#422E2D"/>
<path d="M209.218 395.869C181.716 393.493 141.883 382.221 141.883 382.221L116.236 412.606L115.56 423.298C147.003 430.151 185.001 421.627 208.117 414.656L209.218 395.869Z" fill="#DDE2EE"/>
<path d="M216.804 251.23L217.606 258.868L235.248 277.461L228.056 291.809L226.416 341.842L255.432 612.527L307.936 592.012L261.622 377.092L254.251 271.04C254.251 271.04 247.032 248.936 216.804 251.23Z" fill="#F7F9FF"/>
<path d="M256.829 308.135L264.196 377.092L267.343 405.185L259.834 372.949L256.829 308.135Z" fill="#DDE2EE"/>
<path d="M193.495 308.577L190.736 309.038L183.761 273.479C183.141 269.432 183.194 265.457 183.918 261.678C185.19 255.069 187.554 251.614 189.693 249.568C191.178 248.151 193.014 247.649 193.014 247.649L192.325 251.614C191.349 252.251 188.051 255.016 186.659 262.253C185.995 265.691 185.951 269.316 186.518 273.02L193.495 308.577Z" fill="black"/>
<path d="M183.069 252.891L205.427 287.596L212.266 343.808L201.597 297.221L180.474 283.411L183.069 252.891Z" fill="#C1F3F2"/>
<path d="M234.795 286.557C231.03 254.41 217.137 252.299 216.982 252.29L216.633 249.296C217.354 249.337 233.368 251.394 237.409 285.9L234.795 286.557Z" fill="#272425"/>
<path d="M216.804 271.183L223.61 283.812L226.414 341.845L228.053 291.812L235.246 277.463L217.604 258.87C217.606 258.865 217.597 264.781 216.804 271.183Z" fill="#C1F3F2"/>
<path d="M192.327 251.611C192.327 251.611 191.286 263.216 189.841 263.398L183.071 252.889C183.071 252.889 186.86 251.621 192.327 251.611Z" fill="#B0F0EE"/>
<path d="M248.131 298.143L245.677 298.331C245.226 291.944 241.077 287.04 236.426 287.4C231.775 287.757 228.361 293.246 228.812 299.63L226.358 299.819C225.808 292.022 230.241 285.299 236.243 284.838C242.247 284.377 247.578 290.346 248.131 298.143Z" fill="black"/>
<path d="M235.646 320.139L230.477 319.837C229.767 319.873 228.241 319.327 228.074 316.987L226.842 299.548L228.292 299.437L229.524 316.876C229.619 318.214 230.292 318.32 230.498 318.318L235.725 318.62L235.646 320.139Z" fill="#E0E0E0"/>
<path d="M237.79 321.032L234.189 321.31C233.895 321.331 233.639 321.102 233.616 320.793L233.44 318.299C233.419 317.992 233.639 317.724 233.935 317.7L237.536 317.422C237.83 317.4 238.086 317.63 238.109 317.939L238.285 320.433C238.306 320.74 238.086 321.008 237.79 321.032Z" fill="#3C2820"/>
<path d="M241.799 319.665L246.868 318.576C247.576 318.504 249.01 317.731 248.843 315.389L247.611 297.95L246.161 298.061L247.393 315.5C247.488 316.838 246.836 317.045 246.632 317.074L241.505 318.175L241.799 319.665Z" fill="#E0E0E0"/>
<path d="M239.803 320.877L243.404 320.6C243.697 320.578 243.919 320.31 243.899 320.001L243.723 317.507C243.702 317.2 243.445 316.968 243.149 316.99L239.548 317.267C239.254 317.289 239.032 317.557 239.053 317.866L239.229 320.361C239.25 320.667 239.507 320.899 239.803 320.877Z" fill="#3C2820"/>
<path d="M193.016 319.665C195.986 319.665 198.394 317.152 198.394 314.051C198.394 310.95 195.986 308.437 193.016 308.437C190.047 308.437 187.639 310.95 187.639 314.051C187.639 317.152 190.047 319.665 193.016 319.665Z" fill="black"/>
<path d="M193.017 317.763C194.98 317.763 196.572 316.101 196.572 314.051C196.572 312.001 194.98 310.34 193.017 310.34C191.053 310.34 189.462 312.001 189.462 314.051C189.462 316.101 191.053 317.763 193.017 317.763Z" fill="#3C2820"/>
<path d="M190.704 352.749L243.943 349.246L239.185 418.053L201.162 420.719L190.704 352.749Z" fill="#262673"/>
<path d="M230.107 402.749C230.107 402.749 224.869 390.294 225.669 388.951C226.469 387.608 232.085 375.037 236.849 373.878C241.613 372.719 247.113 380.809 247.113 380.809C247.113 380.809 246.857 392.163 242.909 399.344L230.107 402.749Z" fill="#D17975"/>
<path d="M199.088 348.562L208.573 347.635L209.239 367.378L201.308 368.177L199.088 348.562Z" fill="#EAAC3E"/>
<path d="M143.996 377.092C143.996 377.092 193.902 395.905 225.667 388.949L231.287 402.285C231.287 402.285 160.218 431.438 110.803 416.418L143.996 377.092Z" fill="#F7F9FF"/>
<path d="M208.832 279.458L223.611 283.809L216.804 271.18C216.804 271.18 214.722 278.026 208.832 279.458Z" fill="#7BB3B1"/>
<path d="M205.76 229.461C206.405 230.217 207.499 230.553 209.014 230.463C209.014 230.463 209.095 230.466 209.229 230.458C209.96 230.415 212.319 230.062 212.516 227.355L212.421 225.566C212.59 225.518 213.94 225.443 214.114 225.47L214.209 227.215C214.699 229.917 217.081 230 217.831 229.954C218.06 229.942 218.06 229.93 218.064 229.93C219.547 229.843 220.597 229.381 221.154 228.558C221.809 227.592 221.52 226.51 221.506 226.464L221.399 224.356L221.17 224.306C217.484 223.511 214.872 224.629 214.375 224.871C214.186 224.827 212.282 224.941 212.097 225.006C211.584 224.827 208.868 224.016 205.281 225.24L205.059 225.317L205.177 227.498C205.173 227.493 205.013 228.589 205.76 229.461ZM214.812 227.133L214.722 225.404C215.365 225.122 217.699 224.265 220.821 224.878L220.911 226.571C220.925 226.65 221.143 227.486 220.655 228.196C220.206 228.85 219.311 229.222 217.995 229.299C217.865 229.321 215.28 229.686 214.812 227.133ZM205.785 227.527L205.695 225.764C208.732 224.798 211.142 225.373 211.813 225.571L211.907 227.346C211.718 229.908 209.114 229.823 209.007 229.828C207.661 229.905 206.731 229.642 206.218 229.043C205.658 228.394 205.783 227.534 205.785 227.527Z" fill="#5D5B5E"/>
<path d="M127.242 494.571L125.718 508.245L183.43 521.014L184.899 506.292L127.242 494.571Z" fill="#8ACBC9"/>
<path d="M251.434 502.571L279.856 485.532L282.206 498.234L252.967 513.13L251.434 502.571Z" fill="#8ACBC9"/>
<path d="M556.853 626.692H309.201V650.137H556.853V626.692Z" fill="#9CC4F7"/>
<path d="M573.882 143.263H538.744V157.708H573.882V143.263Z" fill="#9CC4F7"/>
<path d="M573.882 155.015H538.744V157.708H573.882V155.015Z" fill="#8DB1DF"/>
<path d="M573.882 143.263H538.744V145.955H573.882V143.263Z" fill="#8DB1DF"/>
<path d="M544.72 143.263H538.744V157.708H544.72V143.263Z" fill="#6B8C96"/>
<path d="M559.3 143.263H553.323V157.708H559.3V143.263Z" fill="#6B8C96"/>
<path d="M573.88 143.263H567.904V157.708H573.88V143.263Z" fill="#6B8C96"/>
<path d="M575.855 147.448H573.88V154.095H575.855V147.448Z" fill="#6B8C96"/>
<path d="M800.626 186.503H677.231C672.549 186.503 668.756 190.466 668.756 195.351V363.555C668.756 367.489 673.206 369.578 676.026 366.97L707.771 337.58C710.935 334.651 715.02 333.033 719.25 333.033H800.629C805.31 333.033 809.103 329.071 809.103 324.186V195.351C809.103 190.466 805.308 186.503 800.626 186.503Z" fill="#8DB1DF"/>
<path d="M692.264 220.71V223.335H792.612V220.71H692.264ZM692.264 241.284H792.612V238.659H692.264V241.284ZM692.264 259.235H792.612V256.61H692.264V259.235ZM692.264 277.186H792.612V274.561H692.264V277.186ZM692.264 295.134H742.438V292.51H692.264V295.134Z" fill="white"/>
<path d="M8.47418 52.4501H131.872C136.554 52.4501 140.347 56.4127 140.347 61.2977V229.502C140.347 233.436 135.897 235.527 133.077 232.917L101.332 203.527C98.1676 200.598 94.0832 198.98 89.8531 198.98H8.47418C3.79303 198.98 0 195.018 0 190.133V61.2977C0 56.4103 3.79534 52.4501 8.47418 52.4501Z" fill="#8DB1DF"/>
<path d="M16.4902 86.6547V89.2795H116.839V86.6547H16.4902ZM116.839 104.606H16.4902V107.23H116.839V104.606ZM116.839 122.554H16.4902V125.179H116.839V122.554ZM116.839 140.505H16.4902V143.13H116.839V140.505ZM116.839 158.456H66.6645V161.081H116.839V158.456Z" fill="white"/>
<path d="M800.626 441.143H677.231C672.549 441.143 668.756 445.105 668.756 449.99V618.195C668.756 622.128 673.206 624.22 676.026 621.609L707.771 592.22C710.935 589.291 715.02 587.673 719.25 587.673H800.629C805.31 587.673 809.103 583.71 809.103 578.825V449.99C809.103 445.105 805.308 441.143 800.626 441.143Z" fill="#8DB1DF"/>
<path d="M692.264 475.35V477.975H792.612V475.35H692.264ZM692.264 495.923H792.612V493.298H692.264V495.923ZM692.264 513.874H792.612V511.249H692.264V513.874ZM692.264 531.825H792.612V529.2H692.264V531.825ZM692.264 549.774H742.438V547.149H692.264V549.774Z" fill="white"/>
<path d="M118.655 822.833C-241.632 988.634 306.698 985.602 747.226 959.964C864.988 953.112 850.003 913.73 792.61 897.112C755.695 886.422 684.59 895.243 670.621 876.084C666.316 870.18 665.294 862.656 678.042 859.097C685.032 857.146 694.202 856.948 702.778 856.982C783.838 857.317 840.914 766.637 622.727 766.756C562.841 766.787 503.769 749.203 445.139 739.575C401.436 732.399 358.256 723.691 311.183 721.608C296.379 720.951 280.002 721.151 268.532 724.882C254.1 729.578 193.627 724.563 151.004 721.76C126.088 720.12 215.414 778.305 118.655 822.833Z" fill="#7484BE"/>
<path d="M624.574 908.128H284.694C274.143 908.128 265.59 899.198 265.59 888.182V148.003C265.59 136.987 274.143 128.057 284.694 128.057H624.577C635.128 128.057 643.681 136.987 643.681 148.003V888.185C643.678 899.198 635.126 908.128 624.574 908.128Z" fill="#4D7292"/>
<path d="M612.786 897.237H253.267C248.14 897.237 243.984 892.898 243.984 887.545V126.862C243.984 121.509 248.14 117.169 253.267 117.169H612.786C617.913 117.169 622.07 121.509 622.07 126.862V887.545C622.072 892.898 617.913 897.237 612.786 897.237Z" fill="#6B8C96"/>
<path d="M580.678 870.49H283.618C278.386 870.49 274.144 866.062 274.144 860.6V146.381C274.144 140.919 278.386 136.49 283.618 136.49H580.678C585.91 136.49 590.152 140.919 590.152 146.381V860.6C590.15 866.064 585.91 870.49 580.678 870.49Z" fill="#B5D0F2"/>
<path d="M498.463 140.979H367.569C363.936 140.979 360.99 136.009 360.99 129.881C360.99 123.752 360.99 118.782 360.99 118.782H505.041C505.041 118.782 505.041 123.752 505.041 129.881C505.041 136.009 502.095 140.979 498.463 140.979Z" fill="#6B8C96"/>
<path d="M430.883 521.886C370.59 521.886 315.802 543.788 275.024 579.494V843.399C275.024 855.277 284.246 864.904 295.622 864.904H570.434C581.808 864.904 591.032 855.277 591.032 843.399V583.317C549.85 545.345 493.306 521.886 430.883 521.886Z" fill="#6899F3"/>
<path d="M556.853 710.947H309.201V734.391H556.853V710.947Z" fill="#9CC4F7"/>
<path d="M556.853 795.201H309.201V818.646H556.853V795.201Z" fill="#9CC4F7"/>
<path d="M593.219 504.069H332.06C323.548 504.069 316.647 496.866 316.647 487.977V324.208C316.647 315.322 323.546 308.117 332.06 308.117H593.219C601.73 308.117 608.631 315.32 608.631 324.208V487.977C608.631 496.866 601.73 504.069 593.219 504.069Z" fill="#7E9FE4"/>
<path d="M594.317 355.308H326.676V529.911H594.317V355.308Z" fill="white"/>
<path d="M594.602 530.208H326.391V355.011H594.602V530.208ZM326.96 529.614H594.033V355.605H326.96V529.614Z" fill="#61ABEB"/>
<path d="M316.985 356.278H325.872C325.974 356.278 326.057 356.122 326.057 355.93V354.372C326.057 354.179 325.974 354.023 325.872 354.023H316.985C316.883 354.023 316.8 354.179 316.8 354.372V355.93C316.8 356.122 316.883 356.278 316.985 356.278Z" fill="#353535"/>
<path d="M535.149 464.309H465.061C464.582 464.309 464.191 463.877 464.191 463.341V459.011C464.191 458.476 464.58 458.044 465.061 458.044H535.149C535.63 458.044 536.018 458.476 536.018 459.011V463.341C536.016 463.874 535.627 464.309 535.149 464.309Z" fill="#ADC6F2"/>
<path d="M455.844 401.177H385.757C385.276 401.177 384.887 400.745 384.887 400.209V395.879C384.887 395.344 385.276 394.911 385.757 394.911H455.844C456.325 394.911 456.714 395.344 456.714 395.879V400.209C456.712 400.742 456.323 401.177 455.844 401.177Z" fill="#ECEDEE"/>
<path d="M429.772 523.143H388.074C387.593 523.143 387.204 522.71 387.204 522.175V517.845C387.204 517.309 387.593 516.877 388.074 516.877H429.772C430.253 516.877 430.642 517.309 430.642 517.845V522.175C430.642 522.71 430.253 523.143 429.772 523.143Z" fill="#C08581"/>
<path d="M593.485 308.119H331.794C323.428 308.119 316.647 315.199 316.647 323.933V344.216H608.629V323.933C608.631 315.199 601.85 308.119 593.485 308.119Z" fill="#3F6DB0"/>
<path d="M375.17 327.536V334.546H373.372V316H377.589C379.23 316 380.502 316.483 381.404 317.449C382.307 318.414 382.758 319.777 382.758 321.536C382.758 323.295 382.257 324.735 381.254 325.856C380.252 326.976 378.898 327.537 377.193 327.537L375.17 327.536ZM375.17 317.966V325.571H377.054C378.295 325.571 379.242 325.228 379.895 324.542C380.548 323.857 380.875 322.889 380.875 321.639C380.875 319.191 379.676 317.966 377.278 317.966H375.17Z" fill="white"/>
<path d="M398.777 334.546H396.636L394.068 329.347C393.832 328.864 393.604 328.452 393.383 328.112C393.161 327.771 392.935 327.493 392.703 327.278C392.472 327.062 392.222 326.905 391.954 326.806C391.687 326.706 391.385 326.657 391.05 326.657H389.573V334.546H387.775V316H392.356C393.026 316 393.646 316.101 394.212 316.304C394.78 316.507 395.272 316.814 395.69 317.228C396.107 317.642 396.434 318.158 396.669 318.774C396.904 319.39 397.022 320.112 397.022 320.94C397.022 321.587 396.942 322.18 396.781 322.718C396.621 323.257 396.393 323.738 396.096 324.16C395.8 324.582 395.443 324.942 395.026 325.24C394.609 325.537 394.14 325.768 393.619 325.932V325.983C393.876 326.122 394.098 326.279 394.287 326.456C394.477 326.632 394.657 326.841 394.828 327.083C394.999 327.325 395.168 327.598 395.336 327.904C395.504 328.21 395.691 328.566 395.898 328.971L398.777 334.546ZM389.572 317.966V324.691H392.013C392.462 324.691 392.878 324.609 393.26 324.446C393.641 324.282 393.972 324.047 394.25 323.741C394.528 323.435 394.745 323.06 394.903 322.616C395.059 322.172 395.138 321.674 395.138 321.122C395.138 320.13 394.872 319.357 394.341 318.801C393.809 318.245 393.04 317.966 392.034 317.966H389.572Z" fill="white"/>
<path d="M411.145 334.546H403.011V316H410.803V317.966H404.809V324.135H410.353V326.087H404.809V332.579H411.145V334.546Z" fill="white"/>
<path d="M415.508 333.796V331.235C415.751 331.494 416.042 331.727 416.381 331.934C416.72 332.141 417.077 332.315 417.451 332.457C417.826 332.6 418.202 332.709 418.581 332.787C418.958 332.864 419.308 332.904 419.63 332.904C420.735 332.904 421.561 332.656 422.107 332.16C422.653 331.664 422.926 330.95 422.926 330.019C422.926 329.52 422.835 329.084 422.653 328.713C422.471 328.343 422.22 328.004 421.898 327.698C421.578 327.392 421.198 327.099 420.759 326.819C420.32 326.539 419.847 326.243 419.341 325.933C418.806 325.605 418.306 325.273 417.842 324.937C417.378 324.601 416.975 324.23 416.633 323.824C416.29 323.419 416.021 322.96 415.825 322.447C415.628 321.934 415.53 321.333 415.53 320.643C415.53 319.798 415.683 319.063 415.99 318.438C416.297 317.813 416.7 317.298 417.2 316.893C417.699 316.487 418.268 316.186 418.907 315.987C419.545 315.789 420.197 315.689 420.86 315.689C422.373 315.689 423.476 315.91 424.168 316.349V318.793C423.261 318.035 422.098 317.655 420.678 317.655C420.286 317.655 419.893 317.705 419.501 317.804C419.109 317.903 418.759 318.065 418.452 318.289C418.146 318.514 417.896 318.802 417.703 319.155C417.51 319.509 417.414 319.94 417.414 320.449C417.414 320.923 417.487 321.333 417.634 321.677C417.78 322.022 417.996 322.337 418.282 322.621C418.567 322.906 418.915 323.182 419.325 323.449C419.735 323.716 420.208 324.01 420.744 324.329C421.293 324.657 421.814 325.001 422.306 325.364C422.798 325.726 423.23 326.127 423.601 326.566C423.972 327.006 424.266 327.493 424.484 328.028C424.702 328.562 424.81 329.175 424.81 329.864C424.81 330.778 424.662 331.552 424.366 332.186C424.07 332.819 423.67 333.335 423.167 333.731C422.665 334.128 422.085 334.415 421.428 334.591C420.771 334.767 420.08 334.856 419.352 334.856C419.109 334.856 418.809 334.833 418.453 334.785C418.096 334.738 417.732 334.669 417.361 334.578C416.99 334.488 416.639 334.376 416.307 334.242C415.974 334.109 415.708 333.96 415.508 333.796Z" fill="white"/>
<path d="M440.442 333.77C439.308 334.494 437.895 334.856 436.204 334.856C434.021 334.856 432.273 334.007 430.96 332.309C429.647 330.61 428.991 328.381 428.991 325.622C428.991 322.656 429.729 320.26 431.206 318.432C432.683 316.604 434.556 315.69 436.825 315.69C438.28 315.69 439.486 315.945 440.443 316.453V318.768C439.344 318.027 438.131 317.656 436.804 317.656C435.041 317.656 433.613 318.367 432.518 319.79C431.422 321.212 430.875 323.113 430.875 325.493C430.875 327.752 431.387 329.552 432.41 330.893C433.434 332.233 434.778 332.904 436.44 332.904C437.981 332.904 439.315 332.49 440.443 331.662L440.442 333.77Z" fill="white"/>
<path d="M456.696 334.546H454.556L451.987 329.347C451.752 328.864 451.523 328.452 451.302 328.112C451.081 327.771 450.854 327.493 450.622 327.278C450.39 327.062 450.141 326.905 449.874 326.806C449.606 326.706 449.304 326.657 448.969 326.657H447.492V334.546H445.693V316H450.275C450.945 316 451.565 316.101 452.132 316.304C452.699 316.507 453.191 316.814 453.609 317.228C454.026 317.642 454.352 318.158 454.588 318.774C454.823 319.39 454.941 320.112 454.941 320.94C454.941 321.587 454.861 322.18 454.7 322.718C454.54 323.257 454.311 323.738 454.015 324.16C453.719 324.582 453.363 324.942 452.945 325.24C452.528 325.537 452.058 325.768 451.538 325.932V325.983C451.795 326.122 452.018 326.279 452.207 326.456C452.396 326.632 452.576 326.841 452.747 327.083C452.918 327.325 453.088 327.598 453.255 327.904C453.423 328.21 453.61 328.566 453.817 328.971L456.696 334.546ZM447.492 317.966V324.691H449.932C450.382 324.691 450.797 324.609 451.179 324.446C451.56 324.282 451.891 324.047 452.169 323.741C452.447 323.435 452.664 323.06 452.822 322.616C452.978 322.172 453.057 321.674 453.057 321.122C453.057 320.13 452.791 319.357 452.26 318.801C451.728 318.245 450.959 317.966 449.953 317.966H447.492Z" fill="white"/>
<path d="M464.227 316V317.863H462.729V332.684H464.227V334.546H459.433V332.684H460.931V317.863H459.433V316H464.227Z" fill="white"/>
<path d="M470.688 327.536V334.546H468.89V316H473.107C474.748 316 476.02 316.483 476.922 317.449C477.825 318.414 478.277 319.777 478.277 321.536C478.277 323.295 477.775 324.735 476.773 325.856C475.77 326.976 474.416 327.537 472.711 327.537L470.688 327.536ZM470.688 317.966V325.571H472.572C473.813 325.571 474.761 325.228 475.414 324.542C476.066 323.857 476.393 322.889 476.393 321.639C476.393 319.191 475.194 317.966 472.797 317.966H470.688Z" fill="white"/>
<path d="M492.368 317.966H487.937V334.546H486.139V317.966H481.719V316H492.368V317.966Z" fill="white"/>
<path d="M500.199 316V317.863H498.7V332.684H500.199V334.546H495.405V332.684H496.903V317.863H495.405V316H500.199Z" fill="white"/>
<path d="M511.048 334.856C508.872 334.856 507.129 333.99 505.82 332.257C504.51 330.524 503.855 328.269 503.855 325.493C503.855 322.51 504.523 320.13 505.857 318.354C507.191 316.578 509.007 315.689 511.305 315.689C513.424 315.689 515.131 316.552 516.426 318.276C517.721 320.001 518.369 322.256 518.369 325.04C518.369 328.066 517.705 330.459 516.378 332.218C515.051 333.977 513.274 334.856 511.048 334.856ZM511.177 317.656C509.564 317.656 508.254 318.359 507.248 319.764C506.243 321.169 505.74 323.014 505.74 325.299C505.74 327.584 506.23 329.423 507.211 330.815C508.192 332.208 509.471 332.904 511.048 332.904C512.732 332.904 514.059 332.24 515.029 330.912C516 329.584 516.485 327.726 516.485 325.338C516.485 322.89 516.014 320.997 515.072 319.661C514.13 318.324 512.831 317.656 511.177 317.656Z" fill="white"/>
<path d="M535.886 334.546H533.681L525.782 319.764C525.582 319.393 525.419 319.005 525.29 318.6H525.226C525.283 318.997 525.312 319.846 525.312 321.148V334.546H523.513V316H525.847L533.531 330.55C533.852 331.154 534.059 331.568 534.152 331.791H534.195C534.123 331.257 534.088 330.347 534.088 329.063V316H535.886V334.546Z" fill="white"/>
<path d="M366.254 326.964H370.203C370.249 326.964 370.286 326.808 370.286 326.616V325.057C370.286 324.865 370.249 324.709 370.203 324.709H366.254C366.208 324.709 366.171 324.865 366.171 325.057V326.616C366.171 326.808 366.208 326.964 366.254 326.964Z" fill="white"/>
<path d="M592.384 332.822H549.328C548.262 332.822 547.397 331.919 547.397 330.805V321.772C547.397 320.659 548.262 319.756 549.328 319.756H592.384C593.45 319.756 594.315 320.659 594.315 321.772V330.805C594.317 331.919 593.452 332.822 592.384 332.822Z" fill="#80B3EE"/>
<path d="M430.292 369.513L424.152 364.867L430.255 359.449L430.993 360.354L425.99 364.793L430.956 368.552L430.292 369.513Z" fill="#80B3EE"/>
<path d="M490.703 369.513L490.034 368.552L495.002 364.793L490 360.354L490.738 359.449L496.841 364.867L490.703 369.513Z" fill="#80B3EE"/>
<path d="M260.458 468.685C260.458 468.685 271.962 470.044 275.32 462.991C278.676 455.935 272.95 446.564 272.95 446.564L260.211 449.652C260.211 449.652 255.782 465.089 260.458 468.685Z" fill="#D17975"/>
<path d="M251.894 426.249C263.312 432.546 296.64 632.98 302.794 664.514C308.947 696.05 342.508 874.749 342.508 874.749L297.202 878.253C297.202 878.253 246.301 723.496 234.555 698.97C222.808 674.443 163.426 491.497 169.347 449.821C169.347 449.821 222.248 409.899 251.894 426.249Z" fill="#262673"/>
<path d="M219.825 438.709C219.825 438.709 218.754 654.111 210.152 684.23C201.551 714.349 181.131 882.739 181.131 882.739H132.941L118.865 426.797C118.865 426.797 214.914 404.627 219.825 438.709Z" fill="#2D2D85"/>
<path d="M181.013 276.396C177.567 269.852 179.632 261.582 185.662 257.566C192.966 252.703 197.397 252.089 214.022 252.089C256.945 252.089 261.31 283.123 266.301 312.139C273.47 353.822 287.854 453.146 283.714 468.791L260.211 449.652C234.483 449.652 211.82 334.893 181.013 276.396Z" fill="#F7F9FF"/>
<path d="M274.275 492.504C274.275 492.504 285.851 492.187 288.238 484.716C290.627 477.245 283.712 468.791 283.712 468.791L271.502 473.691C271.502 473.691 269.169 489.62 274.275 492.504Z" fill="#D17975"/>
<path d="M210.154 251.573C210.154 251.573 247.671 278.581 253.432 301.635C259.193 324.688 260.782 426.43 260.782 426.43C260.782 426.43 182.25 483.214 115.433 425.384C115.433 425.384 114.845 424.358 116.474 415.776C118.812 403.454 122.015 329.974 123.01 314.428C123.139 312.407 117.554 311.996 118.481 310.217C125.038 297.621 144.431 246.572 210.154 251.573Z" fill="#8ACBC9"/>
<path d="M183.069 252.891L180.474 283.411L201.597 297.221L212.266 343.808L196.338 615.85L106.772 584.686L115.431 425.384L123.294 300.799C123.294 300.799 139.461 257.09 183.069 252.891Z" fill="#F7F9FF"/>
<path d="M253.212 336.228C253.191 335.895 253.178 335.593 253.164 335.296L251.034 295.108C256.459 303.89 256.961 329.667 257.174 333.12C258.414 350.397 259.27 371.075 259.834 388.577C259.827 388.526 254.038 349.246 253.219 336.295L253.217 336.298L253.212 336.228Z" fill="#383BA4"/>
<path d="M219.547 214.649C219.547 214.649 218.402 222.116 219.547 224.803C220.692 227.491 218.585 242.841 215.886 245.821C214.503 247.345 208.311 246.929 202.876 240.955C197.441 234.981 197.806 222.415 197.806 222.415C197.806 222.415 196.661 208.975 219.547 214.649Z" fill="#D17975"/>
<path d="M217.863 262.579C217.683 255.371 212.414 216.868 212.414 216.868C212.414 216.868 204.447 220.227 199.557 224.525C199.402 223.378 198.977 221.896 198.103 219.925C198.103 219.925 196.065 216.108 194.247 216.868C192.432 217.627 190.614 220.662 194.247 224.076L196.518 228.106C196.197 228.705 195.977 229.309 195.882 229.913C195.882 229.913 191.159 260.872 189.705 263.716C189.705 263.716 201.796 280.786 208.829 279.458C215.865 278.13 218.046 269.785 217.863 262.579Z" fill="#D17975"/>
<path d="M217.431 257.025C217.128 253.987 216.69 250.17 216.198 246.099C216.001 245.92 215.883 245.821 215.883 245.821C215.883 245.821 208.017 251.669 202.874 240.955C202.874 240.955 207.335 258.269 217.431 257.025Z" fill="#AB6360"/>
<path d="M172.994 319.081L151.684 373.562C151.684 373.562 156.011 379.058 186.228 387.055L135.309 382.224L172.994 319.081Z" fill="#DDE2EE"/>
<path d="M143.978 272.53C148.987 267.198 164.608 270.688 169.238 276.377C174.847 283.268 179.949 294.622 175.485 311.342C169.363 334.277 143.996 377.092 143.996 377.092C143.996 377.092 165.54 426.27 110.805 416.418C102.731 414.965 96.9025 407.544 96.9372 398.989C97.0459 372.132 106.304 312.626 143.978 272.53Z" fill="#F7F9FF"/>
<path d="M328.95 875.884C328.95 875.884 355.679 897.785 365.088 899.471C366.725 899.763 368.12 901.424 368.24 903.523C368.358 905.604 367.426 907.956 363.228 909.031C357.046 910.612 329.558 907.876 315.485 906.324C310.69 905.795 307.045 901.666 306.925 896.634C306.86 893.927 306.786 890.817 306.703 887.646C306.59 883.227 308.123 877.441 308.123 877.441L328.95 875.884Z" fill="#422E2D"/>
<path d="M146.598 882.739C146.598 882.739 123.919 909.859 115.063 912.909C113.52 913.44 112.398 915.287 112.565 917.381C112.731 919.46 113.948 921.65 118.143 922.099C124.307 922.756 150.349 916.05 163.757 912.44C168.383 911.194 171.394 906.604 170.834 901.649C170.529 898.94 170.18 895.817 169.828 892.63C169.342 888.238 167.083 882.737 167.083 882.737L146.598 882.739Z" fill="#422E2D"/>
<path d="M219.066 219.71C216.313 213.253 204.305 217.61 203.868 217.854C202.744 218.484 202.002 219.793 202.013 221.125C202.02 221.93 202.279 222.707 202.337 223.509C202.43 224.75 202.016 226.023 201.222 226.952C201.296 225.499 198.648 219.884 197.004 224.528C196.569 225.759 197.73 227.051 197.853 228.358C198.077 230.724 196.863 232.972 195.505 234.885C194.011 233.426 193.428 231.205 193.294 229.072C193.037 225.011 191.721 227.826 191.226 223.789C190.586 218.578 190.151 209.919 197.795 206.072C226.557 191.589 219.066 219.71 219.066 219.71Z" fill="#422E2D"/>
<path d="M210.321 630.249L210.319 630.247C210.328 630.227 210.335 630.208 210.344 630.189C210.753 629.201 211.158 628.276 211.568 627.378C211.63 627.24 211.692 627.093 211.755 626.958C212.148 626.101 212.532 625.304 212.911 624.533C212.988 624.376 213.064 624.217 213.14 624.065C213.494 623.36 213.832 622.71 214.163 622.087C214.267 621.892 214.368 621.699 214.47 621.51C214.759 620.977 215.03 620.491 215.294 620.03C215.435 619.784 215.564 619.557 215.696 619.332C215.791 619.17 215.904 618.965 215.994 618.813V618.83C217.121 616.932 217.875 615.85 217.875 615.85L242.363 718.328H242.36C239.062 709.524 236.347 702.715 234.552 698.97C231.095 691.75 223.506 670.783 214.674 643.752C213.464 663.039 211.979 677.829 210.15 684.228C207.097 694.922 202.55 723.076 197.959 754.914L197.957 754.916C197.957 754.916 208.415 634.856 210.321 630.249Z" fill="#262673"/>
<path d="M209.218 395.869C181.716 393.493 141.883 382.221 141.883 382.221L116.236 412.606L115.56 423.298C147.003 430.151 185.001 421.627 208.117 414.656L209.218 395.869Z" fill="#DDE2EE"/>
<path d="M216.804 251.23L217.606 258.868L235.248 277.461L228.056 291.809L226.416 341.842L255.432 612.527L307.936 592.012L261.622 377.092L254.251 271.04C254.251 271.04 247.032 248.936 216.804 251.23Z" fill="#F7F9FF"/>
<path d="M256.829 308.135L264.196 377.092L267.343 405.185L259.834 372.949L256.829 308.135Z" fill="#DDE2EE"/>
<path d="M193.495 308.577L190.736 309.038L183.761 273.479C183.141 269.432 183.194 265.457 183.918 261.678C185.19 255.069 187.554 251.614 189.693 249.568C191.178 248.151 193.014 247.649 193.014 247.649L192.325 251.614C191.349 252.251 188.051 255.016 186.659 262.253C185.995 265.691 185.951 269.316 186.518 273.02L193.495 308.577Z" fill="black"/>
<path d="M183.069 252.891L205.427 287.596L212.266 343.808L201.597 297.221L180.474 283.411L183.069 252.891Z" fill="#C1F3F2"/>
<path d="M234.795 286.557C231.03 254.41 217.137 252.299 216.982 252.29L216.633 249.296C217.354 249.337 233.368 251.394 237.409 285.9L234.795 286.557Z" fill="#272425"/>
<path d="M216.804 271.183L223.61 283.812L226.414 341.845L228.053 291.812L235.246 277.463L217.604 258.87C217.606 258.865 217.597 264.781 216.804 271.183Z" fill="#C1F3F2"/>
<path d="M192.327 251.611C192.327 251.611 191.286 263.216 189.841 263.398L183.071 252.889C183.071 252.889 186.86 251.621 192.327 251.611Z" fill="#B0F0EE"/>
<path d="M248.131 298.143L245.677 298.331C245.226 291.944 241.077 287.04 236.426 287.4C231.775 287.757 228.361 293.246 228.812 299.63L226.358 299.819C225.808 292.022 230.241 285.299 236.243 284.838C242.247 284.377 247.578 290.346 248.131 298.143Z" fill="black"/>
<path d="M235.646 320.139L230.477 319.837C229.767 319.873 228.241 319.327 228.074 316.987L226.842 299.548L228.292 299.437L229.524 316.876C229.619 318.214 230.292 318.32 230.498 318.318L235.725 318.62L235.646 320.139Z" fill="#E0E0E0"/>
<path d="M237.79 321.032L234.189 321.31C233.895 321.331 233.639 321.102 233.616 320.793L233.44 318.299C233.419 317.992 233.639 317.724 233.935 317.7L237.536 317.422C237.83 317.4 238.086 317.63 238.109 317.939L238.285 320.433C238.306 320.74 238.086 321.008 237.79 321.032Z" fill="#3C2820"/>
<path d="M241.799 319.665L246.868 318.576C247.576 318.504 249.01 317.731 248.843 315.389L247.611 297.95L246.161 298.061L247.393 315.5C247.488 316.838 246.836 317.045 246.632 317.074L241.505 318.175L241.799 319.665Z" fill="#E0E0E0"/>
<path d="M239.803 320.877L243.404 320.6C243.697 320.578 243.919 320.31 243.899 320.001L243.723 317.507C243.702 317.2 243.445 316.968 243.149 316.99L239.548 317.267C239.254 317.289 239.032 317.557 239.053 317.866L239.229 320.361C239.25 320.667 239.507 320.899 239.803 320.877Z" fill="#3C2820"/>
<path d="M193.016 319.665C195.986 319.665 198.394 317.152 198.394 314.051C198.394 310.95 195.986 308.437 193.016 308.437C190.047 308.437 187.639 310.95 187.639 314.051C187.639 317.152 190.047 319.665 193.016 319.665Z" fill="black"/>
<path d="M193.017 317.763C194.98 317.763 196.572 316.101 196.572 314.051C196.572 312.001 194.98 310.34 193.017 310.34C191.053 310.34 189.462 312.001 189.462 314.051C189.462 316.101 191.053 317.763 193.017 317.763Z" fill="#3C2820"/>
<path d="M190.704 352.749L243.943 349.246L239.185 418.053L201.162 420.719L190.704 352.749Z" fill="#BC2638"/>
<path d="M230.107 402.749C230.107 402.749 224.869 390.294 225.669 388.951C226.469 387.608 232.085 375.037 236.849 373.878C241.613 372.719 247.113 380.809 247.113 380.809C247.113 380.809 246.857 392.163 242.909 399.344L230.107 402.749Z" fill="#D17580"/>
<path d="M199.088 348.562L208.573 347.635L209.239 367.378L201.308 368.177L199.088 348.562Z" fill="#EAAC3E"/>
<path d="M143.996 377.092C143.996 377.092 193.902 395.905 225.667 388.949L231.287 402.285C231.287 402.285 160.218 431.438 110.803 416.418L143.996 377.092Z" fill="#F7F9FF"/>
<path d="M208.832 279.458L223.611 283.809L216.804 271.18C216.804 271.18 214.722 278.026 208.832 279.458Z" fill="#7BB3B1"/>
<path d="M205.76 229.461C206.405 230.217 207.499 230.553 209.014 230.463C209.014 230.463 209.095 230.466 209.229 230.458C209.96 230.415 212.319 230.062 212.516 227.355L212.421 225.566C212.59 225.518 213.94 225.443 214.114 225.47L214.209 227.215C214.699 229.917 217.081 230 217.831 229.954C218.06 229.942 218.06 229.93 218.064 229.93C219.547 229.843 220.597 229.381 221.154 228.558C221.809 227.592 221.52 226.51 221.506 226.464L221.399 224.356L221.17 224.306C217.484 223.511 214.872 224.629 214.375 224.871C214.186 224.827 212.282 224.941 212.097 225.006C211.584 224.827 208.868 224.016 205.281 225.24L205.059 225.317L205.177 227.498C205.173 227.493 205.013 228.589 205.76 229.461ZM214.812 227.133L214.722 225.404C215.365 225.122 217.699 224.265 220.821 224.878L220.911 226.571C220.925 226.65 221.143 227.486 220.655 228.196C220.206 228.85 219.311 229.222 217.995 229.299C217.865 229.321 215.28 229.686 214.812 227.133ZM205.785 227.527L205.695 225.764C208.732 224.798 211.142 225.373 211.813 225.571L211.907 227.346C211.718 229.908 209.114 229.823 209.007 229.828C207.661 229.905 206.731 229.642 206.218 229.043C205.658 228.394 205.783 227.534 205.785 227.527Z" fill="#5D5B5E"/>
<path d="M127.242 494.571L125.718 508.245L183.43 521.014L184.899 506.292L127.242 494.571Z" fill="#8ACBC9"/>
<path d="M251.434 502.571L279.856 485.532L282.206 498.234L252.967 513.13L251.434 502.571Z" fill="#8ACBC9"/>
<path d="M361.963 334.235H353.829V315.689H361.62V317.655H355.627V323.824H361.171V325.777H355.627V332.269H361.963V334.235Z" fill="white"/>
<path d="M556.853 626.692H309.201V650.137H556.853V626.692Z" fill="#9CC4F7"/>
<path d="M573.882 143.263H538.744V157.708H573.882V143.263Z" fill="#9CC4F7"/>
<path d="M573.882 155.015H538.744V157.708H573.882V155.015Z" fill="#8DB1DF"/>
<path d="M573.882 143.263H538.744V145.955H573.882V143.263Z" fill="#8DB1DF"/>
<path d="M544.72 143.263H538.744V157.708H544.72V143.263Z" fill="#6B8C96"/>
<path d="M559.3 143.263H553.323V157.708H559.3V143.263Z" fill="#6B8C96"/>
<path d="M573.88 143.263H567.904V157.708H573.88V143.263Z" fill="#6B8C96"/>
<path d="M575.855 147.448H573.88V154.095H575.855V147.448Z" fill="#6B8C96"/>
<path d="M800.626 186.503H677.231C672.549 186.503 668.756 190.466 668.756 195.351V363.555C668.756 367.489 673.206 369.578 676.026 366.97L707.771 337.58C710.935 334.651 715.02 333.033 719.25 333.033H800.629C805.31 333.033 809.103 329.071 809.103 324.186V195.351C809.103 190.466 805.308 186.503 800.626 186.503Z" fill="#3F6DB0"/>
<path d="M692.264 220.71V223.335H792.612V220.71H692.264ZM692.264 241.284H792.612V238.659H692.264V241.284ZM692.264 259.235H792.612V256.61H692.264V259.235ZM692.264 277.186H792.612V274.561H692.264V277.186ZM692.264 295.134H742.438V292.51H692.264V295.134Z" fill="white"/>
<path d="M8.47418 52.4501H131.872C136.554 52.4501 140.347 56.4127 140.347 61.2977V229.502C140.347 233.436 135.897 235.527 133.077 232.917L101.332 203.527C98.1676 200.598 94.0832 198.98 89.8531 198.98H8.47418C3.79303 198.98 0 195.018 0 190.133V61.2977C0 56.4103 3.79534 52.4501 8.47418 52.4501Z" fill="#3F6DB0"/>
<path d="M16.4902 86.6547V89.2795H116.839V86.6547H16.4902ZM116.839 104.606H16.4902V107.23H116.839V104.606ZM116.839 122.554H16.4902V125.179H116.839V122.554ZM116.839 140.505H16.4902V143.13H116.839V140.505ZM116.839 158.456H66.6645V161.081H116.839V158.456Z" fill="white"/>
<path d="M800.626 441.143H677.231C672.549 441.143 668.756 445.105 668.756 449.99V618.195C668.756 622.128 673.206 624.22 676.026 621.609L707.771 592.22C710.935 589.291 715.02 587.673 719.25 587.673H800.629C805.31 587.673 809.103 583.71 809.103 578.825V449.99C809.103 445.105 805.308 441.143 800.626 441.143Z" fill="#3F6DB0"/>
<path d="M692.264 475.35V477.975H792.612V475.35H692.264ZM692.264 495.923H792.612V493.298H692.264V495.923ZM692.264 513.874H792.612V511.249H692.264V513.874ZM692.264 531.825H792.612V529.2H692.264V531.825ZM692.264 549.774H742.438V547.149H692.264V549.774Z" fill="white"/>
<path d="M666.481 119.913C651.084 119.913 638.56 106.837 638.56 90.762C638.56 74.6872 651.084 61.6115 666.481 61.6115C681.87 61.6115 694.394 74.6872 694.394 90.762C694.394 106.837 681.87 119.913 666.481 119.913ZM666.481 64.9414C652.842 64.9414 641.75 76.5224 641.75 90.762C641.75 105.002 652.842 116.583 666.481 116.583C680.115 116.583 691.207 105.002 691.207 90.762C691.207 76.5224 680.112 64.9414 666.481 64.9414Z" fill="#4D7292"/>
<path d="M812.429 859.462C812.429 867.845 805.918 874.643 797.888 874.643C789.858 874.643 783.348 867.845 783.348 859.462C783.348 851.078 789.858 844.28 797.888 844.28C805.918 844.278 812.429 851.075 812.429 859.462Z" fill="#AAC6EF"/>
<path d="M94.9228 277.205C103.432 277.205 110.331 270.003 110.331 261.118C110.331 252.234 103.432 245.031 94.9228 245.031C86.4132 245.031 79.5148 252.234 79.5148 261.118C79.5148 270.003 86.4132 277.205 94.9228 277.205Z" fill="#AAC6EF"/>
<path d="M699.975 712.19C684.578 712.19 672.054 699.114 672.054 683.04C672.054 666.972 684.578 653.896 699.975 653.896C715.371 653.896 727.895 666.972 727.895 683.04C727.895 699.112 715.369 712.19 699.975 712.19ZM699.975 657.224C686.336 657.224 675.244 668.805 675.244 683.04C675.244 697.279 686.336 708.86 699.975 708.86C713.613 708.86 724.706 697.279 724.706 683.04C724.706 668.805 713.613 657.224 699.975 657.224Z" fill="#4D7292"/>
<path d="M708.949 724.428C700.815 724.428 694.195 717.517 694.195 709.017C694.195 700.525 700.817 693.614 708.949 693.614C717.09 693.614 723.709 700.525 723.709 709.017C723.709 717.515 717.09 724.428 708.949 724.428ZM708.949 696.941C702.572 696.941 697.382 702.357 697.382 709.017C697.382 715.682 702.57 721.098 708.949 721.098C715.332 721.098 720.52 715.682 720.52 709.017C720.52 702.357 715.332 696.941 708.949 696.941Z" fill="#4D7292"/>
<path d="M588.684 855.448C588.684 855.448 556.855 638.872 584.234 608.309C593.067 598.45 626.224 580.556 626.224 647.949C626.224 715.341 588.684 855.448 588.684 855.448Z" fill="#C1F3F2"/>
<path d="M587.859 855.448C587.859 855.448 676.065 728.772 668.268 699.991C665.754 690.706 650.309 667.994 629.154 710.802C607.999 753.61 587.859 855.448 587.859 855.448Z" fill="#262673"/>
<path d="M587.859 855.448C587.859 855.448 635.584 772.787 658.335 778.035C665.673 779.727 687.599 791.89 667.771 812.355C647.946 832.822 587.859 855.448 587.859 855.448Z" fill="#9CC4F7"/>
<path d="M621.078 625.685C621.078 632.715 615.62 638.413 608.885 638.413C602.152 638.413 596.694 632.715 596.694 625.685C596.694 618.656 602.152 612.955 608.885 612.955C615.62 612.955 621.078 618.654 621.078 625.685Z" fill="white"/>
<path d="M658.559 710.881C658.559 716.882 653.901 721.745 648.154 721.745C642.406 721.745 637.748 716.882 637.748 710.881C637.748 704.881 642.406 700.018 648.154 700.018C653.899 700.018 658.559 704.881 658.559 710.881Z" fill="#6899F3"/>
<path d="M668.965 799.038C668.965 805.038 664.307 809.904 658.559 809.904C652.812 809.904 648.154 805.041 648.154 799.038C648.154 793.037 652.812 788.174 658.559 788.174C664.307 788.172 668.965 793.037 668.965 799.038Z" fill="white"/>
<path d="M601.615 663.5C606.726 663.5 610.869 659.174 610.869 653.838C610.869 648.503 606.726 644.177 601.615 644.177C596.505 644.177 592.362 648.503 592.362 653.838C592.362 659.174 596.505 663.5 601.615 663.5Z" fill="white"/>
<path d="M643.679 729.562C643.679 733.21 640.845 736.168 637.351 736.168C633.856 736.168 631.023 733.21 631.023 729.562C631.023 725.913 633.856 722.955 637.351 722.955C640.845 722.953 643.679 725.911 643.679 729.562Z" fill="#9CC4F7"/>
<path d="M625.109 761.011C625.481 763.044 624.202 765.007 622.255 765.394C620.307 765.78 618.427 764.447 618.057 762.414C617.687 760.381 618.964 758.418 620.911 758.031C622.859 757.645 624.736 758.978 625.109 761.011Z" fill="#9CC4F7"/>
<path d="M617.987 779.035C618.36 781.068 617.081 783.031 615.133 783.417C613.186 783.806 611.306 782.471 610.936 780.437C610.566 778.404 611.842 776.441 613.79 776.055C615.735 775.666 617.615 777.001 617.987 779.035Z" fill="#9CC4F7"/>
<path d="M612.957 787.867C613.119 788.751 612.564 789.604 611.718 789.773C610.871 789.942 610.055 789.362 609.893 788.478C609.731 787.595 610.286 786.742 611.133 786.573C611.981 786.404 612.798 786.984 612.957 787.867Z" fill="#9CC4F7"/>
<path d="M595.047 720.188C597.603 720.188 599.675 718.024 599.675 715.356C599.675 712.687 597.603 710.524 595.047 710.524C592.491 710.524 590.419 712.687 590.419 715.356C590.419 718.024 592.491 720.188 595.047 720.188Z" fill="white"/>
<path d="M595.047 734.393C597.603 734.393 599.675 732.23 599.675 729.562C599.675 726.893 597.603 724.73 595.047 724.73C592.491 724.73 590.419 726.893 590.419 729.562C590.419 732.23 592.491 734.393 595.047 734.393Z" fill="white"/>
<path d="M595.047 771.549C595.047 773.657 593.41 775.367 591.39 775.367C589.371 775.367 587.734 773.657 587.734 771.549C587.734 769.441 589.371 767.731 591.39 767.731C593.41 767.734 595.047 769.441 595.047 771.549Z" fill="white"/>
<path d="M645.58 820.138C649.075 820.138 651.908 817.18 651.908 813.531C651.908 809.882 649.075 806.924 645.58 806.924C642.085 806.924 639.252 809.882 639.252 813.531C639.252 817.18 642.085 820.138 645.58 820.138Z" fill="#C1F3F2"/>
<path d="M632.737 827.457C635.192 827.457 637.182 825.379 637.182 822.816C637.182 820.253 635.192 818.175 632.737 818.175C630.282 818.175 628.292 820.253 628.292 822.816C628.292 825.379 630.282 827.457 632.737 827.457Z" fill="#C1F3F2"/>
<path d="M586.968 856.827C557.584 836.208 535.917 806.219 525.97 772.387C515.632 737.175 518.627 698.916 534.203 667.419C541.852 651.943 552.433 638.145 562.665 624.801C566.444 619.873 570.226 614.945 573.868 609.924C582.5 598.051 590.509 585.437 597.66 572.438C601.483 565.494 605.677 557.358 606.976 548.673C608.341 539.497 606.061 530.876 600.88 525.595L603.109 523.214C609.026 529.234 611.648 538.944 610.129 549.18C608.746 558.44 604.393 566.899 600.426 574.104C593.208 587.219 585.125 599.952 576.41 611.943C572.749 616.983 568.949 621.938 565.149 626.885C555.017 640.099 544.535 653.766 537.03 668.943C521.839 699.679 518.918 737.03 529.02 771.414C538.755 804.517 559.961 833.878 588.747 854.072L586.968 856.827Z" fill="#C1F3F2"/>
<path d="M587.859 855.448C582.932 842.723 590.368 828.3 593.833 823.253C603.965 808.487 620.153 797.439 644.766 788.471C654.549 784.907 664.677 781.898 674.467 778.991C688.605 774.784 703.227 770.44 716.93 764.372C733.31 757.109 744.122 748.903 750.947 738.544C760.575 723.921 761.267 706.233 760.152 693.969C759.13 682.733 755.126 661.93 739.762 648.888L741.779 646.3C753.831 656.541 761.484 673.357 763.328 693.657C764.493 706.467 763.744 724.978 753.574 740.43C746.386 751.335 735.139 759.917 718.174 767.441C704.286 773.587 689.574 777.962 675.339 782.188C665.593 785.081 655.509 788.08 645.811 791.617C621.852 800.344 606.158 811.008 596.423 825.189C593.271 829.787 587.248 838.033 591.575 849.223L587.859 855.448Z" fill="#6B8C96"/>
<path d="M94.9252 766.413C86.717 766.413 80.0399 759.441 80.0399 750.879C80.0399 742.309 86.717 735.338 94.9252 735.338C103.129 735.338 109.804 742.309 109.804 750.879C109.804 759.444 103.126 766.413 94.9252 766.413ZM94.9252 738.668C88.4725 738.668 83.2293 744.142 83.2293 750.879C83.2293 757.609 88.4725 763.085 94.9252 763.085C101.371 763.085 106.614 757.611 106.614 750.879C106.614 744.142 101.371 738.668 94.9252 738.668Z" fill="#4D7292"/>
<path d="M64.058 690.366H60.8687V722.67H64.058V690.366Z" fill="#4D7292"/>
<path d="M77.9329 704.854H46.9989V708.184H77.9329V704.854Z" fill="#4D7294" fill-opacity="0.843137"/>
<path d="M572.485 42.6826H569.296V74.9794H572.485V42.6826Z" fill="#4D7292"/>
<path d="M586.36 57.1709H555.426V60.5008H586.36V57.1709Z" fill="#4D7292"/>
<path d="M828.124 797.379H824.934V829.683H828.124V797.379Z" fill="#4D7292"/>
<path d="M841.991 811.865H811.057V815.195H841.991V811.865Z" fill="#4D7292"/>
<path d="M143.323 0H140.134V32.2969H143.323V0Z" fill="#4D7292"/>
<path d="M157.191 14.4811H126.257V17.811H157.191V14.4811Z" fill="#4D7292"/>
<path d="M596.362 850.321C598.049 840.388 591.704 830.907 582.19 829.146C572.676 827.384 563.595 834.009 561.908 843.942C560.221 853.876 566.566 863.356 576.08 865.118C585.595 866.879 594.675 860.255 596.362 850.321Z" fill="#6B8C96"/>
<path d="M584.038 824.834C587.562 824.834 590.419 821.852 590.419 818.172C590.419 814.493 587.562 811.51 584.038 811.51C580.514 811.51 577.657 814.493 577.657 818.172C577.657 821.852 580.514 824.834 584.038 824.834Z" fill="#262673"/>
</g>
<defs>
<clipPath id="clip0_115_706">
<rect width="900" height="973" fill="white"/>
</clipPath>
</defs>
</svg>
