<svg width="895" height="918" viewBox="0 0 895 918" fill="none" xmlns="http://www.w3.org/2000/svg">
<g clip-path="url(#clip0_109_236)">
<path d="M595.685 594.181C617.047 544.967 654.477 491.108 696.837 457.002C739.196 422.897 789.813 399.225 842.309 388.969C876.812 382.229 911.791 381.216 946.572 380.223C949.214 380.147 952.11 380.157 954.023 381.835C956.581 384.08 956.203 388.18 955.469 391.643C949.831 418.219 934.742 442.533 917.352 464.227C852.951 544.578 751.872 595.655 651.405 598.615C637.323 599.032 609.029 597.792 595.685 594.181Z" fill="#383BA4"/>
<path d="M875.275 459.229C854.874 459.584 834.286 461.357 813.966 464.936C827.333 456.264 840.693 447.582 854.064 438.916C855.56 437.946 854.163 435.763 852.671 436.731C827.205 453.235 801.795 469.827 776.243 486.193C792.121 464.725 807.734 443.036 824.641 422.315C825.759 420.943 823.827 419.217 822.703 420.594C804.333 443.111 787.5 466.783 770.181 490.058C765.217 493.227 760.26 496.405 755.283 499.55C743.772 506.826 732.203 514.003 720.596 521.121C720.176 521.194 719.864 521.409 719.661 521.694C704.962 530.699 690.176 539.556 675.259 548.174C691.893 522.463 710.757 497.839 732.23 475.775C733.473 474.499 731.531 472.783 730.292 474.055C707.558 497.413 687.722 523.633 670.358 550.967C664.798 554.154 659.25 557.362 653.653 560.477C634.832 570.957 615.78 581.011 596.423 590.386C594.845 591.15 595.591 593.658 597.185 592.887C611.066 586.165 624.757 579.032 638.356 571.716C665.698 567.979 693.093 564.59 720.513 563.997C728.558 563.823 736.59 563.878 744.604 564.131C746.322 564.186 746.226 561.533 744.52 561.48C717.156 560.615 689.742 562.556 662.322 565.914C656.527 566.624 650.737 567.412 644.948 568.19C663.103 558.283 681.056 547.971 698.831 537.366C706.401 532.849 713.934 528.267 721.454 523.662C756.126 518.352 791.093 516.777 825.611 519.043C827.312 519.155 827.945 516.527 826.223 516.413C799.001 514.627 771.492 515.143 744.056 518.051C738.401 518.652 732.754 519.388 727.113 520.186C741.937 511.05 756.675 501.768 771.359 492.397C771.523 492.345 771.679 492.246 771.827 492.101C781.144 486.152 790.446 480.178 799.73 474.178C802.627 472.305 805.518 470.42 808.412 468.543C830.549 464.243 853.072 462.272 875.357 461.886C877.089 461.851 876.999 459.2 875.275 459.229Z" fill="#262673"/>
<path d="M538.918 566.701C554.07 576.175 569.706 584.971 585.877 592.817C602.016 600.647 618.685 607.53 635.833 613.156C651.957 618.445 668.513 622.595 685.334 625.362C701.422 628.007 717.748 629.403 734.084 629.335C750.368 629.267 766.667 627.756 782.605 624.587C784.555 624.199 786.501 623.784 788.439 623.349C789.521 623.107 790.074 624.662 788.981 624.908C773.105 628.472 756.849 630.422 740.538 630.87C724.196 631.319 707.812 630.291 691.651 627.991C674.803 625.593 658.2 621.791 641.999 616.828C624.729 611.537 607.918 604.964 591.637 597.392C575.141 589.721 559.183 581.041 543.739 571.627C541.869 570.487 540.005 569.336 538.149 568.174C537.229 567.597 537.987 566.119 538.918 566.701Z" fill="#9CC4F7"/>
<path d="M629.529 611.597C633.414 637.953 643.343 664.964 664.882 682.166C665.661 682.786 666.748 683.423 667.621 682.924C668.186 682.601 668.384 681.929 668.526 681.319C671.137 670.116 670.646 658.127 666.039 647.509C659.458 632.342 643.563 621.273 629.529 611.597Z" fill="#9CC4F7"/>
<path d="M651.144 619.073C667.455 621.68 691.918 618.3 706.409 610.778C719.619 603.923 730.483 593.144 737.135 580.394C737.943 578.845 736.508 577.075 734.712 577.42C719.264 580.4 703.959 584.344 689.756 590.76C674.254 597.765 662.256 604.936 652.668 618.385" fill="#9CC4F7"/>
<path d="M579.666 590.882C592.443 594.42 610.797 594.328 621.058 590.188C630.41 586.415 637.53 579.502 641.21 570.719C641.658 569.652 640.36 568.198 639.026 568.279C627.531 568.962 616.25 570.373 606.087 573.726C594.995 577.383 586.607 581.511 580.759 590.525" fill="#9CC4F7"/>
<path d="M672.625 623.269C678.399 644.116 689.495 663.637 704.712 679.716C705.817 680.884 707.416 682.144 708.94 681.523C709.867 681.147 710.354 680.196 710.708 679.305C714.963 668.627 711.201 656.263 703.945 647.133C696.691 638.002 686.386 631.51 676.133 625.452" fill="#9CC4F7"/>
<path d="M587.766 594.607C593.54 615.455 604.636 634.975 619.854 651.055C620.958 652.222 622.557 653.482 624.081 652.861C625.008 652.485 625.495 651.534 625.85 650.643C630.104 639.965 626.342 627.602 619.086 618.471C611.832 609.341 601.527 602.85 591.275 596.79" fill="#9CC4F7"/>
<path d="M702.62 628.397C708.168 629.939 714.11 628.222 719.476 626.192C739.062 618.781 757.219 606.398 767.296 588.921C768.332 587.125 769.104 584.518 767.329 583.343C766.147 582.559 764.526 582.967 763.164 583.427C738.767 591.68 717.435 607.751 703.516 628.36" fill="#9CC4F7"/>
<path d="M711.873 630.133C723.593 648.304 736.927 665.552 751.687 681.633C753.703 683.831 756.757 686.216 759.496 684.881C760.564 684.36 761.271 683.363 761.836 682.36C765.549 675.76 764.802 667.5 761.382 660.762C757.961 654.022 752.164 648.605 745.95 643.968C735.997 636.543 725.352 633.179 713.321 629.366" fill="#9CC4F7"/>
<path d="M746.094 629.496C761.245 640.23 782.519 639.258 800.614 633.943C812.694 630.396 824.509 624.934 832.936 616.04C834.414 614.48 835.823 612.735 836.22 610.677C836.878 607.268 834.48 603.833 831.295 602.1C828.112 600.366 824.308 600.005 820.632 599.909C793.07 599.191 769.086 615.152 746.094 629.496Z" fill="#9CC4F7"/>
<path d="M617.908 608.423C636.194 613.119 655.582 604.808 670.313 593.568C680.146 586.064 688.984 576.875 693.326 565.675C694.088 563.711 694.713 561.597 694.275 559.548C693.55 556.152 689.974 553.794 686.337 553.291C682.698 552.79 679.022 553.778 675.57 554.969C649.678 563.903 633.649 587.087 617.908 608.423Z" fill="#9CC4F7"/>
<path d="M466.303 634.96C417.168 658.411 352.904 675.251 298.276 674.197C243.648 673.145 189.889 659.091 143.77 633.805C113.459 617.188 86.6549 595.98 60.0121 574.881C57.9881 573.278 55.8317 571.453 55.5356 568.995C55.1382 565.706 58.1868 562.872 61.0699 560.74C83.1972 544.372 110.859 535.635 138.472 530.303C240.74 510.555 350.661 535.77 427.683 596.645C438.479 605.179 458.774 623.875 466.303 634.96Z" fill="#383BA4"/>
<path d="M166.523 560.472C181.996 573.017 198.567 584.619 216.154 594.699C200.325 592.8 184.495 590.915 168.668 589.009C166.897 588.796 166.468 591.308 168.235 591.521C198.38 595.15 228.543 598.677 258.657 602.465C232.324 608.575 206.042 615.018 179.446 619.923C177.687 620.248 177.965 622.756 179.734 622.43C208.635 617.098 237.165 609.936 265.791 603.377C271.633 604.121 277.479 604.854 283.317 605.623C296.819 607.4 310.299 609.289 323.765 611.247C324.13 611.456 324.508 611.491 324.851 611.406C341.899 613.89 358.911 616.542 375.863 619.453C346.105 628.268 315.416 634.869 284.504 637.911C282.713 638.087 283.007 640.593 284.79 640.417C317.516 637.195 350.005 630.01 381.405 620.441C387.705 621.545 394.01 622.626 400.291 623.807C421.413 627.776 442.418 632.208 463.194 637.342C464.886 637.76 466.02 635.412 464.31 634.99C449.411 631.308 434.379 628.053 419.29 624.994C396.352 610.622 373.609 595.958 352.732 579.183C346.608 574.26 340.647 569.176 334.832 563.953C333.585 562.833 331.867 564.88 333.106 565.991C352.958 583.822 374.739 599.584 397.48 614.289C402.285 617.397 407.14 620.441 411.988 623.495C391.751 619.514 371.39 615.965 350.965 612.747C342.268 611.377 333.552 610.079 324.833 608.807C295.36 591.01 268.185 570.232 243.936 546.858C242.742 545.707 240.498 547.277 241.708 548.443C260.831 566.876 281.724 583.765 304.173 598.815C308.799 601.918 313.513 604.911 318.266 607.855C301.036 605.39 283.771 603.087 266.486 600.888C266.331 600.824 266.148 600.8 265.937 600.816C254.968 599.421 243.995 598.055 233.016 596.72C229.589 596.303 226.161 595.901 222.732 595.488C203.303 584.806 185.154 572.14 168.249 558.434C166.938 557.369 165.216 559.411 166.523 560.472Z" fill="#262673"/>
<path d="M269.701 477.103C264.87 460.581 259.201 444.271 252.467 428.348C245.744 412.455 237.966 396.949 228.947 382.095C220.467 368.129 210.869 354.755 200.106 342.261C189.813 330.311 178.468 319.157 166.098 309.101C153.767 299.079 140.42 290.134 126.19 282.663C124.448 281.749 122.693 280.858 120.926 279.986C119.942 279.5 120.609 277.985 121.604 278.475C136.062 285.61 149.684 294.197 162.3 303.95C174.94 313.721 186.583 324.634 197.173 336.368C208.212 348.601 218.088 361.741 226.852 375.51C236.195 390.187 244.297 405.547 251.306 421.331C258.406 437.324 264.398 453.745 269.492 470.401C270.11 472.419 270.712 474.441 271.304 476.466C271.6 477.472 269.999 478.118 269.701 477.103Z" fill="#262673"/>
<path d="M232.619 387.172C248.047 364.887 259.368 338.367 255.1 312.065C254.947 311.114 254.569 309.963 253.563 309.797C252.911 309.691 252.293 310.075 251.763 310.447C241.99 317.285 234.011 326.632 230.092 337.492C224.491 353.006 228.771 371.19 232.619 387.172Z" fill="#262673"/>
<path d="M221.521 368.16C211.033 356.101 190.224 343.515 174.054 340.224C159.315 337.222 143.611 338.632 129.713 344.132C128.025 344.801 127.875 347.026 129.47 347.874C143.198 355.183 157.49 361.679 172.675 365.626C189.248 369.934 203.293 371.948 219.892 367.734" fill="#262673"/>
<path d="M255.804 433.65C248.631 423.075 234.72 411.789 224.096 408.565C214.413 405.626 204.226 406.433 195.334 410.783C194.253 411.312 194.22 413.208 195.281 413.976C204.429 420.572 213.922 426.486 223.923 430.246C234.837 434.35 244.042 436.426 254.73 433.244" fill="#262673"/>
<path d="M208.237 351.704C218.402 332.404 223.627 310.815 223.348 289.269C223.329 287.705 222.997 285.766 221.418 285.29C220.455 285 219.427 285.417 218.538 285.869C207.891 291.292 202.119 302.945 201.232 314.323C200.346 325.699 203.597 336.972 207.111 347.887" fill="#262673"/>
<path d="M252.289 425.829C262.454 406.529 267.679 384.939 267.4 363.394C267.381 361.83 267.049 359.891 265.47 359.415C264.507 359.125 263.479 359.542 262.59 359.994C251.943 365.417 246.171 377.07 245.284 388.448C244.398 399.824 247.649 411.097 251.164 422.012" fill="#262673"/>
<path d="M189.182 329.275C186.071 324.68 180.395 322.299 174.93 320.509C154.995 313.98 132.673 312.089 112.898 319.038C110.867 319.752 108.469 321.241 108.987 323.226C109.334 324.55 110.839 325.244 112.187 325.739C136.339 334.609 163.626 335.685 188.479 328.749" fill="#262673"/>
<path d="M183.412 322.242C187.228 301.284 189.182 280.023 189.248 258.758C189.258 255.854 188.615 252.163 185.621 251.477C184.452 251.209 183.225 251.523 182.101 251.93C174.703 254.611 169.513 261.305 167.4 268.506C165.286 275.706 165.886 283.379 167.345 290.721C169.681 302.481 175.369 311.604 181.789 321.924" fill="#262673"/>
<path d="M157.153 301.548C153.199 284.077 136.475 271.647 119.122 264.461C107.539 259.664 94.8229 256.474 82.27 257.969C80.0687 258.231 77.7896 258.676 76.0578 259.983C73.1864 262.148 72.604 266.224 73.7981 269.501C74.9922 272.778 77.6103 275.405 80.3161 277.75C100.61 295.344 129.819 298.144 157.153 301.548Z" fill="#262673"/>
<path d="M239.174 396.758C228.65 381.901 208.235 376.174 189.295 375.539C176.651 375.115 163.583 376.58 152.507 382.341C150.565 383.351 148.621 384.559 147.524 386.377C145.705 389.388 146.76 393.378 149.155 396.009C151.549 398.638 155.012 400.167 158.447 401.405C184.201 410.684 212.439 403.114 239.174 396.758Z" fill="#262673"/>
<path d="M300.705 561.704C290.277 547.664 279.137 534.087 267.131 521.213C255.147 508.363 242.304 496.21 228.526 485.066C215.572 474.586 201.772 465.018 187.187 456.644C173.24 448.636 158.585 441.71 143.353 436.145C128.171 430.597 112.415 426.385 96.352 423.841C94.3865 423.528 92.4151 423.244 90.4418 422.981C89.3412 422.834 89.4308 421.197 90.5431 421.344C106.702 423.499 122.59 427.287 137.944 432.49C153.327 437.704 168.179 444.306 182.329 452.018C197.079 460.057 211.058 469.316 224.211 479.521C238.233 490.397 251.327 502.309 263.543 514.969C275.921 527.795 287.404 541.374 298.128 555.456C299.427 557.162 300.713 558.876 301.991 560.597C302.626 561.451 301.346 562.565 300.705 561.704Z" fill="#9CC4F7"/>
<path d="M233.789 488.686C240.401 462.817 241.64 434.254 228.265 410.821C227.782 409.975 227.016 409.007 226.011 409.171C225.358 409.276 224.914 409.834 224.546 410.351C217.771 419.88 213.577 431.207 213.744 442.676C213.982 459.062 224.482 474.845 233.789 488.686Z" fill="#9CC4F7"/>
<path d="M216.573 474.279C202.403 466.23 178.324 460.946 161.918 462.951C146.963 464.78 132.671 471.068 121.532 480.641C120.178 481.805 120.829 483.947 122.633 484.243C138.166 486.793 153.941 488.398 169.651 487.32C186.798 486.143 200.745 483.604 214.888 474.391" fill="#9CC4F7"/>
<path d="M272.161 525.153C261.642 517.456 244.525 511.216 233.369 511.533C223.2 511.823 213.89 515.8 207.059 522.707C206.229 523.546 206.872 525.346 208.146 525.731C219.111 529.058 230.156 531.63 240.915 532.014C252.658 532.433 262.066 531.481 271.008 525.109" fill="#9CC4F7"/>
<path d="M198.205 462.971C200.919 441.578 198.164 419.585 190.24 399.374C189.665 397.907 188.664 396.183 187.006 396.234C185.997 396.266 185.175 396.982 184.499 397.688C176.395 406.162 175.1 418.966 178.31 429.964C181.521 440.961 188.592 450.554 195.784 459.729" fill="#9CC4F7"/>
<path d="M266.07 518.894C268.783 497.499 266.029 475.507 258.104 455.297C257.53 453.83 256.528 452.106 254.871 452.157C253.861 452.188 253.039 452.906 252.363 453.613C244.262 462.086 242.964 474.89 246.175 485.888C249.385 496.886 256.456 506.479 263.648 515.653" fill="#9CC4F7"/>
<path d="M172.279 447.859C167.713 444.512 161.518 444.062 155.735 444.101C134.632 444.246 112.928 449.515 96.767 462.308C95.1073 463.623 93.3774 465.782 94.5716 467.49C95.3683 468.628 97.0358 468.806 98.4812 468.846C124.39 469.573 150.481 461.969 171.432 447.584" fill="#9CC4F7"/>
<path d="M164.341 443.054C160.484 422.102 154.765 401.454 147.265 381.4C146.24 378.66 144.323 375.387 141.257 375.684C140.061 375.8 139.015 376.485 138.104 377.223C132.086 382.086 129.577 390.031 130.146 397.483C130.715 404.935 134.009 411.974 137.994 418.432C144.376 428.772 152.98 435.571 162.699 443.267" fill="#9CC4F7"/>
<path d="M132.242 431.853C122.305 416.641 102.128 410.212 83.2225 408.923C70.6034 408.062 57.4875 409.074 46.1949 414.447C44.2138 415.389 42.2249 416.529 41.0581 418.307C39.1218 421.254 40.0217 425.276 42.3126 427.988C44.6034 430.7 48.0027 432.347 51.3864 433.702C76.763 443.868 105.278 437.28 132.242 431.853Z" fill="#9CC4F7"/>
<path d="M243.373 495.646C228.175 484.972 206.907 486.026 188.835 491.411C176.773 495.006 164.98 500.514 156.594 509.44C155.123 511.006 153.723 512.756 153.333 514.816C152.69 518.227 155.104 521.653 158.295 523.376C161.485 525.098 165.292 525.443 168.968 525.524C196.532 526.131 220.445 510.079 243.373 495.646Z" fill="#9CC4F7"/>
<path opacity="0.28" d="M761.128 166.262C773.159 154.923 773.159 136.538 761.128 125.199C749.097 113.859 729.591 113.859 717.56 125.199C705.529 136.538 705.529 154.923 717.56 166.262C729.591 177.601 749.097 177.601 761.128 166.262Z" fill="#FAC620"/>
<path d="M766.696 140.544C765.644 141.557 764.356 142.389 763.059 143.123C759.432 138.21 755.803 133.297 752.176 128.384C751.679 127.712 751.184 127.04 750.687 126.368C751.93 125.437 753.274 124.585 754.708 124.003C755.357 123.739 754.805 122.843 754.162 123.104C752.522 123.77 751.007 124.811 749.622 125.854C748.094 127.003 746.715 128.32 745.453 129.728C745.186 129.77 744.958 129.978 744.974 130.231C743.598 131.839 742.4 133.582 741.401 135.414C740.024 137.935 739.005 140.626 738.329 143.388C738.097 144.331 737.924 145.283 737.754 146.235C736.915 146.078 736.073 145.925 735.224 145.813C733.675 145.609 732.117 145.47 730.555 145.424C729.998 145.407 729.44 145.442 728.881 145.448C728.805 145.435 728.731 145.437 728.657 145.451C725.952 145.499 723.257 145.813 720.647 146.47C720.63 146.472 720.614 146.478 720.596 146.481C719.264 146.819 717.949 147.218 716.677 147.735C714.776 148.51 712.748 149.505 711.248 150.886C710.742 151.352 711.513 152.092 712.019 151.626C712.769 150.936 713.699 150.355 714.673 149.838C718.325 154.718 721.978 159.598 725.63 164.48C726.084 165.087 726.538 165.693 726.994 166.301C726.07 167.037 725.079 167.706 724.011 168.166C723.367 168.446 723.918 169.341 724.557 169.066C726.082 168.407 727.469 167.318 728.69 166.259C729.961 165.157 731.069 163.912 732.092 162.607C732.212 162.537 732.302 162.431 732.333 162.306C733.808 160.369 735.055 158.276 736.031 156.082C736.083 155.961 736.126 155.838 736.179 155.717C736.251 155.639 736.288 155.544 736.29 155.441C737.371 152.869 738.146 150.188 738.649 147.462C738.908 147.508 739.165 147.552 739.426 147.6C742.498 148.169 745.646 148.422 748.774 148.262C751.523 148.123 754.238 147.627 756.86 146.852C756.966 146.845 757.067 146.816 757.155 146.762C758.828 146.25 760.47 145.65 762.028 144.875C763.951 143.918 765.944 142.76 767.475 141.284C767.96 140.806 767.191 140.066 766.696 140.544ZM749.261 127.49C749.448 127.334 749.647 127.183 749.84 127.029C753.49 131.972 757.141 136.916 760.792 141.858C761.228 142.45 761.666 143.043 762.102 143.634C760.49 144.486 758.789 145.174 757.036 145.727C753.822 141.131 750.609 136.536 747.395 131.938C747.033 131.421 746.672 130.905 746.31 130.387C747.228 129.363 748.196 128.38 749.261 127.49ZM749.83 147.157C749.813 147.159 749.793 147.159 749.776 147.159C747.516 144.12 745.256 141.082 742.998 138.043C742.671 137.603 742.344 137.162 742.015 136.721C742.009 136.714 742.001 136.71 741.995 136.703C742.985 134.764 744.187 132.935 745.593 131.243C748.716 135.71 751.839 140.177 754.963 144.644C755.292 145.115 755.623 145.587 755.953 146.059C753.956 146.61 751.903 146.988 749.83 147.157ZM728.501 146.483C730.459 149.153 732.415 151.824 734.373 154.496C734.608 154.817 734.844 155.14 735.08 155.461C734.192 157.505 733.083 159.458 731.753 161.272C728.69 157.042 725.626 152.812 722.564 148.582C722.256 148.156 721.948 147.732 721.641 147.306C723.891 146.799 726.195 146.533 728.501 146.483ZM728.93 164.586C728.574 164.931 728.201 165.28 727.814 165.622C724.183 160.769 720.552 155.917 716.919 151.064C716.49 150.491 716.064 149.92 715.635 149.349C715.839 149.252 716.042 149.149 716.247 149.057C717.616 148.433 719.056 147.974 720.517 147.585C723.653 151.918 726.791 156.251 729.927 160.584C730.313 161.118 730.701 161.65 731.086 162.185C730.416 163.02 729.709 163.832 728.93 164.586ZM737.375 148.25C737.047 149.806 736.632 151.349 736.116 152.86C735.953 153.341 735.736 153.807 735.549 154.284C733.736 151.81 731.922 149.335 730.109 146.86C730.011 146.727 729.914 146.595 729.816 146.461C732.438 146.498 734.994 146.832 737.556 147.273C737.495 147.598 737.443 147.925 737.375 148.25ZM738.841 146.436C739.367 143.678 740.024 140.984 741.156 138.372C741.245 138.166 741.364 137.975 741.458 137.771C743.655 140.726 745.852 143.682 748.048 146.636C748.194 146.832 748.338 147.027 748.484 147.223C745.839 147.339 743.18 147.183 740.571 146.753C739.993 146.658 739.418 146.544 738.841 146.436Z" fill="#FAC620"/>
<path opacity="0.28" d="M647.713 165.84C659.744 154.501 659.744 136.117 647.713 124.777C635.682 113.438 616.176 113.438 604.145 124.777C592.114 136.117 592.114 154.501 604.145 165.84C616.176 177.18 635.682 177.18 647.713 165.84Z" fill="#FAC620"/>
<path d="M614.697 123.115L620.685 134.839L620.286 135.021L622.248 140.538L622.593 140.38L622.898 140.979L621.215 141.741C621.054 141.818 620.917 141.95 620.855 142.125C620.789 142.299 620.804 142.483 620.884 142.637L628.803 158.147L627.092 159.176L627.396 159.765L629.212 158.941L630.759 158.239L633.805 164.206L632.477 165.339L632.96 166.288L636.379 164.735L639.795 163.189L639.308 162.238L637.542 162.508L634.495 156.541L636.042 155.84L637.857 155.015L637.553 154.426L635.636 155.045L627.714 139.534C627.634 139.38 627.494 139.251 627.309 139.193C627.124 139.13 626.929 139.145 626.765 139.22L625.082 139.982L624.778 139.385L625.125 139.227L621.774 134.34L621.373 134.522L616.489 124.962L614.697 123.115ZM626.929 140.144L634.684 155.329L634.029 155.627L630.295 157.323L629.64 157.62L627.702 153.827L628.357 153.53L631.187 152.245L630.858 151.604L628.029 152.887L627.375 153.183L626.604 151.674L627.258 151.378L630.088 150.095L629.763 149.45L626.933 150.735L626.278 151.033L625.507 149.524L628.992 147.943L628.663 147.3L625.179 148.883L624.41 147.372L627.893 145.793L627.562 145.15L624.081 146.731L623.307 145.22L626.792 143.639L626.463 143L622.978 144.579L621.882 142.435L623.311 141.789L625.501 140.795L626.929 140.144Z" fill="#FAC620"/>
<path d="M841.672 95.9707C838.231 87.9687 833.603 83.03 828.498 83.03H556.77C546.379 83.03 537.955 103.781 537.955 129.377V509.413C744.718 516.818 819.656 218.474 841.672 95.9707Z" fill="#9CC4F7"/>
<path d="M841.911 95.831C819.876 238.181 744.88 584.86 537.955 576.254V633.319H847.955V135.788C847.955 120.029 845.625 105.857 841.911 95.831Z" fill="#D7E5FF"/>
<path d="M836.774 599.03H537.955V146.589C537.955 123.636 544.486 105.03 552.544 105.03H821.235C829.817 105.03 836.774 124.848 836.774 149.297V599.03Z" fill="#7484BE"/>
<path d="M695.13 555.39C695.13 562.464 692.233 568.2 688.66 568.2C685.086 568.2 682.189 562.464 682.189 555.39C682.189 548.316 685.086 542.58 688.66 542.58C692.233 542.58 695.13 548.316 695.13 555.39Z" fill="#F5F5F5"/>
<path d="M839.606 647.519H534.954C530.416 647.519 526.738 644.05 526.738 639.774V638.838C526.738 634.56 530.418 631.094 534.954 631.094H839.606C844.145 631.094 847.823 634.562 847.823 638.838V639.774C847.823 644.052 844.143 647.519 839.606 647.519Z" fill="#7484BE"/>
<path d="M780.025 510.256C792.056 498.917 792.056 480.532 780.025 469.193C767.994 457.854 748.488 457.854 736.457 469.193C724.426 480.532 724.426 498.917 736.457 510.256C748.488 521.595 767.994 521.595 780.025 510.256Z" fill="#262673"/>
<path d="M746.259 465.907C747.547 466.639 748.7 467.631 749.756 468.654C745.513 473.108 741.271 477.562 737.028 482.016C736.447 482.626 735.867 483.235 735.286 483.843C734.042 482.916 732.853 481.876 731.924 480.696C731.503 480.16 730.703 480.872 731.12 481.403C732.183 482.754 733.607 483.907 735.002 484.937C736.539 486.074 738.214 487.039 739.958 487.875C740.063 488.11 740.33 488.271 740.589 488.198C742.564 489.09 744.639 489.79 746.76 490.289C749.68 490.974 752.694 491.293 755.699 491.28C756.726 491.277 757.751 491.218 758.773 491.156C758.803 491.962 758.838 492.768 758.918 493.574C759.062 495.041 759.276 496.502 759.586 497.947C759.697 498.463 759.86 498.966 759.995 499.476C759.999 499.548 760.018 499.618 760.049 499.682C760.718 502.153 761.658 504.555 762.936 506.798C762.942 506.813 762.95 506.828 762.96 506.842C763.614 507.988 764.327 509.102 765.153 510.151C766.388 511.717 767.88 513.351 769.651 514.41C770.249 514.768 770.835 513.891 770.237 513.535C769.353 513.004 768.541 512.286 767.783 511.511C771.987 507.042 776.19 502.574 780.394 498.105C780.916 497.549 781.44 496.994 781.962 496.438C782.934 497.117 783.852 497.874 784.573 498.747C785.007 499.274 785.808 498.564 785.377 498.041C784.347 496.792 782.905 495.769 781.532 494.892C780.104 493.979 778.563 493.249 776.981 492.608C776.882 492.512 776.751 492.455 776.615 492.455C774.278 491.545 771.829 490.882 769.341 490.491C769.205 490.469 769.067 490.46 768.928 490.44C768.833 490.39 768.726 490.379 768.619 490.401C765.714 489.999 762.769 489.902 759.837 490.065C759.825 489.817 759.81 489.569 759.8 489.321C759.683 486.373 759.225 483.428 758.343 480.593C757.568 478.103 756.436 475.726 755.033 473.497C755.002 473.401 754.948 473.317 754.873 473.249C753.962 471.832 752.966 470.462 751.807 469.21C750.38 467.666 748.728 466.103 746.85 465.035C746.24 464.684 745.652 465.562 746.259 465.907ZM736.771 484.891C736.568 484.755 736.366 484.608 736.161 484.467C740.429 479.985 744.699 475.504 748.967 471.022C749.478 470.486 749.99 469.95 750.5 469.414C751.749 470.699 752.852 472.102 753.822 473.583C749.811 477.584 745.802 481.585 741.791 485.587C741.339 486.037 740.887 486.488 740.437 486.938C739.171 486.329 737.934 485.664 736.771 484.891ZM756.952 479.864C756.958 479.881 756.962 479.897 756.968 479.914C754.348 482.682 751.726 485.451 749.105 488.22C748.726 488.622 748.346 489.022 747.966 489.424C747.958 489.432 747.958 489.439 747.952 489.446C745.724 488.984 743.558 488.299 741.489 487.395C745.387 483.507 749.285 479.618 753.183 475.73C753.594 475.318 754.005 474.909 754.418 474.498C755.442 476.205 756.303 478.001 756.952 479.864ZM761.142 499.585C763.453 497.178 765.761 494.771 768.071 492.362C768.35 492.072 768.628 491.782 768.907 491.492C771.221 491.839 773.493 492.408 775.67 493.212C772.002 496.99 768.336 500.771 764.668 504.549C764.3 504.929 763.93 505.309 763.562 505.689C762.525 503.743 761.723 501.691 761.142 499.585ZM779.74 495.044C780.178 495.292 780.624 495.553 781.064 495.83C776.884 500.273 772.706 504.716 768.525 509.159C768.032 509.683 767.539 510.206 767.047 510.731C766.899 510.566 766.747 510.402 766.604 510.237C765.646 509.125 764.841 507.909 764.105 506.657C767.861 502.787 771.617 498.916 775.374 495.046C775.838 494.569 776.3 494.093 776.761 493.616C777.784 494.04 778.783 494.504 779.74 495.044ZM760.934 491.042C762.617 490.985 764.304 491.012 765.983 491.139C766.519 491.179 767.049 491.271 767.584 491.332C765.443 493.563 763.303 495.793 761.162 498.026C761.047 498.145 760.932 498.265 760.817 498.384C760.254 495.97 760.012 493.548 759.882 491.097C760.232 491.078 760.583 491.053 760.934 491.042ZM758.725 490.109C755.756 490.258 752.824 490.273 749.865 489.834C749.633 489.799 749.407 489.733 749.176 489.694C751.724 487.003 754.272 484.309 756.82 481.618C756.989 481.44 757.157 481.261 757.326 481.083C758.051 483.485 758.499 485.958 758.655 488.449C758.69 489.002 758.705 489.556 758.725 490.109Z" fill="white"/>
<path d="M631.769 496.629C635.651 481.016 625.37 465.393 608.805 461.733C592.239 458.074 575.663 467.764 571.78 483.377C567.897 498.99 578.179 514.613 594.744 518.273C611.309 521.932 627.886 512.242 631.769 496.629Z" fill="#262673"/>
<path d="M582.458 494.84C584.131 495.094 585.812 495.232 587.509 495.175C588.292 495.149 589.134 495.131 589.901 494.974C590.61 494.831 590.749 494.526 591.066 493.913C592.539 491.066 594.171 488.297 595.942 485.605C595.336 485.53 594.73 485.457 594.124 485.381C597.015 493.379 599.098 501.626 600.288 510C600.454 511.172 602.181 511.236 602.275 510C603.294 496.57 605.662 483.259 609.331 470.245C608.68 470.163 608.029 470.08 607.379 469.996C607.883 476.225 608.388 482.455 608.89 488.686C609.013 490.192 609.081 491.71 609.259 493.21C609.371 494.159 609.74 494.93 610.77 495.237C612.044 495.617 613.737 495.266 615.056 495.213C616.745 495.143 618.434 495.075 620.122 495.006C621.396 494.952 621.404 493.08 620.122 493.131C618.755 493.186 617.387 493.243 616.02 493.298C615.295 493.328 614.573 493.357 613.848 493.386C613.197 493.414 612.367 493.597 611.738 493.469C611.419 493.405 611.413 493.467 611.255 493.223C611.125 493.023 611.173 492.345 611.158 492.147C611.107 491.532 611.058 490.917 611.008 490.302C610.897 488.917 610.784 487.533 610.673 486.149C610.236 480.766 609.802 475.381 609.366 469.998C609.284 468.986 607.716 468.676 607.414 469.748C603.699 482.921 601.316 496.405 600.286 510C600.948 510 601.613 510 602.275 510C601.059 501.452 598.991 493.049 596.037 484.884C595.763 484.124 594.685 483.953 594.222 484.66C592.328 487.542 590.601 490.511 589.04 493.564C589.327 493.41 589.613 493.256 589.899 493.1C587.591 493.383 585.283 493.381 582.984 493.032C581.735 492.845 581.198 494.65 582.458 494.84Z" fill="white"/>
<path d="M701.438 510.531C713.469 499.192 713.469 480.807 701.438 469.468C689.407 458.128 669.901 458.128 657.87 469.468C645.839 480.807 645.839 499.192 657.87 510.531C669.901 521.87 689.407 521.87 701.438 510.531Z" fill="#262673"/>
<path d="M690.449 468.85L683.651 480.176L683.265 479.971L679.579 484.638L679.912 484.816L679.566 485.394L677.941 484.526C677.783 484.445 677.589 484.414 677.402 484.465C677.211 484.515 677.061 484.63 676.971 484.781L667.977 499.763L666.105 499.027L665.764 499.598L667.519 500.534L669.013 501.331L665.554 507.094L663.808 506.714L663.257 507.63L666.561 509.389L669.859 511.151L670.41 510.232L669.167 509.018L672.627 503.255L674.121 504.052L675.876 504.988L676.217 504.417L674.585 503.286L683.575 488.302C683.664 488.154 683.696 487.97 683.641 487.794C683.588 487.614 683.466 487.473 683.306 487.388L681.681 486.52L682.028 485.943L682.363 486.121L684.708 480.738L684.321 480.533L689.863 471.296L690.449 468.85ZM682.593 488.034L673.79 502.702L673.159 502.364L669.549 500.442L668.918 500.104L671.117 496.438L671.748 496.776L674.483 498.233L674.854 497.613L672.12 496.155L671.489 495.817L672.364 494.359L672.995 494.697L675.728 496.155L676.104 495.534L673.369 494.077L672.738 493.739L673.613 492.281L676.981 494.075L677.353 493.452L673.985 491.661L674.861 490.203L678.226 491.998L678.598 491.376L675.233 489.584L676.108 488.124L679.474 489.918L679.844 489.298L676.48 487.502L677.723 485.429L679.102 486.165L681.218 487.294L682.593 488.034Z" fill="white"/>
<path d="M770.5 223.784H584.782V413.904H770.5V223.784Z" fill="#E1ECF2"/>
<path d="M755.857 261.013H599.316C597.962 261.013 596.865 259.979 596.865 258.703C596.865 257.427 597.962 256.394 599.316 256.394H755.857C757.211 256.394 758.308 257.427 758.308 258.703C758.308 259.979 757.211 261.013 755.857 261.013Z" fill="#262673"/>
<path d="M755.857 278.646H599.316C597.962 278.646 596.865 277.612 596.865 276.336C596.865 275.06 597.962 274.027 599.316 274.027H755.857C757.211 274.027 758.308 275.06 758.308 276.336C758.308 277.612 757.211 278.646 755.857 278.646Z" fill="#262673"/>
<path d="M693.346 296.277H599.316C597.962 296.277 596.865 295.243 596.865 293.967C596.865 292.691 597.962 291.658 599.316 291.658H693.346C694.7 291.658 695.796 292.691 695.796 293.967C695.796 295.243 694.7 296.277 693.346 296.277Z" fill="#262673"/>
<path d="M693.346 313.91H599.316C597.962 313.91 596.865 312.876 596.865 311.6C596.865 310.324 597.962 309.291 599.316 309.291H693.346C694.7 309.291 695.796 310.324 695.796 311.6C695.796 312.876 694.7 313.91 693.346 313.91Z" fill="#262673"/>
<path d="M693.346 331.543H599.316C597.962 331.543 596.865 330.509 596.865 329.233C596.865 327.957 597.962 326.924 599.316 326.924H693.346C694.7 326.924 695.796 327.959 695.796 329.233C695.796 330.507 694.7 331.543 693.346 331.543Z" fill="#262673"/>
<path d="M736.899 349.174H599.316C597.962 349.174 596.865 348.14 596.865 346.864C596.865 345.588 597.962 344.555 599.316 344.555H736.899C738.253 344.555 739.35 345.588 739.35 346.864C739.35 348.14 738.253 349.174 736.899 349.174Z" fill="#262673"/>
<path d="M736.899 366.807H599.316C597.962 366.807 596.865 365.773 596.865 364.497C596.865 363.221 597.962 362.188 599.316 362.188H736.899C738.253 362.188 739.35 363.221 739.35 364.497C739.35 365.771 738.253 366.807 736.899 366.807Z" fill="#262673"/>
<path opacity="0.22" d="M599.106 343.306C594 343.51 589.397 342.645 584.122 343.705C585.156 335 595.687 332.806 596.1 324.063C596.148 323.031 595.628 321.07 594.462 320.892C589.823 325.605 586.905 327.55 581.147 331.205C576.803 333.963 572.1 336.452 568.754 340.119C565.785 343.37 564.073 347.334 562.082 351.133C561.694 350.303 561.307 349.475 560.921 348.645C560.656 348.078 560.372 347.487 559.828 347.099C559.209 346.659 558.365 346.56 557.568 346.499C545.549 345.594 533.797 349.521 521.803 350.645C513.709 351.403 505.537 350.878 497.418 350.353C496.171 350.272 494.864 350.175 493.822 349.574C492.866 349.025 492.262 348.127 491.699 347.259C477.389 325.187 469.168 302.8 451.646 282.566C450.623 280.811 448.86 279.636 447.126 278.574C436.268 271.935 423.258 267.097 410.323 264.744C410.321 264.74 410.319 264.736 410.317 264.731L410.101 264.703C409.729 264.637 409.357 264.567 408.987 264.503C406.043 262.234 402.638 260.44 398.812 259.361C398.308 259.217 397.947 259.476 397.813 259.814C396.157 254.128 395.282 248.271 395.222 242.405C403.787 242.038 407.728 236.967 412.216 230.548C416.73 224.093 418.399 216.424 419.021 208.883C419.621 201.624 419.305 194.309 418.121 187.103C418.119 187.074 418.111 187.044 418.105 187.015C417.819 185.284 417.497 183.556 417.108 181.837C416.519 179.239 415.775 176.641 414.85 174.102C415.105 173.932 415.372 173.768 415.618 173.594C415.629 173.585 415.637 173.575 415.649 173.566C422.716 171.034 428.303 166.685 430.397 159.429C437.603 134.456 392.939 126.241 377.587 136.692C377.587 136.692 355.405 125.843 345.754 146.123C345.754 146.123 307.71 164.17 340.583 199.847C339.653 199.997 338.773 200.269 338.042 200.719C336.277 201.807 335.742 203.655 336.127 205.261C336.513 206.869 337.67 208.3 338.806 209.693C339.85 210.975 340.896 212.254 341.94 213.536C343.36 215.278 344.816 217.048 346.921 218.377C349.027 219.707 351.932 220.548 354.739 220.094C355.631 219.951 356.476 219.697 356.989 219.024C357.398 219.604 357.807 220.184 358.226 220.757C362.256 233.521 363.02 246.736 360.057 258.632C359.811 258.402 359.418 258.27 358.993 258.433C356.213 259.5 353.761 261.143 351.472 262.798C350.825 263.266 350.219 263.769 349.592 264.255C349.076 264.334 348.56 264.419 348.043 264.507L346.771 264.659C346.76 264.685 346.748 264.713 346.736 264.738C333.691 267.118 320.378 271.968 309.568 278.578C308.285 279.364 306.985 280.214 305.982 281.315V281.312C305.982 281.312 305.969 281.328 305.967 281.332C305.922 281.382 305.889 281.437 305.846 281.486C304.036 283.809 282.581 312.144 267.118 369.491C250.963 429.404 256.754 483.734 256.754 483.734H293.332C293.332 483.734 293.357 483.564 293.4 483.266C294.074 483.457 294.773 483.589 295.447 483.698C311.622 486.279 327.944 487.924 344.307 488.622C347.001 488.738 350.173 488.604 351.715 486.391C352.395 485.416 352.613 484.204 352.814 483.033C352.861 482.767 352.906 482.501 352.95 482.233C369.925 482.48 386.9 482.728 403.877 482.976C403.881 482.995 403.883 483.013 403.887 483.031C404.087 484.203 404.306 485.414 404.985 486.389C406.528 488.602 409.698 488.734 412.394 488.62C428.757 487.922 445.079 486.277 461.253 483.696C463.207 483.384 465.403 482.899 466.419 481.203C467.109 480.053 467.066 478.625 467.004 477.286C466.049 456.903 465.095 436.522 464.138 416.138C463.723 407.302 463.307 398.461 462.849 389.621C463.566 390.646 464.304 391.663 465.071 392.674C466.178 394.136 467.403 395.647 469.232 396.37C470.736 396.965 472.454 396.947 474.106 396.908C483.414 396.697 492.716 396.262 501.998 395.605C508.866 395.118 515.735 394.507 522.497 393.356C539.431 390.473 555.344 384.267 571.087 378.113C572.077 377.726 573.185 377.215 573.411 376.29C573.554 375.704 573.291 375.106 573.032 374.551C571.878 372.084 570.727 369.618 569.574 367.15C578.65 362.872 588.643 360.071 598.887 358.986C603.066 358.543 607.334 358.369 611.314 357.175C615.804 355.828 619.655 353.265 623.42 350.742C626.863 348.436 634.816 343.666 636.493 340.176C633.848 334.644 615.305 342.66 599.106 343.306ZM398.352 260.815C401.066 261.58 403.441 262.676 405.58 263.984C403.406 263.692 401.239 263.468 399.097 263.326C399.097 263.326 399.089 263.464 399.075 263.701C398.715 262.697 398.37 261.687 398.058 260.67C398.14 260.73 398.234 260.782 398.352 260.815ZM359.743 259.719C359.32 261.283 358.828 262.818 358.272 264.329C358.237 263.655 358.218 263.286 358.218 263.286C356.389 263.407 354.536 263.593 352.67 263.826C354.83 262.243 357.137 260.739 359.743 259.719Z" fill="#1E85A5"/>
<path d="M550.33 369.855C555.533 364.106 556.957 356.009 561.947 350.098C565.294 346.134 569.997 343.442 574.341 340.459C580.099 336.506 583.017 334.403 587.655 329.309C588.822 329.501 589.342 331.622 589.293 332.738C588.88 342.194 578.35 344.566 577.315 353.977C582.59 352.831 587.192 353.768 592.299 353.547C608.497 352.848 627.04 344.182 629.681 350.167C628.004 353.942 620.05 359.099 616.608 361.593C612.843 364.321 608.992 367.093 604.501 368.549C600.522 369.84 596.254 370.027 592.075 370.506C580.06 371.883 568.38 375.791 558.133 381.862" fill="#F1A088"/>
<path d="M388.638 237.854C387.49 252.022 390.51 266.47 397.271 279.171C397.684 279.948 398.123 280.834 397.803 281.651C397.439 282.588 396.272 282.962 395.247 283.208C382.706 286.207 369.658 287.304 356.753 286.447C352.224 286.146 347.57 285.564 343.645 283.414C358.568 263.069 358.302 232.766 346.068 206.915" fill="#F1A088"/>
<path d="M351.076 219.828C351.076 219.828 355.214 231.329 355.056 245.692C355.056 245.692 371.889 253.502 388.464 246.821L387.716 237.457" fill="#DD8572"/>
<path d="M306.409 410.335C298.771 438.005 291.133 465.676 283.494 493.346C282.713 496.177 282.182 499.596 285.158 501.503C287.147 502.777 290.034 502.884 292.681 502.926C344.706 503.749 396.73 504.569 448.755 505.392C451.044 505.429 453.935 505.172 454.63 503.583C454.909 502.948 454.726 502.26 454.539 501.606C447.536 477 440.533 452.394 433.529 427.788C431.829 421.815 428.883 414.804 420.854 413.076C417.297 412.31 413.488 412.819 409.832 413.278C382.874 416.664 355.222 417.11 328.082 414.6" fill="#262673"/>
<path d="M345.269 268.219C359.299 275.433 380.296 277.596 393.227 268.744C406.102 283.948 408.581 300.515 410.218 319.905C411.854 339.296 410.407 358.826 411.946 378.225C413.11 392.898 415.982 407.551 414.864 422.227C414.739 423.853 414.433 425.698 412.988 426.596C412.189 427.092 411.196 427.189 410.243 427.272C385.911 429.402 361.463 431.533 337.068 430.16C335.381 430.064 333.597 429.921 332.231 428.985C331.08 428.195 330.391 426.952 329.824 425.722C327.134 419.88 326.349 413.436 325.809 407.089C322.828 371.951 326.549 336.533 333.62 301.919C335.974 290.404 338.744 278.822 344.268 268.315" fill="white"/>
<path d="M370.069 141.91C380.787 144.01 391.725 147.596 399.132 155.193C405.43 161.654 408.5 170.344 410.301 178.951C412.314 188.561 412.959 198.426 412.212 208.195C411.591 216.349 409.922 224.642 405.408 231.62C400.895 238.601 396.938 244.111 388.273 244.454C382.091 244.698 371.92 240.789 366.988 237.266C362.055 233.743 358.418 230.642 354.857 225.87C345.523 213.358 338.148 199.055 336.955 183.8C335.761 168.545 341.584 152.263 354.513 143.019" fill="#F1A088"/>
<path d="M390.864 186.55C391.69 190.064 392.522 193.597 393.909 196.951C395.296 200.306 397.275 203.502 400.102 205.924C398.241 207.45 395.177 209.454 391.945 209.756" fill="#DD8572"/>
<path d="M353.971 189.883C356.786 188.715 365.081 185.851 376.484 187.017C378.428 187.215 380.107 185.394 379.406 183.673C379.087 182.886 378.284 182.216 376.603 181.982C371.751 181.305 359.188 181.992 353.572 189.418C353.381 189.668 353.671 190.008 353.971 189.883Z" fill="black"/>
<path d="M411.133 184.92C409.275 184.127 403.908 182.346 397.525 184.813C396.436 185.234 395.109 183.679 395.179 181.938C395.212 181.141 396.93 180.143 397.93 179.937C403.661 178.749 409.516 178.995 411.274 184.424C411.357 184.685 411.33 185.004 411.133 184.92Z" fill="black"/>
<path d="M380.197 217.395L402.804 215.673C402.804 215.673 397.78 233.159 380.197 217.395Z" fill="white"/>
<path d="M373.009 195.348C373.009 196.898 372.002 198.154 370.761 198.154C369.52 198.154 368.513 196.898 368.513 195.348C368.513 193.799 369.52 192.545 370.761 192.545C372.002 192.545 373.009 193.801 373.009 195.348Z" fill="black"/>
<path d="M405.496 192.714C405.496 194.263 404.489 195.517 403.248 195.517C402.007 195.517 401 194.262 401 192.714C401 191.164 402.007 189.908 403.248 189.908C404.489 189.908 405.496 191.164 405.496 192.714Z" fill="black"/>
<path d="M345.608 190.812C345.608 190.812 348.854 174.398 367.498 177.319C386.142 180.24 400.495 176.447 408.813 170.036C417.129 163.624 340.025 126.308 345.608 190.812Z" fill="#DD8572"/>
<path d="M344.027 208.92C344.027 208.92 345.192 197.418 345.805 187.949C346.516 176.95 351.037 171.095 359.47 171.383C367.903 171.67 416.385 181.725 423.591 154.721C430.796 127.718 386.133 118.835 370.78 130.136C370.78 130.136 348.601 118.405 338.948 140.335C338.946 140.331 293.988 163.386 344.027 208.92Z" fill="black"/>
<path d="M345.934 204.699C344.882 201.449 341.231 198.868 336.955 198.35C334.986 198.112 332.783 198.332 331.234 199.366C329.469 200.542 328.933 202.54 329.319 204.277C329.705 206.016 330.862 207.562 331.998 209.069C333.042 210.453 334.088 211.839 335.132 213.224C336.552 215.107 338.007 217.022 340.113 218.46C342.219 219.898 345.123 220.806 347.93 220.316C350.737 219.828 353.124 218.203 345.934 204.699Z" fill="#F1A088"/>
<path d="M347.254 207.341C346.742 205.755 344.96 204.495 342.873 204.244C341.911 204.128 340.838 204.235 340.08 204.74C339.219 205.314 338.958 206.289 339.145 207.137C339.334 207.986 339.897 208.74 340.452 209.476C340.962 210.152 341.471 210.828 341.981 211.505C342.675 212.425 343.384 213.36 344.412 214.061C345.441 214.762 346.857 215.207 348.226 214.966C349.6 214.726 350.763 213.932 347.254 207.341Z" fill="#DD8572"/>
<path d="M392.288 267.064C408.687 268.238 426.297 274.284 440.318 283.55C442.052 284.696 443.817 285.966 444.838 287.866C445.625 289.326 445.901 291.032 446.158 292.697C453.27 338.799 455.304 385.619 457.328 432.306C458.283 454.346 459.237 476.385 460.194 498.426C460.256 499.873 460.299 501.417 459.609 502.66C458.592 504.494 456.397 505.017 454.443 505.355C438.269 508.146 421.947 509.925 405.583 510.68C402.887 510.804 399.718 510.659 398.175 508.267C397.495 507.213 397.277 505.902 397.077 504.635C393.422 481.665 389.764 458.653 388.114 435.415C385.985 405.409 387.218 375.256 388.455 345.192C389.524 319.132 391.217 293.123 392.288 267.064Z" fill="#C8DEEB"/>
<path d="M444.838 287.866C462.362 309.746 470.582 333.954 484.89 357.82C485.453 358.76 486.059 359.729 487.014 360.322C488.056 360.97 489.363 361.077 490.61 361.163C498.729 361.732 506.901 362.3 514.995 361.479C526.989 360.263 538.741 356.017 550.76 356.995C551.557 357.06 552.4 357.166 553.02 357.644C553.563 358.062 553.848 358.703 554.113 359.314C558.147 368.654 562.181 377.996 566.217 387.335C566.477 387.936 566.741 388.582 566.597 389.215C566.371 390.214 565.263 390.767 564.273 391.185C548.532 397.841 532.616 404.55 515.682 407.669C508.919 408.914 502.05 409.575 495.184 410.102C485.903 410.814 476.602 411.284 467.292 411.512C465.64 411.552 463.922 411.574 462.418 410.93C460.589 410.148 459.364 408.514 458.257 406.935C433.547 371.643 434.94 329.11 444.838 287.866Z" fill="#C8DEEB"/>
<g opacity="0.17">
<path d="M387.136 383.515C397.423 364.591 408.529 346.325 422.568 329.681C423.067 329.09 423.583 328.268 423.133 327.643C422.917 327.344 422.535 327.199 422.176 327.07C414.926 324.467 407.674 321.865 400.423 319.262C406.626 313.605 413.237 308.345 420.195 303.531C421.423 302.683 421.699 301.089 420.83 299.912C413.557 290.06 407.857 279.863 403.509 268.583L392.288 267.064C392.288 267.064 387.635 354.227 387.488 370.802L387.136 383.515Z" fill="#2E6C9D"/>
</g>
<path opacity="0.17" d="M446.581 422.612L402.046 424.411C401.393 424.437 400.842 423.962 400.815 423.347L400.263 411.222C400.236 410.607 400.741 410.087 401.393 410.061L445.928 408.262C446.581 408.236 447.132 408.712 447.16 409.327L447.711 421.452C447.74 422.067 447.234 422.586 446.581 422.612Z" fill="#2E6C9D"/>
<path opacity="0.17" d="M453.555 393.89C453.555 393.89 446.85 333.026 441.668 333.601C436.485 334.174 436.636 367.852 453.555 393.89Z" fill="#2E6C9D"/>
<path d="M351.411 267.02C335.013 268.194 316.78 274.289 302.76 283.557C301.026 284.703 299.262 285.973 298.241 287.872C297.454 289.331 297.177 291.037 296.92 292.702C289.808 338.804 287.774 385.62 285.75 432.308C284.796 454.347 283.841 476.387 282.885 498.426C282.822 499.873 282.78 501.417 283.469 502.66C284.486 504.494 286.681 505.017 288.635 505.355C304.809 508.146 321.132 509.925 337.495 510.68C340.191 510.804 343.36 510.659 344.903 508.267C345.583 507.213 345.801 505.9 346.002 504.635C349.656 481.665 353.315 458.655 354.965 435.416C357.096 405.411 355.861 375.26 354.624 345.197C353.552 319.137 352.483 293.079 351.411 267.02Z" fill="#C8DEEB"/>
<g opacity="0.17">
<path d="M356.122 383.988C345.834 365.065 334.729 346.798 320.69 330.155C320.191 329.564 319.675 328.741 320.125 328.117C320.341 327.818 320.723 327.673 321.081 327.544C328.332 324.942 335.584 322.339 342.834 319.736C336.542 313.996 329.83 308.666 322.76 303.797C321.699 303.067 321.461 301.691 322.213 300.676C329.586 290.745 335.572 279.9 339.963 268.508L351.411 267.022C351.411 267.022 355.623 354.7 355.771 371.278L356.122 383.988Z" fill="#2E6C9D"/>
</g>
<path d="M299.172 286.511C299.172 286.511 276.46 317.079 260.305 381.862C244.151 446.645 249.942 505.394 249.942 505.394H286.518C286.518 505.394 302.063 389.061 303.586 355.585C305.113 322.108 299.172 286.511 299.172 286.511Z" fill="#C8DEEB"/>
<path opacity="0.17" d="M295.572 441.842C295.572 441.842 315.216 379.551 309.829 348.544C304.443 317.538 296.051 407.226 295.572 441.842Z" fill="#2E6C9D"/>
<path d="M352.185 261.777C349.405 262.932 346.954 264.707 344.664 266.495C341.946 268.618 339.402 270.922 336.996 273.323C331.836 278.47 327.42 284.235 323.886 290.369C316.675 302.885 313.648 316.884 314.594 330.893C315.147 339.091 316.955 347.184 319.554 355.057C319.866 356.004 321.537 355.6 321.221 354.647C316.797 341.252 314.717 327.083 317.238 313.21C319.708 299.619 326.541 286.666 336.529 276.143C339.053 273.485 341.755 270.946 344.634 268.588C347.177 266.506 349.902 264.419 353.058 263.108C354.067 262.684 353.188 261.358 352.185 261.777Z" fill="#262673"/>
<path d="M319.153 354.386C317.945 354.673 316.782 355.143 315.705 355.607C312.995 356.779 310.603 358.312 308.637 360.019C305.598 362.659 303.569 365.726 302.337 368.882C300.475 373.663 300.409 378.64 301.18 383.415C302.374 390.818 305.563 397.971 309.475 404.81C310.094 405.895 310.739 406.973 311.4 408.045C311.797 408.693 313.377 408.247 312.975 407.596C308.637 400.542 304.969 393.188 303.288 385.527C302.211 380.625 301.924 375.526 303.459 370.54C304.441 367.349 306.216 364.187 309.076 361.453C310.996 359.617 313.207 358.084 315.938 356.808C316.404 356.591 316.881 356.386 317.368 356.189C317.584 356.101 317.446 356.156 317.524 356.129C317.625 356.09 317.729 356.052 317.83 356.013C318.013 355.945 318.198 355.879 318.385 355.815C318.804 355.672 319.26 355.571 319.673 355.422C319.69 355.416 319.712 355.413 319.731 355.407C320.764 355.165 320.187 354.142 319.153 354.386Z" fill="#262673"/>
<path d="M304.005 395.456C306.023 399.868 308.294 404.247 310.983 408.473C311.801 409.76 314.961 408.872 314.135 407.573C311.446 403.347 309.175 398.97 307.157 394.556C306.541 393.209 303.389 394.108 304.005 395.456Z" fill="#262673"/>
<path d="M315.457 412.287C314.01 412.79 312.3 412.441 311.637 411.506L309.697 408.776C309.035 407.843 309.67 406.678 311.115 406.176C312.563 405.673 314.273 406.022 314.935 406.957L316.875 409.687C317.54 410.619 316.905 411.783 315.457 412.287Z" fill="#262673"/>
<path d="M342.27 405.143C344.835 397.325 346.633 389.344 346.421 381.44C346.284 376.336 345.283 371.173 342.507 366.499C340.684 363.429 338.05 360.583 334.442 358.347C332.078 356.88 329.28 355.69 326.21 354.937C324.866 354.609 323.277 354.225 321.79 354.216C321.769 354.216 321.747 354.214 321.726 354.212C320.658 354.17 320.339 355.279 321.412 355.321C321.726 355.334 322.036 355.367 322.341 355.402C322.702 355.442 323.06 355.492 323.415 355.549C323.516 355.565 323.617 355.582 323.719 355.598C323.871 355.624 323.639 355.582 323.91 355.633C324.163 355.681 324.414 355.73 324.663 355.784C327.523 356.397 329.968 357.331 332.235 358.584C335.679 360.484 338.286 362.984 340.142 365.704C343.033 369.939 344.251 374.661 344.634 379.378C345.234 386.755 343.84 394.257 341.687 401.601C341.354 402.737 340.997 403.872 340.625 405.005C340.388 405.715 342.036 405.851 342.27 405.143Z" fill="#262673"/>
<path d="M343.15 391.156C342.246 395.851 341.085 400.56 339.48 405.2C338.989 406.622 342.287 406.892 342.776 405.477C344.381 400.835 345.54 396.128 346.446 391.433C346.723 390.001 343.427 389.72 343.15 391.156Z" fill="#262673"/>
<path d="M339.33 410.058C340.865 410.272 342.451 409.606 342.873 408.567L344.108 405.53C344.531 404.491 343.629 403.476 342.094 403.261C340.559 403.046 338.974 403.712 338.551 404.752L337.316 407.788C336.895 408.826 337.795 409.841 339.33 410.058Z" fill="#262673"/>
<path d="M391.544 264.349C409.92 269.958 414.338 290.448 415.434 306.292C416.753 325.332 413.631 344.345 409.051 362.841C406.452 373.334 403.38 383.713 400.287 394.084C399.985 395.096 401.654 395.528 401.954 394.518C407.641 375.453 413.288 356.281 415.955 336.594C417.268 326.902 417.825 317.101 417.232 307.339C416.681 298.232 415.413 288.85 411.435 280.453C407.662 272.484 400.982 265.519 392.006 262.777C390.942 262.452 390.486 264.026 391.544 264.349Z" fill="#262673"/>
<path d="M403.392 402.075C409.789 402.075 414.975 397.187 414.975 391.158C414.975 385.129 409.789 380.241 403.392 380.241C396.995 380.241 391.809 385.129 391.809 391.158C391.809 397.187 396.995 402.075 403.392 402.075Z" fill="#262673"/>
<path d="M409.717 391.158C409.717 394.452 406.885 397.119 403.392 397.119C399.899 397.119 397.067 394.45 397.067 391.158C397.067 387.866 399.899 385.196 403.392 385.196C406.885 385.196 409.717 387.864 409.717 391.158Z" fill="#C7DDEB"/>
<path d="M460 497H249V527H460V497Z" fill="#E1ECF2"/>
</g>
<defs>
<clipPath id="clip0_109_236">
<rect width="974" height="918" fill="white" transform="translate(-79)"/>
</clipPath>
</defs>
</svg>
