<?xml version="1.0" encoding="UTF-8"?>
<svg xmlns="http://www.w3.org/2000/svg" xmlns:xlink="http://www.w3.org/1999/xlink" width="64pt" height="64pt" viewBox="0 0 64 64" version="1.1">
<defs>
<linearGradient id="linear0" gradientUnits="userSpaceOnUse" x1="37" y1="5.5" x2="37" y2="59.0936" spreadMethod="reflect" >
<stop offset="0" style="stop-color:#1A6DFF;stop-opacity:1;"/>
<stop offset="1" style="stop-color:#C822FF;stop-opacity:1;"/>
</linearGradient>
<linearGradient id="linear1" gradientUnits="userSpaceOnUse" x1="37" y1="5.5" x2="37" y2="59.0936" spreadMethod="reflect" >
<stop offset="0" style="stop-color:#1A6DFF;stop-opacity:1;"/>
<stop offset="1" style="stop-color:#C822FF;stop-opacity:1;"/>
</linearGradient>
<linearGradient id="linear2" gradientUnits="userSpaceOnUse" x1="45" y1="5.5" x2="45" y2="59.0936" spreadMethod="reflect" >
<stop offset="0" style="stop-color:#1A6DFF;stop-opacity:1;"/>
<stop offset="1" style="stop-color:#C822FF;stop-opacity:1;"/>
</linearGradient>
<linearGradient id="linear3" gradientUnits="userSpaceOnUse" x1="23" y1="23.8333" x2="23" y2="40.2185" spreadMethod="reflect" >
<stop offset="0" style="stop-color:#6DC7FF;stop-opacity:1;"/>
<stop offset="1" style="stop-color:#E6ABFF;stop-opacity:1;"/>
</linearGradient>
</defs>
<g id="surface1">
<path style=" stroke:none;fill-rule:nonzero;fill:url(#linear0);" d="M 51 6 L 23 6 C 20.242188 6 18 8.242188 18 11 L 18 28 L 20 28 L 20 11 C 20 9.347656 21.347656 8 23 8 L 51 8 C 52.652344 8 54 9.347656 54 11 L 54 53 C 54 54.652344 52.652344 56 51 56 L 23 56 C 21.347656 56 20 54.652344 20 53 L 20 36 L 18 36 L 18 53 C 18 55.757813 20.242188 58 23 58 L 51 58 C 53.757813 58 56 55.757813 56 53 L 56 11 C 56 8.242188 53.757813 6 51 6 Z "/>
<path style=" stroke:none;fill-rule:nonzero;fill:url(#linear1);" d="M 22 36 L 22 52 C 22 53.101563 22.898438 54 24 54 L 50 54 C 51.101563 54 52 53.101563 52 52 L 52 12 C 52 10.898438 51.101563 10 50 10 L 24 10 C 22.898438 10 22 10.898438 22 12 L 22 28 L 24 28 L 24 12 L 50 12 L 50 52 L 24 52 L 24 36 Z "/>
<path style=" stroke:none;fill-rule:nonzero;fill:url(#linear2);" d="M 42 38 C 42 39.652344 43.347656 41 45 41 C 46.652344 41 48 39.652344 48 38 C 48 36.699219 47.160156 35.597656 46 35.183594 L 46 30.816406 C 47.160156 30.402344 48 29.300781 48 28 C 48 26.347656 46.652344 25 45 25 C 43.347656 25 42 26.347656 42 28 C 42 29.300781 42.839844 30.402344 44 30.816406 L 44 35.183594 C 42.839844 35.597656 42 36.699219 42 38 Z M 45 39 C 44.449219 39 44 38.550781 44 38 C 44 37.449219 44.449219 37 45 37 C 45.550781 37 46 37.449219 46 38 C 46 38.550781 45.550781 39 45 39 Z M 45 27 C 45.550781 27 46 27.449219 46 28 C 46 28.550781 45.550781 29 45 29 C 44.449219 29 44 28.550781 44 28 C 44 27.449219 44.449219 27 45 27 Z "/>
<path style=" stroke:none;fill-rule:nonzero;fill:url(#linear3);" d="M 37.519531 31.179688 L 27.675781 25.167969 C 26.960938 24.730469 26 25.199219 26 25.988281 L 26 30 L 9 30 C 8.449219 30 8 30.449219 8 31 L 8 33 C 8 33.550781 8.449219 34 9 34 L 26 34 L 26 38.011719 C 26 38.800781 26.960938 39.269531 27.675781 38.832031 L 37.519531 32.820313 C 38.160156 32.429688 38.160156 31.570313 37.519531 31.179688 Z "/>
</g>
</svg>
