<svg width="339" height="367" viewBox="0 0 339 367" fill="none" xmlns="http://www.w3.org/2000/svg">
<g clip-path="url(#clip0_118_486)">
<mask id="mask0_118_486" style="mask-type:luminance" maskUnits="userSpaceOnUse" x="0" y="0" width="339" height="367">
<path d="M339 0H0V367H339V0Z" fill="white"/>
</mask>
<g mask="url(#mask0_118_486)">
<path d="M44.6933 310.359C-91.0148 372.897 115.523 371.753 281.455 362.083C325.812 359.499 320.168 344.644 298.55 338.376C284.645 334.344 257.862 337.671 252.6 330.445C250.979 328.218 250.594 325.38 255.396 324.038C258.029 323.302 261.483 323.227 264.713 323.24C295.246 323.366 316.744 289.163 234.56 289.208C212.003 289.22 189.753 282.587 167.669 278.956C151.207 276.249 134.943 272.965 117.212 272.179C111.636 271.931 105.467 272.007 101.147 273.414C95.7109 275.185 72.9328 273.294 56.8781 272.236C47.4931 271.618 81.1392 293.564 44.6933 310.359Z" fill="#C1F3F2"/>
<path d="M235.256 342.531H107.235C103.26 342.531 100.039 339.163 100.039 335.008V55.8241C100.039 51.669 103.26 48.3008 107.235 48.3008H235.257C239.231 48.3008 242.453 51.669 242.453 55.8241V335.009C242.452 339.163 239.231 342.531 235.256 342.531Z" fill="#AAC6EF"/>
<path d="M230.816 338.423H95.3972C93.4661 338.423 91.9006 336.787 91.9006 334.768V47.8504C91.9006 45.8313 93.4661 44.1943 95.3972 44.1943H230.816C232.747 44.1943 234.313 45.8313 234.313 47.8504V334.768C234.314 336.787 232.747 338.423 230.816 338.423Z" fill="#6B8C96"/>
<path d="M218.722 328.335H106.83C104.859 328.335 103.261 326.665 103.261 324.605V55.2127C103.261 53.1525 104.859 51.4819 106.83 51.4819H218.722C220.693 51.4819 222.291 53.1525 222.291 55.2127V324.605C222.29 326.666 220.693 328.335 218.722 328.335Z" fill="#9CC4F7"/>
<path d="M187.754 53.1751H138.451C137.083 53.1751 135.973 51.3005 135.973 48.9891C135.973 46.6773 135.973 44.8027 135.973 44.8027H190.232C190.232 44.8027 190.232 46.6773 190.232 48.9891C190.232 51.3005 189.122 53.1751 187.754 53.1751Z" fill="#6B8C96"/>
<path d="M162.299 196.847C139.589 196.847 118.952 205.108 103.592 218.576V318.116C103.592 322.596 107.066 326.228 111.351 326.228H214.863C219.148 326.228 222.622 322.596 222.622 318.116V220.017C207.11 205.695 185.812 196.847 162.299 196.847Z" fill="#6899F3"/>
<path d="M209.748 268.158H116.466V277H209.748V268.158Z" fill="#9CC4F7"/>
<path d="M209.748 299.937H116.466V308.78H209.748V299.937Z" fill="#9CC4F7"/>
<path d="M223.446 190.127H125.076C121.87 190.127 119.27 187.41 119.27 184.057V122.286C119.27 118.934 121.869 116.217 125.076 116.217H223.446C226.652 116.217 229.251 118.934 229.251 122.286V184.057C229.251 187.41 226.652 190.127 223.446 190.127Z" fill="#7E9FE4"/>
<path d="M223.859 134.017H123.048V199.874H223.859V134.017Z" fill="white"/>
<path d="M223.967 199.986H122.941V133.904H223.967V199.986ZM123.155 199.762H223.752V134.128H123.155V199.762Z" fill="#61ABEB"/>
<path d="M201.572 173.507H175.173C174.992 173.507 174.845 173.354 174.845 173.165V171.633C174.845 171.444 174.992 171.291 175.173 171.291H201.572C201.754 171.291 201.9 171.444 201.9 171.633V173.165C201.899 173.353 201.753 173.507 201.572 173.507Z" fill="#ADC6F2"/>
<path d="M171.701 151.171H145.301C145.12 151.171 144.974 151.018 144.974 150.829V149.297C144.974 149.107 145.12 148.954 145.301 148.954H171.701C171.882 148.954 172.029 149.107 172.029 149.297V150.829C172.028 151.017 171.882 151.171 171.701 151.171Z" fill="#ECEDEE"/>
<path d="M161.881 194.322H146.175C145.993 194.322 145.847 194.169 145.847 193.98V192.448C145.847 192.259 145.993 192.105 146.175 192.105H161.881C162.062 192.105 162.208 192.259 162.208 192.448V193.98C162.208 194.169 162.062 194.322 161.881 194.322Z" fill="#C08581"/>
<path d="M223.546 116.217H124.976C121.824 116.217 119.27 118.888 119.27 122.182V129.832H229.25V122.182C229.251 118.888 226.697 116.217 223.546 116.217Z" fill="#3F6DB0"/>
<path d="M223.131 125.535H206.914C206.512 125.535 206.186 125.195 206.186 124.774V121.367C206.186 120.948 206.512 120.607 206.914 120.607H223.131C223.533 120.607 223.859 120.948 223.859 121.367V124.774C223.859 125.195 223.534 125.535 223.131 125.535Z" fill="#80B3EE"/>
<path d="M162.077 139.374L159.764 137.622L162.063 135.578L162.341 135.919L160.456 137.594L162.327 139.012L162.077 139.374Z" fill="#80B3EE"/>
<path d="M184.831 139.374L184.579 139.012L186.451 137.594L184.567 135.919L184.845 135.578L187.143 137.622L184.831 139.374Z" fill="#80B3EE"/>
<path d="M98.1058 176.78C98.1058 176.78 102.439 177.293 103.704 174.633C104.968 171.971 102.811 168.437 102.811 168.437L98.0127 169.601C98.0127 169.601 96.3445 175.424 98.1058 176.78Z" fill="#D17975"/>
<path d="M94.8802 160.774C99.181 163.149 111.735 238.75 114.053 250.644C116.37 262.539 129.011 329.941 129.011 329.941L111.946 331.263C111.946 331.263 92.7735 272.891 88.3491 263.64C83.9244 254.389 61.5572 185.385 63.7875 169.665C63.7875 169.665 83.7135 154.607 94.8802 160.774Z" fill="#262673"/>
<path d="M82.8007 165.474C82.8007 165.474 82.3973 246.72 79.1572 258.08C75.9175 269.441 68.226 332.955 68.226 332.955H50.0744L44.7725 160.981C44.7725 160.981 80.9509 152.619 82.8007 165.474Z" fill="#2D2D85"/>
<path d="M68.1815 104.252C66.8835 101.784 67.6613 98.6646 69.9326 97.1498C72.6838 95.3156 74.3528 95.084 80.6149 95.084C96.7826 95.084 98.4267 106.79 100.307 117.734C103.007 133.456 108.425 170.919 106.866 176.821L98.0128 169.602C88.3219 169.602 79.7855 126.316 68.1815 104.252Z" fill="#F7F9FF"/>
<path d="M103.31 185.764C103.31 185.764 107.671 185.645 108.57 182.827C109.47 180.009 106.865 176.82 106.865 176.82L102.266 178.669C102.266 178.669 101.387 184.677 103.31 185.764Z" fill="#D17975"/>
<path d="M79.1581 94.8894C79.1581 94.8894 93.2895 105.076 95.4595 113.772C97.6294 122.467 98.228 160.843 98.228 160.843C98.228 160.843 68.6476 182.261 43.4798 160.448C43.4798 160.448 43.2584 160.061 43.872 156.824C44.7526 152.176 45.9591 124.461 46.3339 118.597C46.3824 117.835 44.2788 117.68 44.6279 117.009C47.0977 112.258 54.4024 93.0031 79.1581 94.8894Z" fill="#8ACBC9"/>
<path d="M68.9561 95.3862L67.9786 106.898L75.9349 112.107L79.9536 129.679L73.9541 232.289L40.2175 220.534L43.4791 160.448L46.4408 113.456C46.4408 113.456 52.5304 96.97 68.9561 95.3862Z" fill="#F7F9FF"/>
<path d="M95.3765 126.82C95.3686 126.694 95.3637 126.58 95.3585 126.468L94.5562 111.31C96.5996 114.622 96.7887 124.345 96.8689 125.648C97.336 132.164 97.6584 139.964 97.8708 146.565C97.8682 146.546 95.6877 131.73 95.3792 126.845L95.3784 126.846L95.3765 126.82Z" fill="#383BA4"/>
<path d="M82.6961 80.9621C82.6961 80.9621 82.2648 83.7785 82.6961 84.792C83.1274 85.8059 82.3337 91.5956 81.3171 92.7197C80.7962 93.2945 78.4639 93.1376 76.4167 90.8843C74.3695 88.631 74.507 83.8913 74.507 83.8913C74.507 83.8913 74.0757 78.8219 82.6961 80.9621Z" fill="#D17975"/>
<path d="M82.0617 99.0404C81.9939 96.3217 80.0093 81.799 80.0093 81.799C80.0093 81.799 77.0084 83.0659 75.1665 84.6871C75.1081 84.2545 74.948 83.6955 74.6188 82.952C74.6188 82.952 73.8512 81.5123 73.1664 81.799C72.4827 82.0853 71.798 83.23 73.1664 84.5177L74.0218 86.0378C73.9009 86.2637 73.818 86.4915 73.7822 86.7194C73.7822 86.7194 72.0032 98.3966 71.4556 99.4693C71.4556 99.4693 76.0098 105.908 78.6589 105.407C81.3092 104.906 82.1307 101.758 82.0617 99.0404Z" fill="#D17975"/>
<path d="M81.8989 96.9456C81.7848 95.7997 81.6198 94.36 81.4345 92.8245C81.3603 92.757 81.3158 92.7197 81.3158 92.7197C81.3158 92.7197 78.353 94.9254 76.4158 90.8843C76.4158 90.8843 78.0961 97.4148 81.8989 96.9456Z" fill="#AB6360"/>
<path d="M65.161 120.352L57.1342 140.901C57.1342 140.901 58.7641 142.974 70.1458 145.991L50.9663 144.169L65.161 120.352Z" fill="#DDE2EE"/>
<path d="M54.2317 102.794C56.1184 100.783 62.0023 102.099 63.7463 104.245C65.859 106.844 67.7808 111.127 66.0993 117.433C63.7934 126.084 54.2385 142.233 54.2385 142.233C54.2385 142.233 62.3534 160.782 41.7365 157.066C38.6953 156.518 36.4999 153.719 36.513 150.492C36.5539 140.362 40.0412 117.917 54.2317 102.794Z" fill="#F7F9FF"/>
<path d="M123.904 330.369C123.904 330.369 133.972 338.63 137.516 339.266C138.133 339.376 138.658 340.002 138.704 340.794C138.748 341.579 138.397 342.466 136.816 342.872C134.487 343.468 124.133 342.436 118.833 341.851C117.026 341.651 115.654 340.094 115.608 338.196C115.584 337.175 115.556 336.002 115.525 334.806C115.482 333.139 116.06 330.956 116.06 330.956L123.904 330.369Z" fill="#422E2D"/>
<path d="M55.2186 332.955C55.2186 332.955 46.6762 343.184 43.3404 344.334C42.7592 344.535 42.3366 345.231 42.3995 346.021C42.462 346.805 42.9204 347.631 44.5006 347.801C46.8223 348.049 56.6315 345.519 61.6818 344.158C63.4243 343.688 64.5584 341.956 64.3475 340.087C64.2326 339.066 64.1012 337.888 63.9686 336.686C63.7855 335.029 62.9346 332.954 62.9346 332.954L55.2186 332.955Z" fill="#422E2D"/>
<path d="M82.5148 82.8711C81.4779 80.4356 76.9549 82.079 76.7903 82.171C76.3669 82.4086 76.0874 82.9024 76.0916 83.4048C76.0942 83.7084 76.1917 84.0015 76.2136 84.304C76.2486 84.7721 76.0927 85.2522 75.7936 85.6026C75.8215 85.0546 74.8241 82.9367 74.2048 84.6883C74.041 85.1526 74.4783 85.64 74.5246 86.1329C74.609 87.0254 74.1517 87.8733 73.6402 88.5948C73.0775 88.0445 72.8579 87.2068 72.8074 86.4023C72.7106 84.8705 72.2149 85.9323 72.0284 84.4096C71.7874 82.4441 71.6235 79.178 74.5028 77.727C85.3365 72.2643 82.5148 82.8711 82.5148 82.8711Z" fill="#422E2D"/>
<path d="M79.2208 237.72L79.2201 237.719C79.2235 237.711 79.2261 237.704 79.2295 237.697C79.3835 237.324 79.5361 236.975 79.6905 236.637C79.7139 236.585 79.7372 236.529 79.761 236.478C79.909 236.155 80.0536 235.854 80.1964 235.564C80.2254 235.504 80.254 235.444 80.2826 235.387C80.416 235.121 80.5433 234.876 80.668 234.641C80.7072 234.568 80.7452 234.495 80.7836 234.423C80.8925 234.222 80.9946 234.039 81.094 233.865C81.1471 233.772 81.1957 233.687 81.2454 233.602C81.2812 233.541 81.3238 233.464 81.3577 233.406V233.413C81.7822 232.697 82.0662 232.289 82.0662 232.289L91.29 270.942H91.2888C90.0466 267.621 89.024 265.053 88.3478 263.64C87.0457 260.917 84.1872 253.008 80.8605 242.813C80.4047 250.088 79.8453 255.666 79.1564 258.08C78.0065 262.113 76.2938 272.733 74.5645 284.741L74.5637 284.742C74.5637 284.742 78.5029 239.457 79.2208 237.72Z" fill="#422E2D"/>
<path d="M78.8054 149.315C68.4464 148.419 53.4426 144.167 53.4426 144.167L43.7822 155.628L43.5276 159.661C55.3711 162.246 69.6837 159.031 78.3907 156.401L78.8054 149.315Z" fill="#DDE2EE"/>
<path d="M81.6628 94.7598L81.9649 97.6407L88.6101 104.654L85.9011 110.065L85.2834 128.937L96.2127 231.035L115.989 223.297L98.5443 142.233L95.7679 102.232C95.7679 102.232 93.0487 93.8945 81.6628 94.7598Z" fill="#F7F9FF"/>
<path d="M96.739 116.224L99.5139 142.233L100.699 152.829L97.8709 140.67L96.739 116.224Z" fill="#DDE2EE"/>
<path d="M72.8831 116.39L71.8439 116.564L69.2166 103.152C68.9831 101.625 69.003 100.126 69.2757 98.7007C69.7549 96.2079 70.6453 94.9047 71.451 94.133C72.0103 93.5985 72.7019 93.4092 72.7019 93.4092L72.4424 94.9047C72.0748 95.145 70.8325 96.1879 70.3082 98.9176C70.0581 100.214 70.0415 101.582 70.2551 102.979L72.8831 116.39Z" fill="black"/>
<path d="M68.956 95.3862L77.3775 108.476L79.9535 129.679L75.9348 112.107L67.9785 106.898L68.956 95.3862Z" fill="#C1F3F2"/>
<path d="M88.4394 108.085C87.0213 95.9592 81.7882 95.163 81.7298 95.1596L81.5984 94.0303C81.87 94.0457 87.9019 94.8216 89.424 107.837L88.4394 108.085Z" fill="#272425"/>
<path d="M81.6628 102.286L84.2264 107.049L85.2826 128.938L85.9 110.067L88.6093 104.655L81.9642 97.6416C81.9649 97.6397 81.9615 99.8711 81.6628 102.286Z" fill="#C1F3F2"/>
<path d="M72.4432 94.9033C72.4432 94.9033 72.0511 99.2805 71.5068 99.3492L68.9568 95.3854C68.9568 95.3854 70.384 94.9071 72.4432 94.9033Z" fill="#B0F0EE"/>
<path d="M93.4627 112.455L92.5383 112.526C92.3685 110.116 90.8057 108.267 89.0538 108.403C87.3019 108.537 86.016 110.608 86.1859 113.015L85.2615 113.087C85.0543 110.146 86.7241 107.61 88.9849 107.436C91.2464 107.262 93.2544 109.514 93.4627 112.455Z" fill="black"/>
<path d="M88.76 120.751L86.813 120.637C86.5456 120.651 85.9708 120.445 85.9079 119.562L85.4438 112.985L85.99 112.943L86.4541 119.521C86.4899 120.025 86.7433 120.065 86.8209 120.064L88.7898 120.178L88.76 120.751Z" fill="#E0E0E0"/>
<path d="M89.5675 121.088L88.2111 121.193C88.1004 121.201 88.0039 121.114 87.9953 120.998L87.929 120.057C87.9211 119.941 88.0039 119.84 88.1154 119.831L89.4718 119.726C89.5826 119.718 89.679 119.805 89.6876 119.921L89.7539 120.862C89.7618 120.978 89.679 121.079 89.5675 121.088Z" fill="#3C2820"/>
<path d="M91.0775 120.572L92.9869 120.162C93.2535 120.134 93.7937 119.843 93.7308 118.96L93.2667 112.382L92.7206 112.424L93.1846 119.001C93.2204 119.506 92.9748 119.584 92.898 119.595L90.9668 120.01L91.0775 120.572Z" fill="#E0E0E0"/>
<path d="M90.3257 121.03L91.6821 120.925C91.7925 120.917 91.8761 120.816 91.8686 120.699L91.8023 119.759C91.7944 119.643 91.6976 119.555 91.5861 119.564L90.2297 119.668C90.119 119.676 90.0353 119.777 90.0432 119.894L90.1095 120.835C90.1174 120.95 90.2142 121.038 90.3257 121.03Z" fill="#3C2820"/>
<path d="M72.7026 120.572C73.8213 120.572 74.7283 119.625 74.7283 118.455C74.7283 117.285 73.8213 116.337 72.7026 116.337C71.5843 116.337 70.6772 117.285 70.6772 118.455C70.6772 119.625 71.5843 120.572 72.7026 120.572Z" fill="black"/>
<path d="M72.7031 119.855C73.4425 119.855 74.0421 119.228 74.0421 118.455C74.0421 117.682 73.4425 117.055 72.7031 117.055C71.9633 117.055 71.364 117.682 71.364 118.455C71.364 119.228 71.9633 119.855 72.7031 119.855Z" fill="#3C2820"/>
<path d="M71.8318 133.051L91.8851 131.73L90.093 157.683L75.771 158.688L71.8318 133.051Z" fill="#262673"/>
<path d="M86.6737 151.911C86.6737 151.911 84.7007 147.213 85.002 146.706C85.3033 146.2 87.4187 141.458 89.2131 141.021C91.0076 140.584 93.0793 143.635 93.0793 143.635C93.0793 143.635 92.9828 147.918 91.4957 150.626L86.6737 151.911Z" fill="#D17975"/>
<path d="M74.9897 131.472L78.5624 131.122L78.8133 138.569L75.8259 138.87L74.9897 131.472Z" fill="#EAAC3E"/>
<path d="M54.2385 142.233C54.2385 142.233 73.0365 149.329 85.0013 146.705L87.1182 151.735C87.1182 151.735 60.3488 162.731 41.7358 157.066L54.2385 142.233Z" fill="#F7F9FF"/>
<path d="M78.6602 105.407L84.2269 107.048L81.6629 102.285C81.6629 102.285 80.8787 104.867 78.6602 105.407Z" fill="#7BB3B1"/>
<path d="M77.5028 86.549C77.7458 86.8341 78.1578 86.9609 78.7285 86.9269C78.7285 86.9269 78.759 86.9281 78.8095 86.925C79.0848 86.9088 79.9734 86.7757 80.0476 85.7546L80.0118 85.0799C80.0754 85.0618 80.5839 85.0335 80.6495 85.0437L80.6853 85.7018C80.8698 86.721 81.7671 86.7523 82.0496 86.7349C82.1358 86.7304 82.1358 86.7259 82.1373 86.7259C82.6959 86.6931 83.0914 86.5188 83.3012 86.2084C83.5479 85.844 83.4391 85.4359 83.4338 85.4186L83.3935 84.6235L83.3072 84.6046C81.9188 84.3048 80.935 84.7264 80.7478 84.8177C80.6766 84.8011 79.9594 84.8441 79.8897 84.8686C79.6965 84.8011 78.6735 84.4952 77.3224 84.9569L77.2388 84.9859L77.2832 85.8086C77.2817 85.8067 77.2214 86.2201 77.5028 86.549ZM80.9124 85.6709L80.8785 85.0188C81.1207 84.9124 81.9998 84.5892 83.1758 84.8204L83.2097 85.4589C83.215 85.4887 83.2971 85.8041 83.1133 86.0719C82.9441 86.3185 82.607 86.4589 82.1113 86.4879C82.0624 86.4962 81.0887 86.6339 80.9124 85.6709ZM77.5122 85.8195L77.4783 85.1546C78.6223 84.7902 79.53 85.0071 79.7828 85.0818L79.8182 85.7513C79.747 86.7176 78.7662 86.6855 78.7258 86.6874C78.2189 86.7165 77.8686 86.6173 77.6753 86.3913C77.4644 86.1465 77.5115 85.8222 77.5122 85.8195Z" fill="#5D5B5E"/>
<path d="M47.9278 186.544L47.3538 191.702L69.0919 196.518L69.6453 190.965L47.9278 186.544Z" fill="#8ACBC9"/>
<path d="M94.7068 189.562L105.412 183.135L106.298 187.926L95.2842 193.544L94.7068 189.562Z" fill="#8ACBC9"/>
<path d="M209.748 236.378H116.466V245.221H209.748V236.378Z" fill="#9CC4F7"/>
<path d="M216.162 54.0361H202.927V59.4846H216.162V54.0361Z" fill="#9CC4F7"/>
<path d="M216.162 58.4692H202.927V59.485H216.162V58.4692Z" fill="#8DB1DF"/>
<path d="M216.162 54.0361H202.927V55.0515H216.162V54.0361Z" fill="#8DB1DF"/>
<path d="M205.178 54.0361H202.927V59.4846H205.178V54.0361Z" fill="#6B8C96"/>
<path d="M210.67 54.0361H208.418V59.4846H210.67V54.0361Z" fill="#6B8C96"/>
<path d="M216.161 54.0361H213.911V59.4846H216.161V54.0361Z" fill="#6B8C96"/>
<path d="M216.905 55.6147H216.161V58.1219H216.905V55.6147Z" fill="#6B8C96"/>
<path d="M3.19194 19.7832H49.6718C51.4353 19.7832 52.864 21.2778 52.864 23.1204V86.5643C52.864 88.0482 51.1879 88.8369 50.1257 87.8524L38.1684 76.767C36.9765 75.6622 35.438 75.0519 33.8447 75.0519H3.19194C1.42871 75.0519 0 73.5575 0 71.715V23.1204C0 21.2769 1.42958 19.7832 3.19194 19.7832Z" fill="#8DB1DF"/>
<path d="M6.21143 32.6846V33.6746H44.0095V32.6846H6.21143ZM44.0095 39.4555H6.21143V40.4452H44.0095V39.4555ZM44.0095 46.2252H6.21143V47.2153H44.0095V46.2252ZM44.0095 52.996H6.21143V53.9861H44.0095V52.996ZM44.0095 59.7669H25.1104V60.757H44.0095V59.7669Z" fill="white"/>
<path d="M301.569 166.392H255.09C253.327 166.392 251.898 167.886 251.898 169.729V233.173C251.898 234.657 253.574 235.446 254.636 234.461L266.594 223.376C267.786 222.271 269.324 221.661 270.917 221.661H301.57C303.333 221.661 304.762 220.166 304.762 218.324V169.729C304.762 167.886 303.333 166.392 301.569 166.392Z" fill="#8DB1DF"/>
<path d="M260.753 179.294V180.285H298.551V179.294H260.753ZM260.753 187.054H298.551V186.064H260.753V187.054ZM260.753 193.825H298.551V192.835H260.753V193.825ZM260.753 200.596H298.551V199.606H260.753V200.596ZM260.753 207.366H279.652V206.376H260.753V207.366Z" fill="white"/>
<path d="M44.6933 310.359C-91.0148 372.897 115.523 371.753 281.455 362.083C325.812 359.499 320.168 344.644 298.55 338.376C284.645 334.344 257.862 337.671 252.6 330.445C250.979 328.218 250.594 325.38 255.396 324.038C258.029 323.302 261.483 323.227 264.713 323.24C295.246 323.366 316.744 289.163 234.56 289.208C212.003 289.22 189.753 282.587 167.669 278.956C151.207 276.249 134.943 272.965 117.212 272.179C111.636 271.931 105.467 272.007 101.147 273.414C95.7109 275.185 72.9328 273.294 56.8781 272.236C47.4931 271.618 81.1392 293.564 44.6933 310.359Z" fill="#7484BE"/>
<path d="M235.256 342.531H107.235C103.26 342.531 100.039 339.163 100.039 335.008V55.8241C100.039 51.669 103.26 48.3008 107.235 48.3008H235.257C239.231 48.3008 242.453 51.669 242.453 55.8241V335.009C242.452 339.163 239.231 342.531 235.256 342.531Z" fill="#4D7292"/>
<path d="M230.816 338.423H95.3972C93.4661 338.423 91.9006 336.787 91.9006 334.768V47.8504C91.9006 45.8313 93.4661 44.1943 95.3972 44.1943H230.816C232.747 44.1943 234.313 45.8313 234.313 47.8504V334.768C234.314 336.787 232.747 338.423 230.816 338.423Z" fill="#6B8C96"/>
<path d="M218.722 328.335H106.83C104.859 328.335 103.261 326.665 103.261 324.605V55.2127C103.261 53.1525 104.859 51.4819 106.83 51.4819H218.722C220.693 51.4819 222.291 53.1525 222.291 55.2127V324.605C222.29 326.666 220.693 328.335 218.722 328.335Z" fill="#B5D0F2"/>
<path d="M187.754 53.1751H138.451C137.083 53.1751 135.973 51.3005 135.973 48.9891C135.973 46.6773 135.973 44.8027 135.973 44.8027H190.232C190.232 44.8027 190.232 46.6773 190.232 48.9891C190.232 51.3005 189.122 53.1751 187.754 53.1751Z" fill="#6B8C96"/>
<path d="M162.299 196.847C139.589 196.847 118.952 205.108 103.592 218.576V318.116C103.592 322.596 107.066 326.228 111.351 326.228H214.863C219.148 326.228 222.622 322.596 222.622 318.116V220.017C207.11 205.695 185.812 196.847 162.299 196.847Z" fill="#6899F3"/>
<path d="M209.748 268.158H116.466V277H209.748V268.158Z" fill="#9CC4F7"/>
<path d="M209.748 299.937H116.466V308.78H209.748V299.937Z" fill="#9CC4F7"/>
<path d="M223.446 190.127H125.076C121.87 190.127 119.27 187.41 119.27 184.057V122.286C119.27 118.934 121.869 116.217 125.076 116.217H223.446C226.652 116.217 229.251 118.934 229.251 122.286V184.057C229.251 187.41 226.652 190.127 223.446 190.127Z" fill="#7E9FE4"/>
<path d="M223.859 134.017H123.048V199.874H223.859V134.017Z" fill="white"/>
<path d="M223.967 199.986H122.941V133.904H223.967V199.986ZM123.155 199.762H223.752V134.128H123.155V199.762Z" fill="#61ABEB"/>
<path d="M119.398 134.382H122.745C122.783 134.382 122.815 134.323 122.815 134.251V133.663C122.815 133.591 122.783 133.532 122.745 133.532H119.398C119.359 133.532 119.328 133.591 119.328 133.663V134.251C119.328 134.323 119.359 134.382 119.398 134.382Z" fill="#353535"/>
<path d="M201.573 175.13H175.173C174.992 175.13 174.845 174.967 174.845 174.765V173.131C174.845 172.93 174.992 172.767 175.173 172.767H201.573C201.754 172.767 201.9 172.93 201.9 173.131V174.765C201.899 174.966 201.753 175.13 201.573 175.13Z" fill="#ADC6F2"/>
<path d="M171.701 151.318H145.302C145.121 151.318 144.974 151.155 144.974 150.952V149.319C144.974 149.117 145.121 148.954 145.302 148.954H171.701C171.882 148.954 172.029 149.117 172.029 149.319V150.952C172.028 151.153 171.882 151.318 171.701 151.318Z" fill="#ECEDEE"/>
<path d="M161.881 197.321H146.175C145.993 197.321 145.847 197.158 145.847 196.956V195.323C145.847 195.12 145.993 194.958 146.175 194.958H161.881C162.062 194.958 162.209 195.12 162.209 195.323V196.956C162.209 197.158 162.062 197.321 161.881 197.321Z" fill="#C08581"/>
<path d="M223.546 116.217H124.976C121.824 116.217 119.27 118.888 119.27 122.182V129.832H229.25V122.182C229.251 118.888 226.697 116.217 223.546 116.217Z" fill="#3F6DB0"/>
<path d="M141.314 123.541V126.185H140.637V119.19H142.225C142.843 119.19 143.322 119.372 143.662 119.736C144.002 120.1 144.172 120.615 144.172 121.278C144.172 121.942 143.983 122.485 143.606 122.907C143.228 123.33 142.718 123.542 142.076 123.542L141.314 123.541ZM141.314 119.931V122.8H142.024C142.491 122.8 142.848 122.671 143.094 122.412C143.34 122.153 143.463 121.788 143.463 121.317C143.463 120.394 143.011 119.931 142.108 119.931H141.314Z" fill="white"/>
<path d="M150.206 126.185H149.4L148.432 124.224C148.343 124.042 148.258 123.887 148.174 123.758C148.091 123.63 148.006 123.525 147.918 123.444C147.831 123.362 147.737 123.303 147.636 123.266C147.536 123.228 147.422 123.21 147.296 123.21H146.739V126.185H146.062V119.19H147.788C148.04 119.19 148.273 119.228 148.487 119.305C148.701 119.381 148.886 119.497 149.043 119.653C149.2 119.809 149.324 120.004 149.412 120.236C149.501 120.469 149.545 120.741 149.545 121.053C149.545 121.297 149.515 121.521 149.454 121.724C149.394 121.927 149.308 122.109 149.196 122.268C149.085 122.427 148.95 122.563 148.793 122.675C148.636 122.787 148.459 122.874 148.263 122.936V122.955C148.36 123.008 148.444 123.067 148.515 123.134C148.586 123.2 148.654 123.279 148.719 123.37C148.783 123.462 148.847 123.565 148.91 123.68C148.973 123.795 149.044 123.93 149.122 124.082L150.206 126.185ZM146.739 119.931V122.468H147.658C147.827 122.468 147.984 122.437 148.128 122.376C148.272 122.314 148.396 122.225 148.501 122.11C148.606 121.994 148.687 121.853 148.747 121.685C148.806 121.518 148.835 121.33 148.835 121.122C148.835 120.748 148.735 120.456 148.535 120.246C148.335 120.037 148.045 119.931 147.666 119.931H146.739Z" fill="white"/>
<path d="M154.865 126.185H151.801V119.19H154.736V119.931H152.478V122.258H154.566V122.995H152.478V125.443H154.865V126.185Z" fill="white"/>
<path d="M156.508 125.902V124.936C156.6 125.034 156.709 125.122 156.837 125.2C156.965 125.278 157.099 125.344 157.24 125.397C157.381 125.451 157.523 125.492 157.666 125.522C157.808 125.551 157.939 125.566 158.061 125.566C158.477 125.566 158.788 125.472 158.994 125.285C159.199 125.098 159.302 124.829 159.302 124.478C159.302 124.29 159.268 124.125 159.199 123.985C159.131 123.846 159.036 123.718 158.915 123.602C158.794 123.487 158.651 123.376 158.486 123.271C158.321 123.165 158.142 123.054 157.952 122.937C157.75 122.813 157.562 122.688 157.387 122.561C157.212 122.434 157.061 122.294 156.932 122.141C156.803 121.988 156.701 121.815 156.627 121.622C156.553 121.428 156.516 121.202 156.516 120.941C156.516 120.623 156.574 120.345 156.69 120.11C156.805 119.874 156.957 119.68 157.145 119.527C157.333 119.374 157.548 119.26 157.788 119.185C158.029 119.11 158.274 119.073 158.524 119.073C159.094 119.073 159.509 119.156 159.77 119.322V120.244C159.428 119.958 158.99 119.814 158.455 119.814C158.308 119.814 158.16 119.833 158.012 119.87C157.864 119.908 157.733 119.969 157.617 120.053C157.502 120.138 157.408 120.247 157.335 120.38C157.262 120.514 157.226 120.676 157.226 120.868C157.226 121.047 157.253 121.202 157.309 121.331C157.364 121.461 157.445 121.58 157.553 121.687C157.66 121.795 157.791 121.899 157.946 122C158.1 122.1 158.278 122.211 158.48 122.332C158.687 122.455 158.883 122.585 159.069 122.722C159.254 122.859 159.417 123.01 159.556 123.175C159.696 123.341 159.807 123.525 159.889 123.727C159.971 123.928 160.012 124.159 160.012 124.419C160.012 124.764 159.956 125.056 159.845 125.295C159.733 125.534 159.582 125.729 159.393 125.878C159.204 126.028 158.985 126.136 158.738 126.202C158.49 126.269 158.23 126.302 157.956 126.302C157.864 126.302 157.751 126.294 157.617 126.275C157.483 126.258 157.346 126.232 157.206 126.197C157.066 126.163 156.934 126.121 156.809 126.071C156.684 126.02 156.583 125.964 156.508 125.902Z" fill="white"/>
<path d="M165.9 125.893C165.473 126.166 164.941 126.302 164.304 126.302C163.481 126.302 162.823 125.982 162.328 125.342C161.834 124.701 161.587 123.86 161.587 122.819C161.587 121.701 161.865 120.797 162.421 120.107C162.977 119.418 163.683 119.073 164.537 119.073C165.086 119.073 165.54 119.169 165.9 119.361V120.234C165.486 119.955 165.029 119.815 164.53 119.815C163.865 119.815 163.328 120.083 162.915 120.62C162.502 121.156 162.296 121.873 162.296 122.771C162.296 123.623 162.489 124.302 162.874 124.808C163.26 125.313 163.766 125.566 164.392 125.566C164.973 125.566 165.475 125.41 165.9 125.098L165.9 125.893Z" fill="white"/>
<path d="M172.022 126.185H171.216L170.248 124.224C170.16 124.042 170.074 123.887 169.99 123.758C169.907 123.63 169.822 123.525 169.734 123.444C169.647 123.362 169.553 123.303 169.453 123.266C169.352 123.228 169.238 123.21 169.112 123.21H168.555V126.185H167.878V119.19H169.604C169.856 119.19 170.089 119.228 170.303 119.305C170.517 119.381 170.702 119.497 170.859 119.653C171.016 119.809 171.139 120.004 171.228 120.236C171.317 120.469 171.361 120.741 171.361 121.053C171.361 121.297 171.331 121.521 171.27 121.724C171.21 121.927 171.124 122.109 171.012 122.268C170.901 122.427 170.767 122.563 170.609 122.675C170.452 122.787 170.275 122.874 170.079 122.936V122.955C170.176 123.008 170.26 123.067 170.331 123.134C170.402 123.2 170.47 123.279 170.535 123.37C170.599 123.462 170.663 123.565 170.726 123.68C170.789 123.795 170.86 123.93 170.938 124.082L172.022 126.185ZM168.555 119.931V122.468H169.474C169.644 122.468 169.8 122.437 169.944 122.376C170.088 122.314 170.212 122.225 170.317 122.11C170.422 121.994 170.503 121.853 170.563 121.685C170.622 121.518 170.651 121.33 170.651 121.122C170.651 120.748 170.551 120.456 170.351 120.246C170.151 120.037 169.861 119.931 169.482 119.931H168.555Z" fill="white"/>
<path d="M174.859 119.19V119.893H174.295V125.483H174.859V126.185H173.053V125.483H173.617V119.893H173.053V119.19H174.859Z" fill="white"/>
<path d="M177.292 123.541V126.185H176.615V119.19H178.204C178.822 119.19 179.301 119.372 179.641 119.736C179.981 120.1 180.151 120.615 180.151 121.278C180.151 121.942 179.962 122.485 179.584 122.907C179.207 123.33 178.697 123.542 178.054 123.542L177.292 123.541ZM177.292 119.931V122.8H178.002C178.47 122.8 178.827 122.671 179.073 122.412C179.318 122.153 179.441 121.788 179.441 121.317C179.441 120.394 178.99 119.931 178.087 119.931H177.292Z" fill="white"/>
<path d="M185.459 119.931H183.79V126.185H183.112V119.931H181.448V119.19H185.459V119.931Z" fill="white"/>
<path d="M188.408 119.19V119.893H187.844V125.483H188.408V126.185H186.603V125.483H187.167V119.893H186.603V119.19H188.408Z" fill="white"/>
<path d="M192.495 126.302C191.675 126.302 191.019 125.976 190.526 125.322C190.032 124.668 189.785 123.818 189.785 122.771C189.785 121.646 190.037 120.748 190.539 120.078C191.042 119.408 191.726 119.073 192.592 119.073C193.39 119.073 194.033 119.398 194.52 120.049C195.008 120.699 195.252 121.55 195.252 122.6C195.252 123.741 195.002 124.644 194.502 125.307C194.003 125.971 193.333 126.302 192.495 126.302ZM192.543 119.815C191.936 119.815 191.442 120.08 191.063 120.61C190.685 121.14 190.495 121.836 190.495 122.697C190.495 123.559 190.68 124.253 191.049 124.778C191.419 125.303 191.901 125.566 192.495 125.566C193.129 125.566 193.629 125.316 193.994 124.815C194.36 124.314 194.543 123.613 194.543 122.712C194.543 121.789 194.365 121.075 194.01 120.571C193.656 120.067 193.166 119.815 192.543 119.815Z" fill="white"/>
<path d="M201.85 126.185H201.02L198.045 120.61C197.969 120.47 197.908 120.323 197.859 120.171H197.835C197.857 120.32 197.868 120.641 197.868 121.132V126.185H197.19V119.19H198.069L200.963 124.678C201.084 124.906 201.162 125.062 201.197 125.146H201.213C201.186 124.945 201.173 124.601 201.173 124.117V119.19H201.85V126.185Z" fill="white"/>
<path d="M137.956 123.326H139.443C139.46 123.326 139.474 123.267 139.474 123.194V122.606C139.474 122.534 139.46 122.475 139.443 122.475H137.956C137.938 122.475 137.924 122.534 137.924 122.606V123.194C137.924 123.267 137.938 123.326 137.956 123.326Z" fill="white"/>
<path d="M223.131 125.535H206.914C206.512 125.535 206.186 125.195 206.186 124.774V121.367C206.186 120.948 206.512 120.607 206.914 120.607H223.131C223.533 120.607 223.859 120.948 223.859 121.367V124.774C223.859 125.195 223.534 125.535 223.131 125.535Z" fill="#80B3EE"/>
<path d="M162.077 139.374L159.764 137.622L162.063 135.578L162.341 135.919L160.456 137.594L162.327 139.012L162.077 139.374Z" fill="#80B3EE"/>
<path d="M184.831 139.374L184.579 139.012L186.451 137.594L184.567 135.919L184.845 135.578L187.143 137.622L184.831 139.374Z" fill="#80B3EE"/>
<path d="M98.1058 176.78C98.1058 176.78 102.439 177.293 103.704 174.633C104.968 171.971 102.811 168.437 102.811 168.437L98.0127 169.601C98.0127 169.601 96.3445 175.424 98.1058 176.78Z" fill="#D17975"/>
<path d="M94.8802 160.774C99.181 163.149 111.735 238.75 114.053 250.644C116.37 262.539 129.011 329.941 129.011 329.941L111.946 331.263C111.946 331.263 92.7735 272.891 88.3491 263.64C83.9244 254.389 61.5572 185.385 63.7875 169.665C63.7875 169.665 83.7135 154.607 94.8802 160.774Z" fill="#07C5E3"/>
<path d="M82.8007 165.474C82.8007 165.474 82.3973 246.72 79.1572 258.08C75.9175 269.441 68.226 332.955 68.226 332.955H50.0744L44.7725 160.981C44.7725 160.981 80.9509 152.619 82.8007 165.474Z" fill="#07C5E3"/>
<path d="M68.1815 104.252C66.8835 101.784 67.6613 98.6646 69.9326 97.1498C72.6838 95.3156 74.3528 95.084 80.6149 95.084C96.7826 95.084 98.4267 106.79 100.307 117.734C103.007 133.456 108.425 170.919 106.866 176.821L98.0128 169.602C88.3219 169.602 79.7855 126.316 68.1815 104.252Z" fill="#F7F9FF"/>
<path d="M103.31 185.764C103.31 185.764 107.671 185.645 108.57 182.827C109.47 180.009 106.865 176.82 106.865 176.82L102.266 178.669C102.266 178.669 101.387 184.677 103.31 185.764Z" fill="#D17975"/>
<path d="M79.1581 94.8894C79.1581 94.8894 93.2895 105.076 95.4595 113.772C97.6294 122.467 98.228 160.843 98.228 160.843C98.228 160.843 68.6476 182.261 43.4798 160.448C43.4798 160.448 43.2584 160.061 43.872 156.824C44.7526 152.176 45.9591 124.461 46.3339 118.597C46.3824 117.835 44.2788 117.68 44.6279 117.009C47.0977 112.258 54.4024 93.0031 79.1581 94.8894Z" fill="#8ACBC9"/>
<path d="M68.9561 95.3862L67.9786 106.898L75.9349 112.107L79.9536 129.679L73.9541 232.289L40.2175 220.534L43.4791 160.448L46.4408 113.456C46.4408 113.456 52.5304 96.97 68.9561 95.3862Z" fill="#F7F9FF"/>
<path d="M95.3765 126.82C95.3686 126.694 95.3637 126.58 95.3585 126.468L94.5562 111.31C96.5996 114.622 96.7887 124.345 96.8689 125.648C97.336 132.164 97.6584 139.964 97.8708 146.565C97.8682 146.546 95.6877 131.73 95.3792 126.845L95.3784 126.846L95.3765 126.82Z" fill="#383BA4"/>
<path d="M82.6961 80.9621C82.6961 80.9621 82.2648 83.7785 82.6961 84.792C83.1274 85.8059 82.3337 91.5956 81.3171 92.7197C80.7962 93.2945 78.4639 93.1376 76.4167 90.8843C74.3695 88.631 74.507 83.8913 74.507 83.8913C74.507 83.8913 74.0757 78.8219 82.6961 80.9621Z" fill="#D17975"/>
<path d="M82.0617 99.0404C81.9939 96.3217 80.0093 81.799 80.0093 81.799C80.0093 81.799 77.0084 83.0659 75.1665 84.6871C75.1081 84.2545 74.948 83.6955 74.6188 82.952C74.6188 82.952 73.8512 81.5123 73.1664 81.799C72.4827 82.0853 71.798 83.23 73.1664 84.5177L74.0218 86.0378C73.9009 86.2637 73.818 86.4915 73.7822 86.7194C73.7822 86.7194 72.0032 98.3966 71.4556 99.4693C71.4556 99.4693 76.0098 105.908 78.6589 105.407C81.3092 104.906 82.1307 101.758 82.0617 99.0404Z" fill="#D17975"/>
<path d="M81.8989 96.9456C81.7848 95.7997 81.6198 94.36 81.4345 92.8245C81.3603 92.757 81.3158 92.7197 81.3158 92.7197C81.3158 92.7197 78.353 94.9254 76.4158 90.8843C76.4158 90.8843 78.0961 97.4148 81.8989 96.9456Z" fill="#AB6360"/>
<path d="M65.161 120.352L57.1342 140.901C57.1342 140.901 58.7641 142.974 70.1458 145.991L50.9663 144.169L65.161 120.352Z" fill="#DDE2EE"/>
<path d="M54.2317 102.794C56.1184 100.783 62.0023 102.099 63.7463 104.245C65.859 106.844 67.7808 111.127 66.0993 117.433C63.7934 126.084 54.2385 142.233 54.2385 142.233C54.2385 142.233 62.3534 160.782 41.7365 157.066C38.6953 156.518 36.4999 153.719 36.513 150.492C36.5539 140.362 40.0412 117.917 54.2317 102.794Z" fill="#F7F9FF"/>
<path d="M123.904 330.369C123.904 330.369 133.972 338.63 137.516 339.266C138.133 339.376 138.658 340.002 138.704 340.794C138.748 341.579 138.397 342.466 136.816 342.872C134.487 343.468 124.133 342.436 118.833 341.851C117.026 341.651 115.654 340.094 115.608 338.196C115.584 337.175 115.556 336.002 115.525 334.806C115.482 333.139 116.06 330.956 116.06 330.956L123.904 330.369Z" fill="#422E2D"/>
<path d="M55.2186 332.955C55.2186 332.955 46.6762 343.184 43.3404 344.334C42.7592 344.535 42.3366 345.231 42.3995 346.021C42.462 346.805 42.9204 347.631 44.5006 347.801C46.8223 348.049 56.6315 345.519 61.6818 344.158C63.4243 343.688 64.5584 341.956 64.3475 340.087C64.2326 339.066 64.1012 337.888 63.9686 336.686C63.7855 335.029 62.9346 332.954 62.9346 332.954L55.2186 332.955Z" fill="#422E2D"/>
<path d="M82.5148 82.8711C81.4779 80.4356 76.9549 82.079 76.7903 82.171C76.3669 82.4086 76.0874 82.9024 76.0916 83.4048C76.0942 83.7084 76.1917 84.0015 76.2136 84.304C76.2486 84.7721 76.0927 85.2522 75.7936 85.6026C75.8215 85.0546 74.8241 82.9367 74.2048 84.6883C74.041 85.1526 74.4783 85.64 74.5246 86.1329C74.609 87.0254 74.1517 87.8733 73.6402 88.5948C73.0775 88.0445 72.8579 87.2068 72.8074 86.4023C72.7106 84.8705 72.2149 85.9323 72.0284 84.4096C71.7874 82.4441 71.6235 79.178 74.5028 77.727C85.3365 72.2643 82.5148 82.8711 82.5148 82.8711Z" fill="#422E2D"/>
<path d="M79.2208 237.72L79.2201 237.719C79.2235 237.711 79.2261 237.704 79.2295 237.697C79.3835 237.324 79.5361 236.975 79.6905 236.637C79.7139 236.585 79.7372 236.529 79.761 236.478C79.909 236.155 80.0536 235.854 80.1964 235.564C80.2254 235.504 80.254 235.444 80.2826 235.387C80.416 235.121 80.5433 234.876 80.668 234.641C80.7072 234.568 80.7452 234.495 80.7836 234.423C80.8925 234.222 80.9946 234.039 81.094 233.865C81.1471 233.772 81.1957 233.687 81.2454 233.602C81.2812 233.541 81.3238 233.464 81.3577 233.406V233.413C81.7822 232.697 82.0662 232.289 82.0662 232.289L91.29 270.942H91.2888C90.0466 267.621 89.024 265.053 88.3478 263.64C87.0457 260.917 84.1872 253.008 80.8605 242.813C80.4047 250.088 79.8453 255.666 79.1564 258.08C78.0065 262.113 76.2938 272.733 74.5645 284.741L74.5637 284.742C74.5637 284.742 78.5029 239.457 79.2208 237.72Z" fill="#0F5560"/>
<path d="M78.8054 149.315C68.4464 148.419 53.4426 144.167 53.4426 144.167L43.7822 155.628L43.5276 159.661C55.3711 162.246 69.6837 159.031 78.3907 156.401L78.8054 149.315Z" fill="#DDE2EE"/>
<path d="M81.6628 94.7598L81.9649 97.6407L88.6101 104.654L85.9011 110.065L85.2834 128.937L96.2127 231.035L115.989 223.297L98.5443 142.233L95.7679 102.232C95.7679 102.232 93.0487 93.8945 81.6628 94.7598Z" fill="#F7F9FF"/>
<path d="M96.739 116.224L99.5139 142.233L100.699 152.829L97.8709 140.67L96.739 116.224Z" fill="#DDE2EE"/>
<path d="M72.8831 116.39L71.8439 116.564L69.2166 103.152C68.9831 101.625 69.003 100.126 69.2757 98.7007C69.7549 96.2079 70.6453 94.9047 71.451 94.133C72.0103 93.5985 72.7019 93.4092 72.7019 93.4092L72.4424 94.9047C72.0748 95.145 70.8325 96.1879 70.3082 98.9176C70.0581 100.214 70.0415 101.582 70.2551 102.979L72.8831 116.39Z" fill="black"/>
<path d="M68.956 95.3862L77.3775 108.476L79.9535 129.679L75.9348 112.107L67.9785 106.898L68.956 95.3862Z" fill="#C1F3F2"/>
<path d="M88.4394 108.085C87.0213 95.9592 81.7882 95.163 81.7298 95.1596L81.5984 94.0303C81.87 94.0457 87.9019 94.8216 89.424 107.837L88.4394 108.085Z" fill="#272425"/>
<path d="M81.6628 102.286L84.2264 107.049L85.2826 128.938L85.9 110.067L88.6093 104.655L81.9642 97.6416C81.9649 97.6397 81.9615 99.8711 81.6628 102.286Z" fill="#C1F3F2"/>
<path d="M72.4432 94.9033C72.4432 94.9033 72.0511 99.2805 71.5068 99.3492L68.9568 95.3854C68.9568 95.3854 70.384 94.9071 72.4432 94.9033Z" fill="#B0F0EE"/>
<path d="M93.4627 112.455L92.5383 112.526C92.3685 110.116 90.8057 108.267 89.0538 108.403C87.3019 108.537 86.016 110.608 86.1859 113.015L85.2615 113.087C85.0543 110.146 86.7241 107.61 88.9849 107.436C91.2464 107.262 93.2544 109.514 93.4627 112.455Z" fill="black"/>
<path d="M88.76 120.751L86.813 120.637C86.5456 120.651 85.9708 120.445 85.9079 119.562L85.4438 112.985L85.99 112.943L86.4541 119.521C86.4899 120.025 86.7433 120.065 86.8209 120.064L88.7898 120.178L88.76 120.751Z" fill="#E0E0E0"/>
<path d="M89.5675 121.088L88.2111 121.193C88.1004 121.201 88.0039 121.114 87.9953 120.998L87.929 120.057C87.9211 119.941 88.0039 119.84 88.1154 119.831L89.4718 119.726C89.5826 119.718 89.679 119.805 89.6876 119.921L89.7539 120.862C89.7618 120.978 89.679 121.079 89.5675 121.088Z" fill="#3C2820"/>
<path d="M91.0775 120.572L92.9869 120.162C93.2535 120.134 93.7937 119.843 93.7308 118.96L93.2667 112.382L92.7206 112.424L93.1846 119.001C93.2204 119.506 92.9748 119.584 92.898 119.595L90.9668 120.01L91.0775 120.572Z" fill="#E0E0E0"/>
<path d="M90.3257 121.03L91.6821 120.925C91.7925 120.917 91.8761 120.816 91.8686 120.699L91.8023 119.759C91.7944 119.643 91.6976 119.555 91.5861 119.564L90.2297 119.668C90.119 119.676 90.0353 119.777 90.0432 119.894L90.1095 120.835C90.1174 120.95 90.2142 121.038 90.3257 121.03Z" fill="#3C2820"/>
<path d="M72.7026 120.572C73.8213 120.572 74.7283 119.625 74.7283 118.455C74.7283 117.285 73.8213 116.337 72.7026 116.337C71.5843 116.337 70.6772 117.285 70.6772 118.455C70.6772 119.625 71.5843 120.572 72.7026 120.572Z" fill="black"/>
<path d="M72.7031 119.855C73.4425 119.855 74.0421 119.228 74.0421 118.455C74.0421 117.682 73.4425 117.055 72.7031 117.055C71.9633 117.055 71.364 117.682 71.364 118.455C71.364 119.228 71.9633 119.855 72.7031 119.855Z" fill="#3C2820"/>
<path d="M71.8318 133.051L91.8851 131.73L90.093 157.683L75.771 158.688L71.8318 133.051Z" fill="#BC2638"/>
<path d="M86.6737 151.911C86.6737 151.911 84.7007 147.213 85.002 146.706C85.3033 146.2 87.4187 141.458 89.2131 141.021C91.0076 140.584 93.0793 143.635 93.0793 143.635C93.0793 143.635 92.9828 147.918 91.4957 150.626L86.6737 151.911Z" fill="#D17580"/>
<path d="M74.9897 131.472L78.5624 131.122L78.8133 138.569L75.8259 138.87L74.9897 131.472Z" fill="#EAAC3E"/>
<path d="M54.2385 142.233C54.2385 142.233 73.0365 149.329 85.0013 146.705L87.1182 151.735C87.1182 151.735 60.3488 162.731 41.7358 157.066L54.2385 142.233Z" fill="#F7F9FF"/>
<path d="M78.6602 105.407L84.2269 107.048L81.6629 102.285C81.6629 102.285 80.8787 104.867 78.6602 105.407Z" fill="#7BB3B1"/>
<path d="M77.5028 86.549C77.7458 86.8341 78.1578 86.9609 78.7285 86.9269C78.7285 86.9269 78.759 86.9281 78.8095 86.925C79.0848 86.9088 79.9734 86.7757 80.0476 85.7546L80.0118 85.0799C80.0754 85.0618 80.5839 85.0335 80.6495 85.0437L80.6853 85.7018C80.8698 86.721 81.7671 86.7523 82.0496 86.7349C82.1358 86.7304 82.1358 86.7259 82.1373 86.7259C82.6959 86.6931 83.0914 86.5188 83.3012 86.2084C83.5479 85.844 83.4391 85.4359 83.4338 85.4186L83.3935 84.6235L83.3072 84.6046C81.9188 84.3048 80.935 84.7264 80.7478 84.8177C80.6766 84.8011 79.9594 84.8441 79.8897 84.8686C79.6965 84.8011 78.6735 84.4952 77.3224 84.9569L77.2388 84.9859L77.2832 85.8086C77.2817 85.8067 77.2214 86.2201 77.5028 86.549ZM80.9124 85.6709L80.8785 85.0188C81.1207 84.9124 81.9998 84.5892 83.1758 84.8204L83.2097 85.4589C83.215 85.4887 83.2971 85.8041 83.1133 86.0719C82.9441 86.3185 82.607 86.4589 82.1113 86.4879C82.0624 86.4962 81.0887 86.6339 80.9124 85.6709ZM77.5122 85.8195L77.4783 85.1546C78.6223 84.7902 79.53 85.0071 79.7828 85.0818L79.8182 85.7513C79.747 86.7176 78.7662 86.6855 78.7258 86.6874C78.2189 86.7165 77.8686 86.6173 77.6753 86.3913C77.4644 86.1465 77.5115 85.8222 77.5122 85.8195Z" fill="#5D5B5E"/>
<path d="M47.9278 186.544L47.3538 191.702L69.0919 196.518L69.6453 190.965L47.9278 186.544Z" fill="#8ACBC9"/>
<path d="M94.7068 189.562L105.412 183.135L106.298 187.926L95.2842 193.544L94.7068 189.562Z" fill="#8ACBC9"/>
<path d="M136.339 126.068H133.276V119.073H136.21V119.814H133.953V122.141H136.041V122.878H133.953V125.326H136.339V126.068Z" fill="white"/>
<path d="M209.748 236.378H116.466V245.221H209.748V236.378Z" fill="#9CC4F7"/>
<path d="M216.162 54.0361H202.927V59.4846H216.162V54.0361Z" fill="#9CC4F7"/>
<path d="M216.162 58.4692H202.927V59.485H216.162V58.4692Z" fill="#8DB1DF"/>
<path d="M216.162 54.0361H202.927V55.0515H216.162V54.0361Z" fill="#8DB1DF"/>
<path d="M205.178 54.0361H202.927V59.4846H205.178V54.0361Z" fill="#6B8C96"/>
<path d="M210.67 54.0361H208.418V59.4846H210.67V54.0361Z" fill="#6B8C96"/>
<path d="M216.161 54.0361H213.911V59.4846H216.161V54.0361Z" fill="#6B8C96"/>
<path d="M216.905 55.6147H216.161V58.1219H216.905V55.6147Z" fill="#6B8C96"/>
<path d="M3.19194 19.7832H49.6718C51.4353 19.7832 52.864 21.2778 52.864 23.1204V86.5643C52.864 88.0482 51.1879 88.8369 50.1257 87.8524L38.1684 76.767C36.9765 75.6622 35.438 75.0519 33.8447 75.0519H3.19194C1.42871 75.0519 0 73.5575 0 71.715V23.1204C0 21.2769 1.42958 19.7832 3.19194 19.7832Z" fill="#A0D6DF"/>
<path d="M6.21143 32.6846V33.6746H44.0095V32.6846H6.21143ZM44.0095 39.4555H6.21143V40.4452H44.0095V39.4555ZM44.0095 46.2252H6.21143V47.2153H44.0095V46.2252ZM44.0095 52.996H6.21143V53.9861H44.0095V52.996ZM44.0095 59.7669H25.1104V60.757H44.0095V59.7669Z" fill="white"/>
<path d="M301.569 166.392H255.09C253.327 166.392 251.898 167.886 251.898 169.729V233.173C251.898 234.657 253.574 235.446 254.636 234.461L266.594 223.376C267.786 222.271 269.324 221.661 270.917 221.661H301.57C303.333 221.661 304.762 220.166 304.762 218.324V169.729C304.762 167.886 303.333 166.392 301.569 166.392Z" fill="#A0D6DF"/>
<path d="M260.753 179.294V180.285H298.551V179.294H260.753ZM260.753 187.054H298.551V186.064H260.753V187.054ZM260.753 193.825H298.551V192.835H260.753V193.825ZM260.753 200.596H298.551V199.606H260.753V200.596ZM260.753 207.366H279.652V206.376H260.753V207.366Z" fill="white"/>
</g>
</g>
<path d="M172.221 223.75L171.779 223.788L155.126 240.439L155.086 240.877L155.509 241L187.046 227.226L187.233 227.026L192.563 212.172L192.481 211.809L182.391 201.717L182.007 201.645L167.956 207.775L167.776 207.956L154 239.489L154.122 239.914L154.563 239.873L171.212 223.224L171.249 222.78C170.155 221.223 170.297 219.065 171.685 217.674C173.246 216.119 175.766 216.119 177.327 217.674C178.88 219.235 178.88 221.754 177.327 223.314C175.937 224.706 173.779 224.846 172.221 223.75Z" fill="#616E7D"/>
<path d="M207.328 166.08L228.922 187.672C255.221 160.565 286.025 120.407 280.308 114.692C274.595 108.977 234.436 139.78 207.328 166.08Z" fill="#1BB4CC"/>
<path d="M189.3 205.7C194.236 210.638 197.174 216.027 213.235 202.571L192.432 181.765C178.974 197.827 184.364 200.763 189.3 205.7Z" fill="#1BB4CC"/>
<path d="M213.235 202.571C215.044 201.055 217.021 199.299 219.183 197.278L197.725 175.816C195.702 177.98 193.944 179.958 192.432 181.765L213.235 202.571Z" fill="#AAD4C8"/>
<path d="M197.725 175.816L219.183 197.277C221.075 195.509 223.097 193.558 225.294 191.361C226.49 190.167 227.701 188.929 228.922 187.672L207.328 166.08C206.071 167.298 204.834 168.511 203.637 169.706C201.443 171.902 199.491 173.925 197.725 175.816Z" fill="#616E7D"/>
<defs>
<clipPath id="clip0_118_486">
<rect width="339" height="367" fill="white"/>
</clipPath>
</defs>
</svg>
