<svg width="349" height="455" viewBox="0 0 349 455" fill="none" xmlns="http://www.w3.org/2000/svg">
<g clip-path="url(#clip0_118_486)">
<mask id="mask0_118_486" style="mask-type:luminance" maskUnits="userSpaceOnUse" x="-83" y="0" width="432" height="467">
<path d="M348.371 0H-83V467H348.371V0Z" fill="white"/>
</mask>
<g mask="url(#mask0_118_486)">
<path d="M-26.1286 394.926C-198.814 474.504 64.0005 473.049 275.146 460.744C331.589 457.455 324.407 438.553 296.898 430.577C279.205 425.446 245.124 429.68 238.429 420.484C236.366 417.651 235.876 414.04 241.986 412.331C245.336 411.395 249.731 411.3 253.842 411.316C292.694 411.477 320.051 367.954 215.473 368.012C186.77 368.026 158.457 359.587 130.355 354.966C109.408 351.522 88.7123 347.342 66.1502 346.342C59.0546 346.027 51.2051 346.123 45.7075 347.914C38.7902 350.168 9.80548 347.761 -10.6237 346.415C-22.566 345.628 20.248 373.555 -26.1286 394.926Z" fill="#C1F3F2"/>
<path d="M216.359 435.864H53.454C48.3969 435.864 44.2975 431.578 44.2975 426.291V71.0352C44.2975 65.7479 48.3969 61.4619 53.454 61.4619H216.36C221.417 61.4619 225.517 65.7479 225.517 71.0352V426.292C225.515 431.578 221.416 435.864 216.359 435.864Z" fill="#AAC6EF"/>
<path d="M210.709 430.637H38.391C35.9336 430.637 33.9417 428.554 33.9417 425.985V60.8886C33.9417 58.3194 35.9336 56.2363 38.391 56.2363H210.709C213.166 56.2363 215.159 58.3194 215.159 60.8886V425.985C215.159 428.554 213.166 430.637 210.709 430.637Z" fill="#6B8C96"/>
<path d="M195.319 417.8H52.9384C50.4307 417.8 48.3975 415.674 48.3975 413.053V70.257C48.3975 67.6355 50.4307 65.5098 52.9384 65.5098H195.319C197.827 65.5098 199.86 67.6355 199.86 70.257V413.053C199.859 415.675 197.827 417.8 195.319 417.8Z" fill="#9CC4F7"/>
<path d="M155.914 67.6639H93.176C91.4347 67.6639 90.0227 65.2785 90.0227 62.3373C90.0227 59.3956 90.0227 57.0103 90.0227 57.0103H159.066C159.066 57.0103 159.066 59.3956 159.066 62.3373C159.066 65.2785 157.654 67.6639 155.914 67.6639Z" fill="#6B8C96"/>
<path d="M123.523 250.483C94.6241 250.483 68.3641 260.995 48.8192 278.133V404.796C48.8192 410.497 53.2393 415.118 58.6919 415.118H190.409C195.861 415.118 200.282 410.497 200.282 404.796V279.968C180.543 261.743 153.442 250.483 123.523 250.483Z" fill="#6899F3"/>
<path d="M183.9 341.226H65.2002V352.478H183.9V341.226Z" fill="#9CC4F7"/>
<path d="M183.9 381.664H65.2002V392.917H183.9V381.664Z" fill="#9CC4F7"/>
<path d="M201.33 241.932H76.1566C72.0768 241.932 68.7692 238.475 68.7692 234.209V155.606C68.7692 151.341 72.0759 147.883 76.1566 147.883H201.33C205.41 147.883 208.717 151.34 208.717 155.606V234.209C208.717 238.475 205.41 241.932 201.33 241.932Z" fill="#7E9FE4"/>
<path d="M201.857 170.533H73.576V254.335H201.857V170.533Z" fill="white"/>
<path d="M201.993 254.478H73.4395V170.391H201.993V254.478ZM73.7122 254.193H201.72V170.676H73.7122V254.193Z" fill="#61ABEB"/>
<path d="M173.497 220.785H139.904C139.674 220.785 139.487 220.59 139.487 220.349V218.4C139.487 218.159 139.674 217.964 139.904 217.964H173.497C173.728 217.964 173.914 218.159 173.914 218.4V220.349C173.913 220.589 173.726 220.785 173.497 220.785Z" fill="#ADC6F2"/>
<path d="M135.486 192.362H101.893C101.663 192.362 101.477 192.167 101.477 191.926V189.977C101.477 189.736 101.663 189.541 101.893 189.541H135.486C135.717 189.541 135.903 189.736 135.903 189.977V191.926C135.902 192.166 135.716 192.362 135.486 192.362Z" fill="#ECEDEE"/>
<path d="M122.99 247.272H103.004C102.774 247.272 102.587 247.078 102.587 246.837V244.887C102.587 244.646 102.774 244.451 103.004 244.451H122.99C123.221 244.451 123.407 244.646 123.407 244.887V246.837C123.407 247.078 123.221 247.272 122.99 247.272Z" fill="#C08581"/>
<path d="M201.458 147.884H76.0291C72.0193 147.884 68.7692 151.282 68.7692 155.474V165.209H208.716V155.474C208.717 151.282 205.467 147.884 201.458 147.884Z" fill="#3F6DB0"/>
<path d="M200.93 159.741H180.293C179.782 159.741 179.368 159.307 179.368 158.773V154.437C179.368 153.903 179.782 153.47 180.293 153.47H200.93C201.441 153.47 201.856 153.903 201.856 154.437V158.773C201.856 159.307 201.442 159.741 200.93 159.741Z" fill="#80B3EE"/>
<path d="M123.239 177.351L120.296 175.121L123.222 172.521L123.575 172.955L121.177 175.085L123.558 176.89L123.239 177.351Z" fill="#80B3EE"/>
<path d="M152.194 177.351L151.874 176.89L154.255 175.085L151.857 172.955L152.211 172.521L155.136 175.121L152.194 177.351Z" fill="#80B3EE"/>
<path d="M41.8377 224.949C41.8377 224.949 47.3516 225.601 48.961 222.216C50.5696 218.83 47.8251 214.332 47.8251 214.332L41.7193 215.814C41.7193 215.814 39.5965 223.223 41.8377 224.949Z" fill="#D17975"/>
<path d="M37.7329 204.582C43.2056 207.604 59.1797 303.804 62.1293 318.939C65.0785 334.075 81.1643 419.843 81.1643 419.843L59.4491 421.525C59.4491 421.525 35.0522 347.248 29.4223 335.477C23.792 323.705 -4.66986 235.898 -1.83192 215.895C-1.83192 215.895 23.5236 196.734 37.7329 204.582Z" fill="#262673"/>
<path d="M22.3622 210.562C22.3622 210.562 21.8489 313.946 17.726 328.402C13.6035 342.858 3.81618 423.678 3.81618 423.678H-19.2813L-26.028 204.845C-26.028 204.845 20.0084 194.204 22.3622 210.562Z" fill="#2D2D85"/>
<path d="M3.75968 132.659C2.10801 129.518 3.09777 125.548 5.98795 123.621C9.48876 121.287 11.6125 120.992 19.5809 120.992C40.1539 120.992 42.2461 135.887 44.6383 149.814C48.0744 169.82 54.9686 217.491 52.9843 225L41.7193 215.814C29.3879 215.814 18.5255 160.735 3.75968 132.659Z" fill="#F7F9FF"/>
<path d="M48.4601 236.381C48.4601 236.381 54.0085 236.229 55.1526 232.643C56.2977 229.058 52.9833 225 52.9833 225L47.131 227.352C47.131 227.352 46.0128 234.997 48.4601 236.381Z" fill="#D17975"/>
<path d="M17.727 120.744C17.727 120.744 35.7089 133.707 38.4701 144.772C41.2314 155.837 41.993 204.669 41.993 204.669C41.993 204.669 4.35256 231.923 -27.6729 204.167C-27.6729 204.167 -27.9547 203.674 -27.1739 199.555C-26.0533 193.641 -24.5181 158.374 -24.0412 150.912C-23.9794 149.942 -26.6563 149.745 -26.212 148.891C-23.0692 142.846 -13.7741 118.344 17.727 120.744Z" fill="#8ACBC9"/>
<path d="M4.74511 121.377L3.50132 136.026L13.6256 142.654L18.7393 165.014L11.1049 295.583L-31.8241 280.625L-27.6738 204.167L-23.9051 144.371C-23.9051 144.371 -16.1562 123.393 4.74511 121.377Z" fill="#F7F9FF"/>
<path d="M38.3647 161.376C38.3547 161.216 38.3484 161.071 38.3417 160.928L37.3208 141.64C39.921 145.855 40.1616 158.227 40.2637 159.884C40.858 168.176 41.2683 178.101 41.5387 186.501C41.5353 186.476 38.7606 167.624 38.3681 161.408L38.3671 161.409L38.3647 161.376Z" fill="#383BA4"/>
<path d="M22.229 103.023C22.229 103.023 21.6802 106.607 22.229 107.896C22.7778 109.186 21.7679 116.554 20.4743 117.984C19.8114 118.715 16.8436 118.516 14.2386 115.648C11.6336 112.781 11.8085 106.75 11.8085 106.75C11.8085 106.75 11.2597 100.299 22.229 103.023Z" fill="#D17975"/>
<path d="M21.4219 126.027C21.3357 122.567 18.8102 104.088 18.8102 104.088C18.8102 104.088 14.9916 105.7 12.6479 107.763C12.5736 107.212 12.3699 106.501 11.9509 105.555C11.9509 105.555 10.9741 103.723 10.1028 104.088C9.23283 104.452 8.36146 105.909 10.1028 107.547L11.1913 109.481C11.0374 109.769 10.932 110.059 10.8864 110.349C10.8864 110.349 8.62268 125.208 7.92578 126.573C7.92578 126.573 13.721 134.766 17.0919 134.128C20.4643 133.491 21.5096 129.486 21.4219 126.027Z" fill="#D17975"/>
<path d="M21.2149 123.361C21.0696 121.903 20.8597 120.071 20.6239 118.117C20.5295 118.031 20.4729 117.984 20.4729 117.984C20.4729 117.984 16.7027 120.791 14.2377 115.648C14.2377 115.648 16.3758 123.958 21.2149 123.361Z" fill="#AB6360"/>
<path d="M-0.0839197 153.146L-10.2978 179.294C-10.2978 179.294 -8.22388 181.932 6.25914 185.77L-18.1464 183.452L-0.0839197 153.146Z" fill="#DDE2EE"/>
<path d="M-13.9912 130.803C-11.5904 128.244 -4.10323 129.919 -1.88407 132.649C0.804324 135.957 3.24971 141.406 1.11012 149.431C-1.82416 160.439 -13.9826 180.988 -13.9826 180.988C-13.9826 180.988 -3.65653 204.592 -29.891 199.863C-33.7609 199.166 -36.5545 195.604 -36.5379 191.498C-36.4858 178.608 -32.0484 150.047 -13.9912 130.803Z" fill="#F7F9FF"/>
<path d="M74.666 420.389C74.666 420.389 87.4772 430.9 91.9869 431.709C92.7716 431.85 93.4402 432.647 93.4977 433.654C93.5543 434.653 93.1075 435.782 91.0954 436.298C88.1324 437.057 74.9574 435.744 68.2122 434.999C65.9139 434.745 64.1669 432.763 64.1094 430.348C64.0782 429.049 64.0428 427.556 64.003 426.034C63.9488 423.913 64.6836 421.136 64.6836 421.136L74.666 420.389Z" fill="#422E2D"/>
<path d="M21.9984 105.452C20.6789 102.353 14.9235 104.444 14.714 104.561C14.1753 104.863 13.8197 105.491 13.8249 106.131C13.8283 106.517 13.9524 106.89 13.9802 107.275C14.0248 107.871 13.8264 108.482 13.4458 108.927C13.4813 108.23 12.2121 105.535 11.4241 107.764C11.2156 108.355 11.7721 108.975 11.831 109.602C11.9384 110.738 11.3565 111.817 10.7056 112.735C9.98957 112.035 9.71014 110.969 9.64592 109.945C9.52273 107.996 8.89197 109.347 8.65472 107.409C8.34797 104.908 8.13947 100.752 11.8032 98.906C25.5889 91.9547 21.9984 105.452 21.9984 105.452Z" fill="#422E2D"/>
<path d="M17.8069 302.494L17.806 302.493C17.8103 302.483 17.8136 302.474 17.818 302.465C18.014 301.991 18.2081 301.547 18.4046 301.116C18.4343 301.05 18.4641 300.979 18.4943 300.914C18.6826 300.503 18.8667 300.121 19.0483 299.751C19.0852 299.675 19.1217 299.599 19.1581 299.526C19.3278 299.188 19.4898 298.876 19.6484 298.577C19.6982 298.483 19.7467 298.39 19.7956 298.3C19.9341 298.044 20.064 297.811 20.1905 297.589C20.2581 297.471 20.3199 297.362 20.3832 297.254C20.4287 297.176 20.4829 297.078 20.526 297.005V297.013C21.0662 296.102 21.4276 295.583 21.4276 295.583L33.1647 344.768H33.1632C31.5825 340.543 30.2812 337.275 29.4209 335.477C27.7639 332.012 24.1265 321.949 19.8933 308.975C19.3134 318.232 18.6016 325.33 17.725 328.402C16.2617 333.534 14.0823 347.047 11.8818 362.328L11.8809 362.329C11.8809 362.329 16.8934 304.705 17.8069 302.494Z" fill="#422E2D"/>
<path d="M17.2783 190.001C4.09656 188.86 -14.9954 183.45 -14.9954 183.45L-27.2881 198.034L-27.6121 203.165C-12.5414 206.455 5.67106 202.363 16.7506 199.018L17.2783 190.001Z" fill="#DDE2EE"/>
<path d="M20.9143 120.58L21.2987 124.246L29.7545 133.17L26.3074 140.056L25.5213 164.07L39.4287 293.988L64.5939 284.141L42.3956 180.989L38.8627 130.088C38.8627 130.088 35.4026 119.479 20.9143 120.58Z" fill="#F7F9FF"/>
<path d="M40.0983 147.892L43.6293 180.989L45.1376 194.472L41.5386 179L40.0983 147.892Z" fill="#DDE2EE"/>
<path d="M9.74226 148.104L8.41987 148.326L5.07676 131.259C4.77959 129.316 4.80499 127.408 5.152 125.595C5.76167 122.423 6.89474 120.764 7.91996 119.782C8.63172 119.102 9.51173 118.861 9.51173 118.861L9.18148 120.764C8.71369 121.07 7.13295 122.397 6.46577 125.871C6.14751 127.521 6.12643 129.261 6.39819 131.038L9.74226 148.104Z" fill="black"/>
<path d="M4.74513 121.377L15.4613 138.034L18.7393 165.014L13.6256 142.654L3.50134 136.026L4.74513 121.377Z" fill="#C1F3F2"/>
<path d="M29.5375 137.536C27.7329 122.106 21.074 121.093 20.9997 121.089L20.8324 119.652C21.178 119.672 28.8535 120.659 30.7903 137.22L29.5375 137.536Z" fill="#272425"/>
<path d="M20.9143 130.157L24.1764 136.218L25.5204 164.072L26.306 140.058L29.7536 133.171L21.2977 124.247C21.2987 124.245 21.2944 127.084 20.9143 130.157Z" fill="#C1F3F2"/>
<path d="M9.1825 120.763C9.1825 120.763 8.68355 126.333 7.99096 126.42L4.74609 121.376C4.74609 121.376 6.56216 120.767 9.1825 120.763Z" fill="#B0F0EE"/>
<path d="M35.9294 143.096L34.7531 143.186C34.537 140.121 32.5484 137.767 30.3191 137.94C28.0899 138.111 26.4536 140.746 26.6697 143.81L25.4935 143.901C25.2299 140.158 27.3547 136.932 30.2314 136.71C33.1091 136.489 35.6643 139.354 35.9294 143.096Z" fill="black"/>
<path d="M29.9452 153.653L27.4677 153.508C27.1274 153.526 26.396 153.264 26.316 152.141L25.7255 143.771L26.4205 143.717L27.011 152.087C27.0565 152.729 27.3791 152.78 27.4778 152.779L29.9831 152.924L29.9452 153.653Z" fill="#E0E0E0"/>
<path d="M30.9729 154.082L29.247 154.215C29.1061 154.225 28.9834 154.116 28.9723 153.967L28.888 152.77C28.8779 152.623 28.9834 152.494 29.1252 152.483L30.8512 152.349C30.9921 152.339 31.1148 152.449 31.1258 152.597L31.2102 153.794C31.2203 153.942 31.1148 154.07 30.9729 154.082Z" fill="#3C2820"/>
<path d="M32.8945 153.426L35.324 152.904C35.6634 152.869 36.3507 152.498 36.2706 151.374L35.6801 143.004L34.9852 143.057L35.5757 151.427C35.6212 152.069 35.3087 152.169 35.2109 152.183L32.7535 152.711L32.8945 153.426Z" fill="#E0E0E0"/>
<path d="M31.9378 154.008L33.6637 153.875C33.8042 153.864 33.9106 153.736 33.901 153.587L33.8166 152.39C33.8066 152.243 33.6834 152.132 33.5415 152.142L31.8156 152.275C31.6746 152.286 31.5682 152.414 31.5783 152.563L31.6627 153.76C31.6727 153.907 31.7959 154.018 31.9378 154.008Z" fill="#3C2820"/>
<path d="M9.51275 153.426C10.9363 153.426 12.0904 152.22 12.0904 150.732C12.0904 149.243 10.9363 148.037 9.51275 148.037C8.0897 148.037 6.93555 149.243 6.93555 150.732C6.93555 152.22 8.0897 153.426 9.51275 153.426Z" fill="black"/>
<path d="M9.51311 152.513C10.454 152.513 11.217 151.715 11.217 150.731C11.217 149.747 10.454 148.95 9.51311 148.95C8.57177 148.95 7.8092 149.747 7.8092 150.731C7.8092 151.715 8.57177 152.513 9.51311 152.513Z" fill="#3C2820"/>
<path d="M8.40454 169.305L33.922 167.624L31.6415 200.648L13.4171 201.928L8.40454 169.305Z" fill="#262673"/>
<path d="M27.2904 193.303C27.2904 193.303 24.7798 187.325 25.1633 186.681C25.5467 186.036 28.2384 180.002 30.5218 179.446C32.8052 178.89 35.4414 182.773 35.4414 182.773C35.4414 182.773 35.3187 188.222 33.4264 191.669L27.2904 193.303Z" fill="#D17975"/>
<path d="M12.423 167.296L16.9691 166.851L17.2884 176.326L13.487 176.71L12.423 167.296Z" fill="#EAAC3E"/>
<path d="M-13.9827 180.989C-13.9827 180.989 9.93732 190.018 25.1623 186.68L27.856 193.08C27.856 193.08 -6.20745 207.073 -29.8921 199.864L-13.9827 180.989Z" fill="#F7F9FF"/>
<path d="M17.0933 134.128L24.1768 136.217L20.9142 130.155C20.9142 130.155 19.9163 133.441 17.0933 134.128Z" fill="#7BB3B1"/>
<path d="M15.6209 110.132C15.93 110.494 16.4544 110.656 17.1805 110.613C17.1805 110.613 17.2194 110.614 17.2836 110.61C17.634 110.59 18.7646 110.42 18.8591 109.121L18.8135 108.262C18.8945 108.239 19.5416 108.203 19.625 108.216L19.6705 109.054C19.9054 110.35 21.0471 110.39 21.4065 110.368C21.5163 110.362 21.5163 110.357 21.5182 110.357C22.229 110.315 22.7323 110.093 22.9993 109.698C23.3132 109.235 23.1747 108.715 23.168 108.693L23.1167 107.681L23.0069 107.657C21.2402 107.276 19.9883 107.812 19.7501 107.929C19.6595 107.908 18.7469 107.962 18.6582 107.993C18.4123 107.908 17.1106 107.518 15.3913 108.106L15.2849 108.143L15.3415 109.189C15.3396 109.187 15.2629 109.713 15.6209 110.132ZM19.9595 109.014L19.9164 108.184C20.2246 108.049 21.3433 107.638 22.8396 107.932L22.8828 108.745C22.8895 108.782 22.994 109.184 22.7601 109.524C22.5449 109.838 22.1159 110.017 21.4851 110.054C21.4228 110.064 20.1838 110.24 19.9595 109.014ZM15.6329 109.203L15.5897 108.357C17.0454 107.894 18.2005 108.17 18.5221 108.265L18.5672 109.117C18.4766 110.346 17.2285 110.305 17.1772 110.308C16.5321 110.345 16.0863 110.219 15.8404 109.931C15.572 109.62 15.6319 109.207 15.6329 109.203Z" fill="#5D5B5E"/>
<path d="M-22.0128 237.374L-22.7433 243.937L4.91811 250.066L5.6222 243L-22.0128 237.374Z" fill="#8ACBC9"/>
<path d="M37.5125 241.213L51.1351 233.035L52.2615 239.132L38.2472 246.281L37.5125 241.213Z" fill="#8ACBC9"/>
<path d="M183.9 300.786H65.2002V312.039H183.9V300.786Z" fill="#9CC4F7"/>
<path d="M192.062 68.7603H175.22V75.6933H192.062V68.7603Z" fill="#9CC4F7"/>
<path d="M192.062 74.4009H175.22V75.6934H192.062V74.4009Z" fill="#8DB1DF"/>
<path d="M192.062 68.7603H175.22V70.0523H192.062V68.7603Z" fill="#8DB1DF"/>
<path d="M178.085 68.7603H175.22V75.6933H178.085V68.7603Z" fill="#6B8C96"/>
<path d="M185.073 68.7603H182.208V75.6933H185.073V68.7603Z" fill="#6B8C96"/>
<path d="M192.061 68.7603H189.197V75.6933H192.061V68.7603Z" fill="#6B8C96"/>
<path d="M193.008 70.769H192.061V73.9593H193.008V70.769Z" fill="#6B8C96"/>
<path d="M300.741 211.73H241.597C239.353 211.73 237.535 213.632 237.535 215.977V296.708C237.535 298.596 239.668 299.6 241.02 298.347L256.235 284.241C257.752 282.835 259.71 282.059 261.737 282.059H300.742C302.986 282.059 304.804 280.157 304.804 277.812V215.977C304.804 213.632 302.985 211.73 300.741 211.73Z" fill="#8DB1DF"/>
<path d="M248.803 228.148V229.408H296.899V228.148H248.803ZM248.803 238.023H296.899V236.763H248.803V238.023ZM248.803 246.638H296.899V245.378H248.803V246.638ZM248.803 255.254H296.899V253.994H248.803V255.254ZM248.803 263.869H272.851V262.609H248.803V263.869Z" fill="white"/>
<path d="M-26.1286 394.926C-198.814 474.504 64.0005 473.049 275.146 460.743C331.589 457.455 324.407 438.553 296.898 430.577C279.205 425.446 245.124 429.68 238.429 420.484C236.366 417.651 235.876 414.04 241.986 412.331C245.336 411.395 249.731 411.3 253.842 411.316C292.694 411.477 320.051 367.954 215.473 368.012C186.77 368.026 158.457 359.587 130.355 354.966C109.408 351.522 88.7123 347.342 66.1502 346.342C59.0546 346.027 51.2051 346.123 45.7075 347.914C38.7902 350.168 9.80548 347.761 -10.6237 346.415C-22.566 345.628 20.248 373.555 -26.1286 394.926Z" fill="#7484BE"/>
<path d="M216.359 435.864H53.454C48.3969 435.864 44.2975 431.578 44.2975 426.291V71.0352C44.2975 65.7479 48.3969 61.4619 53.454 61.4619H216.36C221.417 61.4619 225.517 65.7479 225.517 71.0352V426.292C225.515 431.578 221.416 435.864 216.359 435.864Z" fill="#4D7292"/>
<path d="M210.709 430.637H38.391C35.9336 430.637 33.9417 428.554 33.9417 425.985V60.8886C33.9417 58.3194 35.9336 56.2363 38.391 56.2363H210.709C213.166 56.2363 215.159 58.3194 215.159 60.8886V425.985C215.159 428.554 213.166 430.637 210.709 430.637Z" fill="#6B8C96"/>
<path d="M195.319 417.8H52.9384C50.4307 417.8 48.3975 415.674 48.3975 413.053V70.257C48.3975 67.6355 50.4307 65.5098 52.9384 65.5098H195.319C197.827 65.5098 199.86 67.6355 199.86 70.257V413.053C199.859 415.675 197.827 417.8 195.319 417.8Z" fill="#B5D0F2"/>
<path d="M155.914 67.6639H93.176C91.4347 67.6639 90.0227 65.2785 90.0227 62.3373C90.0227 59.3956 90.0227 57.0103 90.0227 57.0103H159.066C159.066 57.0103 159.066 59.3956 159.066 62.3373C159.066 65.2785 157.654 67.6639 155.914 67.6639Z" fill="#6B8C96"/>
<path d="M123.523 250.483C94.6241 250.483 68.3641 260.995 48.8192 278.133V404.796C48.8192 410.497 53.2393 415.118 58.6919 415.118H190.409C195.861 415.118 200.282 410.497 200.282 404.796V279.968C180.543 261.743 153.442 250.483 123.523 250.483Z" fill="#6899F3"/>
<path d="M183.9 341.226H65.2002V352.478H183.9V341.226Z" fill="#9CC4F7"/>
<path d="M183.9 381.664H65.2002V392.917H183.9V381.664Z" fill="#9CC4F7"/>
<path d="M201.33 241.932H76.1566C72.0768 241.932 68.7692 238.475 68.7692 234.209V155.606C68.7692 151.341 72.0759 147.883 76.1566 147.883H201.33C205.41 147.883 208.717 151.34 208.717 155.606V234.209C208.717 238.475 205.41 241.932 201.33 241.932Z" fill="#7E9FE4"/>
<path d="M201.857 170.533H73.576V254.335H201.857V170.533Z" fill="white"/>
<path d="M201.993 254.478H73.4395V170.391H201.993V254.478ZM73.7122 254.193H201.72V170.676H73.7122V254.193Z" fill="#61ABEB"/>
<path d="M68.9311 170.999H73.1906C73.2395 170.999 73.2793 170.924 73.2793 170.832V170.084C73.2793 169.991 73.2395 169.917 73.1906 169.917H68.9311C68.8822 169.917 68.8424 169.991 68.8424 170.084V170.832C68.8424 170.924 68.8822 170.999 68.9311 170.999Z" fill="#353535"/>
<path d="M173.497 222.849H139.904C139.674 222.849 139.487 222.641 139.487 222.384V220.306C139.487 220.049 139.674 219.842 139.904 219.842H173.497C173.728 219.842 173.914 220.049 173.914 220.306V222.384C173.913 222.64 173.726 222.849 173.497 222.849Z" fill="#ADC6F2"/>
<path d="M135.486 192.548H101.894C101.663 192.548 101.477 192.341 101.477 192.084V190.006C101.477 189.749 101.663 189.541 101.894 189.541H135.486C135.717 189.541 135.903 189.749 135.903 190.006V192.084C135.902 192.34 135.716 192.548 135.486 192.548Z" fill="#ECEDEE"/>
<path d="M122.99 251.087H103.004C102.774 251.087 102.587 250.88 102.587 250.623V248.545C102.587 248.287 102.774 248.08 103.004 248.08H122.99C123.221 248.08 123.407 248.287 123.407 248.545V250.623C123.407 250.88 123.221 251.087 122.99 251.087Z" fill="#C08581"/>
<path d="M201.458 147.884H76.0291C72.0193 147.884 68.7692 151.282 68.7692 155.474V165.209H208.716V155.474C208.717 151.282 205.467 147.884 201.458 147.884Z" fill="#3F6DB0"/>
<path d="M96.8192 157.204V160.568H95.9574V151.667H97.9786C98.7651 151.667 99.3748 151.899 99.8071 152.362C100.24 152.826 100.456 153.48 100.456 154.324C100.456 155.168 100.216 155.859 99.7352 156.397C99.255 156.935 98.606 157.204 97.7888 157.204L96.8192 157.204ZM96.8192 152.611V156.261H97.7222C98.317 156.261 98.7709 156.096 99.0839 155.767C99.3968 155.438 99.5536 154.973 99.5536 154.373C99.5536 153.199 98.9789 152.611 97.8295 152.611H96.8192Z" fill="white"/>
<path d="M108.134 160.568H107.108L105.877 158.073C105.764 157.841 105.655 157.643 105.549 157.48C105.442 157.317 105.334 157.183 105.223 157.08C105.112 156.976 104.992 156.901 104.864 156.853C104.736 156.805 104.591 156.782 104.431 156.782H103.723V160.568H102.861V151.667H105.057C105.378 151.667 105.675 151.715 105.946 151.813C106.218 151.91 106.454 152.058 106.655 152.256C106.854 152.455 107.011 152.703 107.124 152.998C107.236 153.294 107.293 153.641 107.293 154.038C107.293 154.349 107.255 154.633 107.177 154.891C107.101 155.15 106.991 155.381 106.849 155.583C106.707 155.786 106.536 155.959 106.336 156.102C106.136 156.244 105.912 156.355 105.662 156.434V156.458C105.785 156.525 105.891 156.6 105.982 156.685C106.073 156.77 106.159 156.87 106.241 156.986C106.323 157.103 106.404 157.234 106.485 157.38C106.565 157.527 106.655 157.698 106.754 157.893L108.134 160.568ZM103.722 152.611V155.838H104.892C105.107 155.838 105.307 155.799 105.49 155.721C105.672 155.642 105.831 155.529 105.964 155.382C106.098 155.235 106.202 155.056 106.277 154.842C106.352 154.629 106.39 154.39 106.39 154.125C106.39 153.649 106.262 153.278 106.008 153.011C105.753 152.744 105.384 152.611 104.902 152.611H103.722Z" fill="white"/>
<path d="M114.062 160.568H110.163V151.667H113.898V152.611H111.025V155.571H113.682V156.508H111.025V159.624H114.062V160.568Z" fill="white"/>
<path d="M116.153 160.208V158.979C116.27 159.103 116.409 159.215 116.572 159.315C116.734 159.414 116.905 159.497 117.084 159.566C117.264 159.634 117.444 159.686 117.626 159.724C117.807 159.761 117.975 159.78 118.129 159.78C118.659 159.78 119.054 159.661 119.316 159.423C119.578 159.185 119.709 158.842 119.709 158.395C119.709 158.156 119.665 157.947 119.578 157.769C119.491 157.591 119.37 157.428 119.216 157.281C119.063 157.135 118.88 156.994 118.67 156.86C118.46 156.725 118.233 156.583 117.99 156.434C117.734 156.277 117.494 156.118 117.272 155.956C117.049 155.795 116.856 155.617 116.692 155.422C116.528 155.228 116.399 155.007 116.305 154.761C116.211 154.515 116.164 154.226 116.164 153.895C116.164 153.49 116.237 153.137 116.384 152.837C116.531 152.537 116.725 152.29 116.964 152.095C117.203 151.901 117.476 151.756 117.782 151.661C118.088 151.566 118.401 151.518 118.718 151.518C119.444 151.518 119.972 151.624 120.304 151.834V153.007C119.869 152.644 119.312 152.461 118.631 152.461C118.443 152.461 118.255 152.485 118.067 152.533C117.879 152.58 117.711 152.658 117.564 152.765C117.418 152.873 117.298 153.012 117.205 153.181C117.113 153.351 117.067 153.558 117.067 153.802C117.067 154.03 117.102 154.226 117.172 154.392C117.242 154.557 117.346 154.708 117.483 154.845C117.619 154.981 117.786 155.114 117.983 155.242C118.179 155.37 118.406 155.511 118.663 155.664C118.926 155.822 119.176 155.987 119.411 156.161C119.647 156.335 119.854 156.527 120.032 156.738C120.21 156.949 120.351 157.183 120.455 157.44C120.56 157.696 120.612 157.99 120.612 158.321C120.612 158.76 120.541 159.131 120.399 159.435C120.257 159.739 120.065 159.987 119.824 160.177C119.584 160.368 119.306 160.505 118.991 160.59C118.676 160.674 118.345 160.717 117.996 160.717C117.879 160.717 117.735 160.706 117.565 160.683C117.394 160.66 117.219 160.627 117.041 160.584C116.864 160.54 116.695 160.487 116.536 160.422C116.377 160.358 116.249 160.287 116.153 160.208Z" fill="white"/>
<path d="M128.104 160.196C127.561 160.543 126.883 160.717 126.073 160.717C125.027 160.717 124.189 160.309 123.559 159.494C122.93 158.679 122.616 157.609 122.616 156.285C122.616 154.861 122.969 153.711 123.677 152.834C124.385 151.957 125.283 151.518 126.371 151.518C127.068 151.518 127.646 151.64 128.105 151.884V152.995C127.578 152.64 126.997 152.462 126.36 152.462C125.515 152.462 124.831 152.803 124.306 153.486C123.781 154.168 123.519 155.081 123.519 156.223C123.519 157.307 123.764 158.171 124.254 158.815C124.745 159.458 125.389 159.78 126.186 159.78C126.925 159.78 127.564 159.581 128.105 159.184L128.104 160.196Z" fill="white"/>
<path d="M135.895 160.568H134.869L133.638 158.073C133.525 157.841 133.415 157.643 133.309 157.48C133.203 157.317 133.095 157.183 132.983 157.08C132.872 156.976 132.753 156.901 132.625 156.853C132.496 156.805 132.352 156.782 132.191 156.782H131.483V160.568H130.621V151.667H132.817C133.138 151.667 133.435 151.715 133.707 151.813C133.979 151.91 134.215 152.058 134.415 152.256C134.615 152.455 134.771 152.703 134.884 152.998C134.997 153.294 135.053 153.641 135.053 154.038C135.053 154.349 135.015 154.633 134.938 154.891C134.861 155.15 134.751 155.381 134.61 155.583C134.468 155.786 134.297 155.959 134.097 156.102C133.897 156.244 133.672 156.355 133.422 156.434V156.458C133.546 156.525 133.652 156.6 133.743 156.685C133.834 156.77 133.92 156.87 134.002 156.986C134.084 157.103 134.165 157.234 134.245 157.38C134.326 157.527 134.415 157.698 134.515 157.893L135.895 160.568ZM131.483 152.611V155.838H132.653C132.868 155.838 133.067 155.799 133.25 155.721C133.433 155.642 133.592 155.529 133.725 155.382C133.858 155.235 133.962 155.056 134.038 154.842C134.113 154.629 134.15 154.39 134.15 154.125C134.15 153.649 134.023 153.278 133.768 153.011C133.513 152.744 133.145 152.611 132.663 152.611H131.483Z" fill="white"/>
<path d="M139.504 151.667V152.561H138.786V159.675H139.504V160.568H137.207V159.675H137.925V152.561H137.207V151.667H139.504Z" fill="white"/>
<path d="M142.601 157.204V160.568H141.739V151.667H143.76C144.547 151.667 145.157 151.899 145.589 152.362C146.022 152.826 146.238 153.48 146.238 154.324C146.238 155.168 145.998 155.859 145.518 156.397C145.037 156.935 144.388 157.204 143.571 157.204L142.601 157.204ZM142.601 152.611V156.261H143.504C144.099 156.261 144.553 156.096 144.866 155.767C145.179 155.438 145.335 154.973 145.335 154.373C145.335 153.199 144.761 152.611 143.612 152.611H142.601Z" fill="white"/>
<path d="M152.992 152.611H150.868V160.568H150.007V152.611H147.888V151.667H152.992V152.611Z" fill="white"/>
<path d="M156.746 151.667V152.561H156.027V159.675H156.746V160.568H154.448V159.675H155.166V152.561H154.448V151.667H156.746Z" fill="white"/>
<path d="M161.946 160.717C160.903 160.717 160.067 160.301 159.44 159.47C158.812 158.638 158.498 157.555 158.498 156.223C158.498 154.791 158.818 153.649 159.458 152.797C160.097 151.944 160.967 151.518 162.069 151.518C163.084 151.518 163.903 151.932 164.523 152.759C165.144 153.587 165.455 154.669 165.455 156.006C165.455 157.458 165.136 158.607 164.5 159.451C163.864 160.295 163.013 160.717 161.946 160.717ZM162.007 152.462C161.234 152.462 160.606 152.799 160.124 153.473C159.643 154.148 159.402 155.033 159.402 156.13C159.402 157.227 159.636 158.109 160.107 158.777C160.577 159.446 161.19 159.78 161.946 159.78C162.753 159.78 163.389 159.461 163.854 158.824C164.319 158.187 164.552 157.295 164.552 156.149C164.552 154.974 164.326 154.065 163.874 153.424C163.423 152.782 162.8 152.462 162.007 152.462Z" fill="white"/>
<path d="M173.851 160.568H172.794L169.008 153.474C168.912 153.295 168.834 153.109 168.772 152.915H168.741C168.769 153.105 168.782 153.513 168.782 154.138V160.568H167.92V151.667H169.039L172.722 158.65C172.876 158.94 172.975 159.139 173.019 159.246H173.04C173.006 158.99 172.989 158.553 172.989 157.937V151.667H173.851V160.568Z" fill="white"/>
<path d="M92.5458 156.929H94.4385C94.4606 156.929 94.4783 156.854 94.4783 156.762V156.014C94.4783 155.922 94.4606 155.847 94.4385 155.847H92.5458C92.5237 155.847 92.506 155.922 92.506 156.014V156.762C92.506 156.854 92.5237 156.929 92.5458 156.929Z" fill="white"/>
<path d="M200.93 159.741H180.293C179.782 159.741 179.368 159.307 179.368 158.773V154.437C179.368 153.903 179.782 153.47 180.293 153.47H200.93C201.441 153.47 201.856 153.903 201.856 154.437V158.773C201.856 159.307 201.442 159.741 200.93 159.741Z" fill="#80B3EE"/>
<path d="M123.239 177.351L120.296 175.121L123.222 172.521L123.575 172.955L121.177 175.085L123.558 176.89L123.239 177.351Z" fill="#80B3EE"/>
<path d="M152.194 177.351L151.874 176.89L154.255 175.085L151.857 172.955L152.211 172.521L155.136 175.121L152.194 177.351Z" fill="#80B3EE"/>
<path d="M41.8377 224.949C41.8377 224.949 47.3516 225.601 48.961 222.216C50.5696 218.83 47.8251 214.332 47.8251 214.332L41.7193 215.814C41.7193 215.814 39.5965 223.223 41.8377 224.949Z" fill="#D17975"/>
<path d="M37.7329 204.582C43.2056 207.604 59.1797 303.804 62.1293 318.939C65.0785 334.075 81.1643 419.843 81.1643 419.843L59.4491 421.525C59.4491 421.525 35.0522 347.248 29.4223 335.477C23.792 323.705 -4.66986 235.898 -1.83192 215.895C-1.83192 215.895 23.5236 196.734 37.7329 204.582Z" fill="#07C5E3"/>
<path d="M22.3622 210.562C22.3622 210.562 21.8489 313.946 17.726 328.402C13.6035 342.858 3.81618 423.678 3.81618 423.678H-19.2813L-26.028 204.845C-26.028 204.845 20.0084 194.204 22.3622 210.562Z" fill="#07C5E3"/>
<path d="M3.75968 132.659C2.10801 129.518 3.09777 125.548 5.98795 123.621C9.48876 121.287 11.6125 120.992 19.5809 120.992C40.1539 120.992 42.2461 135.887 44.6383 149.814C48.0744 169.82 54.9686 217.491 52.9843 225L41.7193 215.814C29.3879 215.814 18.5255 160.735 3.75968 132.659Z" fill="#F7F9FF"/>
<path d="M48.4601 236.381C48.4601 236.381 54.0085 236.229 55.1526 232.643C56.2977 229.058 52.9833 225 52.9833 225L47.131 227.352C47.131 227.352 46.0128 234.997 48.4601 236.381Z" fill="#D17975"/>
<path d="M17.727 120.744C17.727 120.744 35.7089 133.707 38.4701 144.772C41.2314 155.837 41.993 204.669 41.993 204.669C41.993 204.669 4.35256 231.923 -27.6729 204.167C-27.6729 204.167 -27.9547 203.674 -27.1739 199.555C-26.0533 193.641 -24.5181 158.374 -24.0412 150.912C-23.9794 149.942 -26.6563 149.745 -26.212 148.891C-23.0692 142.846 -13.7741 118.344 17.727 120.744Z" fill="#8ACBC9"/>
<path d="M4.74511 121.377L3.50132 136.026L13.6256 142.654L18.7393 165.014L11.1049 295.583L-31.8241 280.625L-27.6738 204.167L-23.9051 144.371C-23.9051 144.371 -16.1562 123.393 4.74511 121.377Z" fill="#F7F9FF"/>
<path d="M38.3647 161.376C38.3547 161.216 38.3484 161.071 38.3417 160.928L37.3208 141.64C39.921 145.855 40.1616 158.227 40.2637 159.884C40.858 168.176 41.2683 178.101 41.5387 186.501C41.5353 186.476 38.7606 167.624 38.3681 161.408L38.3671 161.409L38.3647 161.376Z" fill="#383BA4"/>
<path d="M22.229 103.023C22.229 103.023 21.6802 106.607 22.229 107.896C22.7778 109.186 21.7679 116.554 20.4743 117.984C19.8114 118.715 16.8436 118.516 14.2386 115.648C11.6336 112.781 11.8085 106.75 11.8085 106.75C11.8085 106.75 11.2597 100.299 22.229 103.023Z" fill="#D17975"/>
<path d="M21.4219 126.027C21.3357 122.567 18.8102 104.088 18.8102 104.088C18.8102 104.088 14.9916 105.7 12.6479 107.763C12.5736 107.212 12.3699 106.501 11.9509 105.555C11.9509 105.555 10.9741 103.723 10.1028 104.088C9.23283 104.452 8.36146 105.909 10.1028 107.547L11.1913 109.481C11.0374 109.769 10.932 110.059 10.8864 110.349C10.8864 110.349 8.62268 125.208 7.92578 126.573C7.92578 126.573 13.721 134.766 17.0919 134.128C20.4643 133.491 21.5096 129.486 21.4219 126.027Z" fill="#D17975"/>
<path d="M21.2149 123.361C21.0696 121.903 20.8597 120.071 20.6239 118.117C20.5295 118.031 20.4729 117.984 20.4729 117.984C20.4729 117.984 16.7027 120.791 14.2377 115.648C14.2377 115.648 16.3758 123.958 21.2149 123.361Z" fill="#AB6360"/>
<path d="M-0.0839197 153.146L-10.2978 179.294C-10.2978 179.294 -8.22388 181.932 6.25914 185.77L-18.1464 183.452L-0.0839197 153.146Z" fill="#DDE2EE"/>
<path d="M-13.9912 130.803C-11.5904 128.244 -4.10323 129.919 -1.88407 132.649C0.804324 135.957 3.24971 141.406 1.11012 149.431C-1.82416 160.439 -13.9826 180.988 -13.9826 180.988C-13.9826 180.988 -3.65653 204.592 -29.891 199.863C-33.7609 199.166 -36.5545 195.604 -36.5379 191.498C-36.4858 178.608 -32.0484 150.047 -13.9912 130.803Z" fill="#F7F9FF"/>
<path d="M74.666 420.389C74.666 420.389 87.4772 430.9 91.9869 431.709C92.7716 431.85 93.4402 432.647 93.4977 433.654C93.5543 434.653 93.1075 435.782 91.0954 436.298C88.1324 437.057 74.9574 435.744 68.2122 434.999C65.9139 434.745 64.1669 432.763 64.1094 430.348C64.0782 429.049 64.0428 427.556 64.003 426.034C63.9488 423.913 64.6836 421.136 64.6836 421.136L74.666 420.389Z" fill="#422E2D"/>
<path d="M21.9984 105.452C20.6789 102.353 14.9235 104.444 14.714 104.561C14.1753 104.863 13.8197 105.491 13.8249 106.131C13.8283 106.517 13.9524 106.89 13.9802 107.275C14.0248 107.871 13.8264 108.482 13.4458 108.927C13.4813 108.23 12.2121 105.535 11.4241 107.764C11.2156 108.355 11.7721 108.975 11.831 109.602C11.9384 110.738 11.3565 111.817 10.7056 112.735C9.98957 112.035 9.71014 110.969 9.64592 109.945C9.52273 107.996 8.89197 109.347 8.65472 107.409C8.34797 104.908 8.13947 100.752 11.8032 98.906C25.5889 91.9547 21.9984 105.452 21.9984 105.452Z" fill="#422E2D"/>
<path d="M17.8069 302.494L17.806 302.493C17.8103 302.483 17.8136 302.474 17.818 302.465C18.014 301.991 18.2081 301.547 18.4046 301.116C18.4343 301.05 18.4641 300.979 18.4943 300.914C18.6826 300.503 18.8667 300.121 19.0483 299.751C19.0852 299.675 19.1217 299.599 19.1581 299.526C19.3278 299.188 19.4898 298.876 19.6484 298.577C19.6982 298.483 19.7467 298.39 19.7956 298.3C19.9341 298.044 20.064 297.811 20.1905 297.589C20.2581 297.471 20.3199 297.362 20.3832 297.254C20.4287 297.176 20.4829 297.078 20.526 297.005V297.013C21.0662 296.102 21.4276 295.583 21.4276 295.583L33.1647 344.768H33.1632C31.5825 340.543 30.2812 337.275 29.4209 335.477C27.7639 332.012 24.1265 321.949 19.8933 308.975C19.3134 318.232 18.6016 325.33 17.725 328.402C16.2617 333.534 14.0823 347.047 11.8818 362.328L11.8809 362.329C11.8809 362.329 16.8934 304.705 17.8069 302.494Z" fill="#0F5560"/>
<path d="M17.2783 190.001C4.09656 188.86 -14.9954 183.45 -14.9954 183.45L-27.2881 198.034L-27.6121 203.165C-12.5414 206.455 5.67106 202.363 16.7506 199.018L17.2783 190.001Z" fill="#DDE2EE"/>
<path d="M20.9143 120.58L21.2987 124.246L29.7545 133.17L26.3074 140.056L25.5213 164.07L39.4287 293.988L64.5939 284.141L42.3956 180.989L38.8627 130.088C38.8627 130.088 35.4026 119.479 20.9143 120.58Z" fill="#F7F9FF"/>
<path d="M40.0983 147.892L43.6293 180.989L45.1376 194.472L41.5386 179L40.0983 147.892Z" fill="#DDE2EE"/>
<path d="M9.74226 148.104L8.41987 148.326L5.07676 131.259C4.77959 129.316 4.80499 127.408 5.152 125.595C5.76167 122.423 6.89474 120.764 7.91996 119.782C8.63172 119.102 9.51173 118.861 9.51173 118.861L9.18148 120.764C8.71369 121.07 7.13295 122.397 6.46577 125.871C6.14751 127.521 6.12643 129.261 6.39819 131.038L9.74226 148.104Z" fill="black"/>
<path d="M4.74513 121.377L15.4613 138.034L18.7393 165.014L13.6256 142.654L3.50134 136.026L4.74513 121.377Z" fill="#C1F3F2"/>
<path d="M29.5375 137.536C27.7329 122.106 21.074 121.093 20.9997 121.089L20.8324 119.652C21.178 119.672 28.8535 120.659 30.7903 137.22L29.5375 137.536Z" fill="#272425"/>
<path d="M20.9143 130.157L24.1764 136.218L25.5204 164.072L26.306 140.058L29.7536 133.171L21.2977 124.247C21.2987 124.245 21.2944 127.084 20.9143 130.157Z" fill="#C1F3F2"/>
<path d="M9.1825 120.763C9.1825 120.763 8.68355 126.333 7.99096 126.42L4.74609 121.376C4.74609 121.376 6.56216 120.767 9.1825 120.763Z" fill="#B0F0EE"/>
<path d="M35.9294 143.096L34.7531 143.186C34.537 140.121 32.5484 137.767 30.3191 137.94C28.0899 138.111 26.4536 140.746 26.6697 143.81L25.4935 143.901C25.2299 140.158 27.3547 136.932 30.2314 136.71C33.1091 136.489 35.6643 139.354 35.9294 143.096Z" fill="black"/>
<path d="M29.9452 153.653L27.4677 153.508C27.1274 153.526 26.396 153.264 26.316 152.141L25.7255 143.771L26.4205 143.717L27.011 152.087C27.0565 152.729 27.3791 152.78 27.4778 152.779L29.9831 152.924L29.9452 153.653Z" fill="#E0E0E0"/>
<path d="M30.9729 154.082L29.247 154.215C29.1061 154.225 28.9834 154.116 28.9723 153.967L28.888 152.77C28.8779 152.623 28.9834 152.494 29.1252 152.483L30.8512 152.349C30.9921 152.339 31.1148 152.449 31.1258 152.597L31.2102 153.794C31.2203 153.942 31.1148 154.07 30.9729 154.082Z" fill="#3C2820"/>
<path d="M32.8945 153.426L35.324 152.904C35.6634 152.869 36.3507 152.498 36.2706 151.374L35.6801 143.004L34.9852 143.057L35.5757 151.427C35.6212 152.069 35.3087 152.169 35.2109 152.183L32.7535 152.711L32.8945 153.426Z" fill="#E0E0E0"/>
<path d="M31.9378 154.008L33.6637 153.875C33.8042 153.864 33.9106 153.736 33.901 153.587L33.8166 152.39C33.8066 152.243 33.6834 152.132 33.5415 152.142L31.8156 152.275C31.6746 152.286 31.5682 152.414 31.5783 152.563L31.6627 153.76C31.6727 153.907 31.7959 154.018 31.9378 154.008Z" fill="#3C2820"/>
<path d="M9.51275 153.426C10.9363 153.426 12.0904 152.22 12.0904 150.732C12.0904 149.243 10.9363 148.037 9.51275 148.037C8.0897 148.037 6.93555 149.243 6.93555 150.732C6.93555 152.22 8.0897 153.426 9.51275 153.426Z" fill="black"/>
<path d="M9.51311 152.513C10.454 152.513 11.217 151.715 11.217 150.731C11.217 149.747 10.454 148.95 9.51311 148.95C8.57177 148.95 7.8092 149.747 7.8092 150.731C7.8092 151.715 8.57177 152.513 9.51311 152.513Z" fill="#3C2820"/>
<path d="M8.40454 169.305L33.922 167.624L31.6415 200.648L13.4171 201.928L8.40454 169.305Z" fill="#BC2638"/>
<path d="M27.2904 193.303C27.2904 193.303 24.7798 187.325 25.1633 186.681C25.5467 186.036 28.2384 180.002 30.5218 179.446C32.8052 178.89 35.4414 182.773 35.4414 182.773C35.4414 182.773 35.3187 188.222 33.4264 191.669L27.2904 193.303Z" fill="#D17580"/>
<path d="M12.423 167.296L16.9691 166.851L17.2884 176.326L13.487 176.71L12.423 167.296Z" fill="#EAAC3E"/>
<path d="M-13.9827 180.989C-13.9827 180.989 9.93732 190.018 25.1623 186.68L27.856 193.08C27.856 193.08 -6.20745 207.073 -29.8921 199.864L-13.9827 180.989Z" fill="#F7F9FF"/>
<path d="M17.0933 134.128L24.1768 136.217L20.9142 130.155C20.9142 130.155 19.9163 133.441 17.0933 134.128Z" fill="#7BB3B1"/>
<path d="M15.6209 110.132C15.93 110.494 16.4544 110.656 17.1805 110.613C17.1805 110.613 17.2194 110.614 17.2836 110.61C17.634 110.59 18.7646 110.42 18.8591 109.121L18.8135 108.262C18.8945 108.239 19.5416 108.203 19.625 108.216L19.6705 109.054C19.9054 110.35 21.0471 110.39 21.4065 110.368C21.5163 110.362 21.5163 110.357 21.5182 110.357C22.229 110.315 22.7323 110.093 22.9993 109.698C23.3132 109.235 23.1747 108.715 23.168 108.693L23.1167 107.681L23.0069 107.657C21.2402 107.276 19.9883 107.812 19.7501 107.929C19.6595 107.908 18.7469 107.962 18.6582 107.993C18.4123 107.908 17.1106 107.518 15.3913 108.106L15.2849 108.143L15.3415 109.189C15.3396 109.187 15.2629 109.713 15.6209 110.132ZM19.9595 109.014L19.9164 108.184C20.2246 108.049 21.3433 107.638 22.8396 107.932L22.8828 108.745C22.8895 108.782 22.994 109.184 22.7601 109.524C22.5449 109.838 22.1159 110.017 21.4851 110.054C21.4228 110.064 20.1838 110.24 19.9595 109.014ZM15.6329 109.203L15.5897 108.357C17.0454 107.894 18.2005 108.17 18.5221 108.265L18.5672 109.117C18.4766 110.346 17.2285 110.305 17.1772 110.308C16.5321 110.345 16.0863 110.219 15.8404 109.931C15.572 109.62 15.6319 109.207 15.6329 109.203Z" fill="#5D5B5E"/>
<path d="M-22.0128 237.374L-22.7433 243.937L4.91811 250.066L5.6222 243L-22.0128 237.374Z" fill="#8ACBC9"/>
<path d="M37.5125 241.213L51.1351 233.035L52.2615 239.132L38.2472 246.281L37.5125 241.213Z" fill="#8ACBC9"/>
<path d="M90.4891 160.419H86.5905V151.518H90.3247V152.461H87.4522V155.422H90.1095V156.359H87.4522V159.475H90.4891V160.419Z" fill="white"/>
<path d="M183.9 300.786H65.2002V312.039H183.9V300.786Z" fill="#9CC4F7"/>
<path d="M192.062 68.7603H175.22V75.6933H192.062V68.7603Z" fill="#9CC4F7"/>
<path d="M192.062 74.4009H175.22V75.6934H192.062V74.4009Z" fill="#8DB1DF"/>
<path d="M192.062 68.7603H175.22V70.0523H192.062V68.7603Z" fill="#8DB1DF"/>
<path d="M178.085 68.7603H175.22V75.6933H178.085V68.7603Z" fill="#6B8C96"/>
<path d="M185.073 68.7603H182.208V75.6933H185.073V68.7603Z" fill="#6B8C96"/>
<path d="M192.061 68.7603H189.197V75.6933H192.061V68.7603Z" fill="#6B8C96"/>
<path d="M193.008 70.769H192.061V73.9593H193.008V70.769Z" fill="#6B8C96"/>
<path d="M300.741 211.73H241.597C239.353 211.73 237.535 213.632 237.535 215.977V296.708C237.535 298.596 239.668 299.6 241.02 298.347L256.235 284.241C257.752 282.835 259.71 282.059 261.737 282.059H300.742C302.986 282.059 304.804 280.157 304.804 277.812V215.977C304.804 213.632 302.985 211.73 300.741 211.73Z" fill="#A0D6DF"/>
<path d="M248.803 228.148V229.408H296.899V228.148H248.803ZM248.803 238.023H296.899V236.763H248.803V238.023ZM248.803 246.638H296.899V245.378H248.803V246.638ZM248.803 255.254H296.899V253.994H248.803V255.254ZM248.803 263.869H272.851V262.609H248.803V263.869Z" fill="white"/>
</g>
</g>
<path d="M136.148 284.718L135.585 284.766L114.395 305.954L114.344 306.512L114.882 306.668L155.012 289.14L155.25 288.886L162.033 269.984L161.928 269.523L149.089 256.682L148.6 256.589L130.721 264.39L130.491 264.619L112.962 304.746L113.117 305.286L113.678 305.233L134.864 284.048L134.911 283.483C133.519 281.502 133.699 278.756 135.466 276.986C137.452 275.007 140.659 275.007 142.645 276.986C144.622 278.973 144.622 282.178 142.645 284.163C140.876 285.934 138.13 286.112 136.148 284.718Z" fill="#616E7D"/>
<path d="M180.821 211.334L208.298 238.808C241.764 204.316 280.961 153.215 273.686 145.943C266.416 138.671 215.315 177.867 180.821 211.334Z" fill="#1BB4CC"/>
<path d="M157.88 261.749C164.161 268.033 167.9 274.891 188.337 257.767L161.865 231.293C144.741 251.731 151.599 255.467 157.88 261.749Z" fill="#1BB4CC"/>
<path d="M188.337 257.767C190.64 255.839 193.155 253.604 195.906 251.032L168.601 223.723C166.027 226.477 163.79 228.993 161.865 231.293L188.337 257.767Z" fill="#AAD4C8"/>
<path d="M168.601 223.722L195.906 251.032C198.314 248.782 200.886 246.299 203.682 243.503C205.203 241.985 206.745 240.408 208.298 238.809L180.821 211.334C179.222 212.884 177.647 214.428 176.125 215.948C173.332 218.742 170.848 221.316 168.601 223.722Z" fill="#616E7D"/>
<defs>
<clipPath id="clip0_118_486">
<rect width="431.371" height="467" fill="white" transform="translate(-83)"/>
</clipPath>
</defs>
</svg>
